<?xml version="1.0" encoding="utf-8" ?>
<svg baseProfile="full" height="200mm" version="1.1" viewBox="0,0,200,200" width="200mm" xmlns="http://www.w3.org/2000/svg" xmlns:ev="http://www.w3.org/2001/xml-events" xmlns:xlink="http://www.w3.org/1999/xlink"><defs /><rect fill="#1a1a1a" height="200" width="200" x="0" y="0" /><text alignment-baseline="middle" fill="#e1ed5e" style="dominant-baseline: central; font-size:9.0px; font-family:Arial;" text-anchor="middle" x="100.0" y="100.0">2014</text><line stroke="#e1ed5e" stroke-width="0.3" x1="100.0" x2="100.0" y1="15.0" y2="10.0" /><path d="M 100.0 14.0 a86.0,86.0 0 0,1 42.46469731375804,11.215312516191453" fill="none" id="id1" stroke="none" /><text fill="#e1ed5e" style="font-size:6.75px; font-family:Arial;" text-anchor="middle"><textPath startOffset="22.20632615414155" xlink:href="#id1">January</textPath></text><line stroke="#e1ed5e" stroke-width="0.3" x1="143.23703022742887" x2="145.7803849466894" y1="26.81831364943548" y2="22.513508569990506" /><path d="M 143.74570117128098 25.957352633546492 a86.0,86.0 0 0,1 28.547481713284135,27.462654790039103" fill="none" id="id2" stroke="none" /><text fill="#e1ed5e" style="font-size:6.75px; font-family:Arial;" text-anchor="middle"><textPath startOffset="19.985693538727396" xlink:href="#id2">February</textPath></text><line stroke="#e1ed5e" stroke-width="0.3" x1="172.23445277983987" x2="176.4835382374775" y1="55.19839476539836" y2="52.563006222186495" /><path d="M 173.08426987136738 54.67131705675599 a86.0,86.0 0 0,1 12.851231095245387,41.99856678651699" fill="none" id="id3" stroke="none" /><text fill="#e1ed5e" style="font-size:6.75px; font-family:Arial;" text-anchor="middle"><textPath startOffset="22.20632615414155" xlink:href="#id3">March</textPath></text><line stroke="#e1ed5e" stroke-width="0.3" x1="184.98032266829074" x2="189.97916517819016" y1="98.17113171792111" y2="98.06355123074" /><path d="M 185.9800911702706 98.14961562048488 a86.0,86.0 0 0,1 -9.607161424134198,41.387399972396054" fill="none" id="id4" stroke="none" /><text fill="#e1ed5e" style="font-size:6.75px; font-family:Arial;" text-anchor="middle"><textPath startOffset="21.466115282336823" xlink:href="#id4">April</textPath></text><line stroke="#e1ed5e" stroke-width="0.3" x1="174.80103733775053" x2="179.2010983576182" y1="140.37084112569926" y2="142.7455964860345" /><path d="M 175.68104954172406 140.8457921977663 a86.0,86.0 0 0,1 -30.038265399797805,32.042727171017184" fill="none" id="id5" stroke="none" /><text fill="#e1ed5e" style="font-size:6.75px; font-family:Arial;" text-anchor="middle"><textPath startOffset="22.206326154141568" xlink:href="#id5">May</textPath></text><line stroke="#e1ed5e" stroke-width="0.3" x1="143.8653032363475" x2="146.44561519142675" y1="172.8068346515853" y2="177.08958963109032" /><path d="M 144.38136562736335 173.6633856474863 a86.0,86.0 0 0,1 -40.68145358897372,12.25698825130547" fill="none" id="id6" stroke="none" /><text fill="#e1ed5e" style="font-size:6.75px; font-family:Arial;" text-anchor="middle"><textPath startOffset="21.466115282336833" xlink:href="#id6">June</textPath></text><path d="M 108.2653958097858 119.30500536409082 l 5.427952439063289 12.677753535781633 a34.790870255163625,34.790870255163625 0 0,0 -0.5525594370960912,0.2309698895200634 l -5.208921542469737 -12.76930846832167" fill="#ff1502" stroke="none" /><path d="M 107.93186726928326 119.44442032107085 l 4.768236787516757 11.689000476081635 a33.624136176058336,33.624136176058336 0 0,0 -0.5377923179922015,0.21399866209763105 l -4.566323393482689 -11.769345982585333" fill="#ff0000" stroke="none" /><path d="M 107.59598834532513 119.57807347666477 l 5.029768420474727 12.963839757240626 a34.90538426707502,34.90538426707502 0 0,0 -0.5620261845954216,0.2125102123450484 l -4.80587201511903 -13.048498219692306" fill="#ff1702" stroke="none" /><path d="M 107.2578585660854 119.70592522655815 l 4.805861472781925 13.048469596028061 a34.90535376371412,34.90535376371412 0 0,0 -0.5656004340519609,0.20280419255146867 l -4.580541478100229 -13.12926132961949" fill="#ff1702" stroke="none" /><path d="M 106.91757812671514 119.82793768551818 l 4.263857399722479 12.221545933125443 a33.94398180316487,33.94398180316487 0 0,0 -0.5533358264691113,0.18772155520971578 l -4.052851840316141 -12.293130475233282" fill="#ff0600" stroke="none" /><path d="M 106.2309692047433 120.05430185196036 l 4.40035211739014 14.162482066173233 a35.8303404219761,35.8303404219761 0 0,0 -0.5905608330652938,0.17793113455818946 l -4.1559163098846 -14.236128569837149" fill="#ff2703" stroke="none" /><path d="M 105.53697534728816 120.25689768951611 l 3.9093897224970884 14.302412900547804 a35.82708139790573,35.82708139790573 0 0,0 -0.5962813026065937,0.15748331153482592 l -3.662617977078997 -14.367587561386214" fill="#ff2703" stroke="none" /><path d="M 105.18746579009965 120.34920634021253 l 4.253428497971789 16.685198064102398 a38.218812050361805,38.218812050361805 0 0,0 -0.638885163395052,0.15702242916370504 l -3.9655900498335255 -16.75594175158013" fill="#ff5107" stroke="none" /><path d="M 104.48393922423573 120.51570834832081 l 3.1337069013707666 14.337887652480577 a35.67634631912363,35.67634631912363 0 0,0 -0.6010759977480248,0.12596131948055686 l -2.8864394421933635 -14.389704952687675" fill="#ff2503" stroke="none" /><path d="M 103.7750983002368 120.6578951692458 l 4.220017471862698 23.092558554212157 a44.47498259940875,44.47498259940875 0 0,0 -0.7542767045972432,0.1311406734670907 l -3.821891795793405 -23.161777806200252" fill="#ffb811" stroke="none" /><path d="M 101.98527174616119 120.90594882070398 l 2.2187760703385244 23.364871363727996 a44.469984684568146,44.469984684568146 0 0,0 -0.7626722701949444,0.06580657262996864 l -1.8162594824020382 -23.399602188636628" fill="#ffb811" stroke="none" /><line stroke="#e1ed5e" stroke-width="0.3" x1="102.19456741930631" x2="102.32365962044197" y1="184.97166512339345" y2="189.96999836594603" /><path d="M 102.22038585953345 185.97133177190398 a86.0,86.0 0 0,1 -42.740103519485714,-10.115201625700543" fill="none" id="id7" stroke="none" /><text fill="#e1ed5e" style="font-size:6.75px; font-family:Arial;" text-anchor="middle"><textPath startOffset="22.20632615414155" xlink:href="#id7">July</textPath></text><path d="M 100.18074693466247 120.99922214144158 l 0.2737683371527407 31.806470952878655 a52.80764913631218,52.80764913631218 0 0,0 -0.9090305436303704,0.0 l 0.27376833715271875 -31.806470952878655" fill="#c9ff1d" stroke="none" /><path d="M 99.09653310690486 120.98055641714683 l -0.9557749348986333 22.195268135435725 a43.21583744381627,43.21583744381627 0 0,0 -0.7429253786057516,-0.03840075607785155 l 1.3376883819178738 -22.175527572595673" fill="#ffa40f" stroke="none" /><path d="M 97.65516085044442 120.86867818915974 l -5.390854739072075 47.97771000007567 a69.27962273743589,69.27962273743589 0 0,0 -1.18393127341958,-0.14335758934107592 l 6.215913435543044 -47.87780688200924" fill="#36ff73" stroke="none" /><path d="M 96.22490169976321 120.6578951692458 l -11.294800282118695 61.80681445326612 a83.83036547938755,83.83036547938755 0 0,0 -1.417261648927314,-0.27162156812806626 l 12.357029545617705 -61.60323568678959" fill="#4dd4ff" stroke="none" /><path d="M 95.86986931433489 120.58985236759428 l -9.546810165467173 47.593508982818754 a69.54156653460122,69.54156653460122 0 0,0 -1.1716380964532533,-0.24552815473561862 l 10.364639723349812 -47.42212484735659" fill="#37ff77" stroke="none" /><path d="M 95.16358092515715 120.4354850818985 l -14.509257224528554 61.30645524569551 a84.0,84.0 0 0,0 -1.4041868610271577,-0.3451149667438802 l 15.562397370298923 -61.0476190206376" fill="#4dd2ff" stroke="none" /><path d="M 93.08242187328487 119.8279376855182 l -18.397975920348056 52.73434045934673 a76.85155487225043,76.85155487225043 0 0,0 -1.2452895646770499,-0.4465165326126613 l 19.302985045654832 -52.40983638569411" fill="#42ffd8" stroke="none" /><path d="M 92.7421414339146 119.70592522655815 l -9.68715229214728 26.301738589857436 a49.02895596308307,49.02895596308307 0 0,0 -0.7894357169595756,-0.29849703882499956 l 10.138458229867139 -26.1310933009258" fill="#fffe18" stroke="none" /><line stroke="#e1ed5e" stroke-width="0.3" x1="58.666819895761336" x2="56.23545636021788" y1="174.27360380694188" y2="178.64263932499728" /><path d="M 58.180547188652646 175.14741091055294 a86.0,86.0 0 0,1 -31.652253787137756,-30.449443065178592" fill="none" id="id8" stroke="none" /><text fill="#e1ed5e" style="font-size:6.75px; font-family:Arial;" text-anchor="middle"><textPath startOffset="22.20632615414155" xlink:href="#id8">August</textPath></text><path d="M 89.7882731507175 118.34994917583269 l -6.550600071753195 11.771092212119145 a34.471042022288586,34.471042022288586 0 0,0 -0.5160006935817761,-0.29299866060660384 l 6.752249532256179 -11.656590385717907" fill="#ff0f01" stroke="none" /><path d="M 89.4739219176387 118.17145234162733 l -12.47660472461233 21.538699063854583 a45.891388527310184,45.891388527310184 0 0,0 -0.6801368834675442,-0.40183685913447814 l 12.845509479108255 -21.320743632426357" fill="#ffce13" stroke="none" /><path d="M 89.1626897886671 117.98757091392108 l -7.340086174046962 12.182941891973643 a35.22325343181516,35.22325343181516 0 0,0 -0.5166426049073695,-0.3173640850060161 l 7.5487079788866405 -12.05478934013925" fill="#ff1d02" stroke="none" /><path d="M 83.28015986056508 112.70617746262583 l -22.67372717977775 17.230810754339885 a49.47803967050519,49.47803967050519 0 0,0 -0.5094794583219225,-0.6825309923653751 l 22.966967904794757 -16.837966882465203" fill="#faff18" stroke="none" /><path d="M 82.85270091963577 112.12312394758628 l -31.607343376906247 22.346361349172643 a59.70896563967392,59.70896563967392 0 0,0 -0.5861120005357,-0.8443380510703145 l 31.98731628460408 -21.798982035915316" fill="#6cff28" stroke="none" /><line stroke="#e1ed5e" stroke-width="0.3" x1="26.63291911575756" x2="22.317208475507996" y1="142.92168965132927" y2="145.44649492493687" /><path d="M 25.769776987707644 143.4266507060508 a86.0,86.0 0 0,1 -11.730757126820373,-40.83630448921669" fill="none" id="id9" stroke="none" /><text fill="#e1ed5e" style="font-size:6.75px; font-family:Arial;" text-anchor="middle"><textPath startOffset="21.46611528233685" xlink:href="#id9">September</textPath></text><line stroke="#e1ed5e" stroke-width="0.3" x1="15.007084014347285" x2="10.007500721073583" y1="101.09737516637583" y2="101.16192664675087" /><path d="M 14.007167355692545 101.11028546245083 a86.0,86.0 0 0,1 10.666146001902534,-42.60595125391555" fill="none" id="id10" stroke="none" /><text fill="#e1ed5e" style="font-size:6.75px; font-family:Arial;" text-anchor="middle"><textPath startOffset="22.20632615414155" xlink:href="#id10">October</textPath></text><line stroke="#e1ed5e" stroke-width="0.3" x1="26.266209847984243" x2="21.928928074336255" y1="57.711370442889674" y2="55.22380399835377" /><path d="M 25.398753493254645 57.213857153982495 a86.0,86.0 0 0,1 29.58750427330803,-30.492523968695096" fill="none" id="id11" stroke="none" /><text fill="#e1ed5e" style="font-size:6.75px; font-family:Arial;" text-anchor="middle"><textPath startOffset="21.46611528233685" xlink:href="#id11">November</textPath></text><line stroke="#e1ed5e" stroke-width="0.3" x1="56.762969772571076" x2="54.21961505331055" y1="26.818313649435495" y2="22.513508569990535" /><path d="M 56.25429882871897 25.957352633546506 a86.0,86.0 0 0,1 42.265352541879196,-11.944610805530505" fill="none" id="id12" stroke="none" /><text fill="#e1ed5e" style="font-size:6.75px; font-family:Arial;" text-anchor="middle"><textPath startOffset="22.20632615414155" xlink:href="#id12">December</textPath></text></svg>