<?xml version="1.0" encoding="utf-8" ?>
<svg baseProfile="full" height="200mm" version="1.1" viewBox="0,0,200,200" width="200mm" xmlns="http://www.w3.org/2000/svg" xmlns:ev="http://www.w3.org/2001/xml-events" xmlns:xlink="http://www.w3.org/1999/xlink"><defs /><rect fill="#1a1a1a" height="200" width="200" x="0" y="0" /><text alignment-baseline="middle" fill="#e1ed5e" style="dominant-baseline: central; font-size:9.0px; font-family:Arial;" text-anchor="middle" x="100.0" y="100.0">2022</text><line stroke="#e1ed5e" stroke-width="0.3" x1="100.0" x2="100.0" y1="15.0" y2="10.0" /><path d="M 100.0 14.0 a86.0,86.0 0 0,1 42.46469731375804,11.215312516191453" fill="none" id="id97" stroke="none" /><text fill="#e1ed5e" style="font-size:6.75px; font-family:Arial;" text-anchor="middle"><textPath startOffset="22.20632615414155" xlink:href="#id97">January</textPath></text><path d="M 100.0 79.0 l 0.0 -23.401220963522448 a44.40122096352245,44.40122096352245 0 0,0 0.7642940301990252,0.006578520014159877 l -0.4028135509264968 23.397753820116847" fill="#ff920d" stroke="none" /><path d="M 100.36148047927253 79.00311137660856 l 0.6062255276714145 -35.213104482958336 a56.21832245746723,56.21832245746723 0 0,0 0.9674192547692791,0.024985585185875837 l -1.2122714176355613 35.1974521056301" fill="#b0ff20" stroke="none" /><path d="M 100.72285384407766 79.0124445844662 l 1.2133699009178174 -35.22934579886874 a56.25023506209177,56.25023506209177 0 0,0 0.9673946701395001,0.0416580494649514 l -1.8196054034466491 35.2032400228796" fill="#afff20" stroke="none" /><path d="M 101.44485096284872 79.0497635885617 l 1.6149069789787975 -23.416036575413816 a44.47165723701401,44.47165723701401 0 0,0 0.7632391220730994,0.059242045297616244 l -2.017736290414238 23.384769267927734" fill="#ff930d" stroke="none" /><path d="M 102.16513564639614 79.11191278185805 l 3.624358433386429 -34.96589933863798 a56.15323727074682,56.15323727074682 0 0,0 0.960576787303378,0.10793199437965795 l -4.225701924199532 34.898331390787725" fill="#b1ff20" stroke="none" /><path d="M 102.52436894288641 79.15227682838746 l 4.249456342677983 -35.094509347237754 a56.350848158589976,56.350848158589976 0 0,0 0.9619499571878699,0.12488871259161415 l -4.852921028373699 35.016162311482006" fill="#aeff20" stroke="none" /><path d="M 102.88285421437855 79.19881850522331 l 3.250117695921061 -23.451164382522506 a44.6753115276955,44.6753115276955 0 0,0 0.7608227243484366,0.11212549234936198 l -3.6533094006981535 23.391744406012176" fill="#ff960d" stroke="none" /><path d="M 103.2404852339499 79.25152402106235 l 3.622900245626491 -23.19703787967658 a44.47824466566678,44.47824466566678 0 0,0 0.7554328968787005,0.12465290078381878 l -4.021662348644067 23.131238715953135" fill="#ff930d" stroke="none" /><path d="M 103.95276090670814 79.375362276772 l 4.42688925411487 -23.09853524204368 a44.51892171839797,44.51892171839797 0 0,0 0.751381012919227,0.15071996256602602 l -4.823836676501221 23.01891132340045" fill="#ff940d" stroke="none" /><path d="M 105.36241919743992 79.69619591428918 l 9.016582601682256 -34.13961496232619 a56.310226161677946,56.310226161677946 0 0,0 0.935023558136539,0.25557725915825064 l -9.602904049042504 33.97935116234165" fill="#aeff20" stroke="none" /><path d="M 105.71112130821622 79.79150937346287 l 6.4135582526353225 -22.694025364978973 a44.582886098318326,44.582886098318326 0 0,0 0.7366998856304138,0.2150628982565119 l -6.803248355989163 22.58026413780376" fill="#ff950d" stroke="none" /><path d="M 106.40334571778207 80.00007090966166 l 10.720854430698894 -33.485046388544056 a56.159423365112,56.159423365112 0 0,0 0.9181187968668328,0.30268933230694567 l -11.295656049808144 33.295543331977875" fill="#b1ff20" stroke="none" /><path d="M 107.08798089147638 80.2323363322302 l 7.8961014383566 -22.021430349470727 a44.39426879732315,44.39426879732315 0 0,0 0.7171105052597637,0.26411785103167607 l -8.27399426938894 21.882249230632727" fill="#ff920d" stroke="none" /><path d="M 107.76421540070413 80.48803036053334 l 8.692788114325888 -21.845532229008114 a44.51152576012875,44.51152576012875 0 0,0 0.7094631267212906,0.2894078229478458 l -9.067535110635566 21.69266351987669" fill="#ff940d" stroke="none" /><path d="M 108.09893153111575 80.62456947434976 l 9.10082427495374 -21.772302653511254 a44.59784238695734,44.59784238695734 0 0,0 0.7057422567949266,0.3021620031741593 l -9.47425028953898 21.612421122374304" fill="#ff950d" stroke="none" /><path d="M 109.41281617654863 81.2277094730956 l 10.172994074209875 -20.28833844278549 a43.695957463894686,43.695957463894686 0 0,0 0.6694626689893312,0.3429247811274703 l -10.52071723078796 20.110221136345523" fill="#ff850c" stroke="none" /><path d="M 109.73455568895987 81.39251694778311 l 16.338029912433772 -31.229942528040272 a56.24543277822361,56.24543277822361 0 0,0 0.8540064214997853,0.45618065424985843 l -16.87318138046187 30.94408314728866" fill="#afff20" stroke="none" /><path d="M 110.05341064243156 81.56283822128135 l 11.26516317709824 -20.659420304907577 a44.53116122807112,44.53116122807112 0 0,0 0.6698248151236684,0.3727567844123815 l -11.619112081293942 20.462448122935015" fill="#ff940d" stroke="none" /><path d="M 110.36928655335952 81.73862282372117 l 17.395961264162267 -30.636072053181028 a56.23050353247784,56.23050353247784 0 0,0 0.837575487622808,0.4851777841880533 l -17.920733484250402 30.332090111602923" fill="#b0ff20" stroke="none" /><line stroke="#e1ed5e" stroke-width="0.3" x1="143.23703022742887" x2="145.7803849466894" y1="26.81831364943548" y2="22.513508569990506" /><path d="M 143.74570117128098 25.957352633546492 a86.0,86.0 0 0,1 28.547481713284135,27.462654790039103" fill="none" id="id98" stroke="none" /><text fill="#e1ed5e" style="font-size:6.75px; font-family:Arial;" text-anchor="middle"><textPath startOffset="19.985693538727396" xlink:href="#id98">February</textPath></text><path d="M 110.68208982089419 81.91981866633111 l 11.937327986577829 -20.20475939217862 a44.46768206608749,44.46768206608749 0 0,0 0.6556610092873498,0.39502842185452286 l -12.283351062082815 19.99628436086548" fill="#ff930d" stroke="none" /><path d="M 111.2981086023043 82.29822771554956 l 18.930323630863043 -29.659856351189937 a56.186136922692064,56.186136922692064 0 0,0 0.8107739133988119,0.5273499064182224 l -19.438064570046134 29.329607520612186" fill="#b0ff20" stroke="none" /><path d="M 111.60114157652 82.49532879139004 l 13.049214761535081 -19.689632474921574 a44.62125383823118,44.62125383823118 0 0,0 0.6365865799822923,0.42982610046530534 l -13.386206035923916 19.4620944621576" fill="#ff960d" stroke="none" /><path d="M 111.90073688211348 82.69761687909136 l 13.354605353695863 -19.416150491107068 a44.565491381388156,44.565491381388156 0 0,0 0.6283073451039151,0.4401694477225285 l -13.68684383838343 19.183396200620603" fill="#ff950d" stroke="none" /><path d="M 112.19680574252982 82.90503203632743 l 27.400076963184564 -38.40377946288816 a68.17641884058801,68.17641884058801 0 0,0 0.9494530001978937,0.6898179829860479 l -28.057075279736246 37.92644224508543" fill="#33ff56" stroke="none" /><path d="M 113.06298171725822 83.55741782278167 l 14.75583286722563 -18.573400756743972 a44.72142110574562,44.72142110574562 0 0,0 0.5986209278186347,0.48404315900091643 l -15.073357193608755 18.316651500478926" fill="#ff970d" stroke="none" /><path d="M 113.6212207817346 84.01681056812373 l 15.259487174037856 -17.905537105968136 a44.52573501227597,44.52573501227597 0 0,0 0.5790597310315935,0.502154892601255 l -15.565440703716215 17.64021721994721" fill="#ff940d" stroke="none" /><path d="M 113.89432698308785 84.25364557470407 l 31.051310883957 -35.19025766012124 a67.9312064813794,67.9312064813794 0 0,0 0.8701308639447203,0.7812120809881263 l -31.65245273549771 34.650546570363815" fill="#33ff53" stroke="none" /><path d="M 114.16331599549186 84.49514656593476 l 15.865475088855044 -17.368239612306127 a44.52379746183765,44.52379746183765 0 0,0 0.5614071691147439,0.5217667793285623 l -16.162090141764633 17.09256824690292" fill="#ff940d" stroke="none" /><path d="M 114.42810811169701 84.74124197986012 l 16.307146319878708 -17.245975547710056 a44.73492560953471,44.73492560953471 0 0,0 0.5549617960493213,0.5338728081037923 l -16.601591359540446 16.962719652843962" fill="#ff970e" stroke="none" /><path d="M 114.94478906791727 85.2469230424477 l 16.816201508100495 -16.600482874348657 a44.62965646856899,44.62965646856899 0 0,0 0.5349942586567865,0.5513586108688209 l -17.09946003046039 16.30856006792972" fill="#ff960d" stroke="none" /><path d="M 115.4437574822437 85.77008943001954 l 17.275564150180347 -15.91774107989375 a44.490840721301005,44.490840721301005 0 0,0 0.5140945445410825,0.5676760363479548 l -17.547002335337464 15.618012256276247" fill="#ff930d" stroke="none" /><path d="M 115.9244219780498 86.31012108654704 l 35.59023300486692 -30.596148545284507 a67.93387892712293,67.93387892712293 0 0,0 0.7546787113499507,0.8933015563192775 l -36.11162232970399 29.978988039336123" fill="#33ff53" stroke="none" /><path d="M 116.15771136456269 86.58626213691792 l 18.075452293328635 -15.005799605451616 a44.49246682252358,44.49246682252358 0 0,0 0.4841236076279518,0.5934782995321531 l -18.331074393032996 14.69243713631136" fill="#ff930d" stroke="none" /><path d="M 116.60985879189232 87.15038557335679 l 18.678865085041544 -14.450226054132967 a44.6158640299424,44.6158640299424 0 0,0 0.46469347195418786,0.6114821383352003 l -18.924834497219845 14.126559139916735" fill="#ff950d" stroke="none" /><path d="M 117.04232023915458 87.72973835380427 l 19.216356682663896 -13.835541233474954 a44.67890549367827,44.67890549367827 0 0,0 0.44399636845264867,0.6280013759959089 l -19.451665670920427 13.502713357147252" fill="#ff960d" stroke="none" /><path d="M 117.45458315368197 88.32363383020206 l 39.11665074712431 -26.16735864947747 a68.06211878318787,68.06211878318787 0 0,0 0.6430358748215739,0.9793877535088205 l -39.56128325730381 25.490152831990976" fill="#33ff55" stroke="none" /><path d="M 117.65298651832404 88.62581576622439 l 12.921033619842378 -8.32528913622309 a36.37086689184482,36.37086689184482 0 0,0 0.3345641801960024,0.5292001873084135 l -13.062425396284336 8.10164130120047" fill="#ff0000" stroke="none" /><line stroke="#e1ed5e" stroke-width="0.3" x1="172.23445277983987" x2="176.4835382374775" y1="55.19839476539836" y2="52.563006222186495" /><path d="M 173.08426987136738 54.67131705675599 a86.0,86.0 0 0,1 12.851231095245387,41.99856678651699" fill="none" id="id99" stroke="none" /><text fill="#e1ed5e" style="font-size:6.75px; font-family:Arial;" text-anchor="middle"><textPath startOffset="22.20632615414155" xlink:href="#id99">March</textPath></text><path d="M 118.03404312379186 89.2402003453031 l 40.28342343976534 -24.03463065059257 a67.90860981246236,67.90860981246236 0 0,0 0.590288559115924,1.0089944923768828 l -40.6911716733516 23.337656745861796" fill="#33ff52" stroke="none" /><path d="M 118.3937258080291 89.86733742301442 l 20.577843789152652 -11.335840810804399 a44.49359363525868,44.49359363525868 0 0,0 0.3637709363732751,0.674012297869222 l -20.769922824744395 10.979947529602718" fill="#ff930d" stroke="none" /><path d="M 118.56541770881063 90.18545643968196 l 45.74140767062466 -24.181036222016242 a72.73972253946422,72.73972253946422 0 0,0 0.5756502724099724,1.1119731004943827 l -46.15086737619475 23.390090399261513" fill="#3bff9a" stroke="none" /><path d="M 118.73160827565052 90.50648371742162 l 41.960142707370245 -21.26615569521343 a68.04150246405757,68.04150246405757 0 0,0 0.5204850511646123,1.0492661027195296 l -42.319987771488265 20.540730003994952" fill="#33ff54" stroke="none" /><path d="M 118.89224826269711 90.83032412892265 l 21.180846309965506 -10.280486082801488 a44.543930098967216,44.543930098967216 0 0,0 0.3288653036157351,0.6926742005235885 l -21.354669807422997 9.914369466637359" fill="#ff940d" stroke="none" /><path d="M 119.196687751892 91.48605970444005 l 42.83743440926807 -18.998869163745578 a67.86152810429326,67.86152810429326 0 0,0 0.46439676346947406,1.0718917581835414 l -43.158121882580225 18.258678260975437" fill="#33ff52" stroke="none" /><path d="M 119.47837535516314 92.15188598940014 l 43.8048568135524 -17.64959881007908 a68.22683367125698,68.22683367125698 0 0,0 0.42952511821374084,1.0930945753097245 l -44.10217548164783 16.89295522987357" fill="#34ff57" stroke="none" /><path d="M 119.61058180528143 92.48833698450437 l 43.97244126007968 -16.84326166322298 a68.08790772403202,68.08790772403202 0 0,0 0.4098094816591617,1.0980856663910188 l -44.255855330240465 16.083852859802626" fill="#33ff55" stroke="none" /><path d="M 119.7369772167798 92.82701384747503 l 44.13782908112605 -16.040958720480603 a67.96232865464466,67.96232865464466 0 0,0 0.390126159062315,1.1029391866227338 l -44.40740832099818 15.278821907431256" fill="#33ff53" stroke="none" /><path d="M 119.85752413597 93.16781622104841 l 22.312283668609137 -7.676768841282902 a44.59599081096138,44.59599081096138 0 0,0 0.24349985682448128,0.7280335786584232 l -22.441120819205388 7.291562159702165" fill="#ff950d" stroke="none" /><path d="M 120.08093135843002 93.85539295169968 l 43.8547128250756 -13.419197183452436 a66.86186531333226,66.86186531333226 0 0,0 0.3272859743962943,1.1034456030910706 l -44.0792046965836 12.662322193614836" fill="#31ff42" stroke="none" /><path d="M 120.28053869075195 94.5502522615342 l 44.94473367671044 -12.077463249153892 a67.53916849069279,67.53916849069279 0 0,0 0.29203829720878943,1.1253426890643743 l -45.14596830578953 11.302024134540666" fill="#32ff4d" stroke="none" /><path d="M 120.37134235888165 94.90015583598534 l 45.27369417902423 -11.333999545769553 a67.67083597193559,67.67083597193559 0 0,0 0.2731555842547804,1.132406245071051 l -45.46208256353983 10.553008069039095" fill="#33ff4f" stroke="none" /><path d="M 120.45610955862082 95.25157060432595 l 45.3315026371909 -10.522696852774665 a67.53678416479849,67.53678416479849 0 0,0 0.2531201903619784,1.1346881815111056 l -45.50591721455491 9.740830501713596" fill="#32ff4d" stroke="none" /><path d="M 120.6074358757038 95.95851677861258 l 45.98500667568838 -9.018474400995139 a67.8610042517711,67.8610042517711 0 0,0 0.21493931297888172,1.1482144045743101 l -46.13343171257712 8.225581918958266" fill="#33ff52" stroke="none" /><path d="M 120.67395015179393 96.31383870115 l 45.44808462320674 -8.103384665962695 a67.16484852095499,67.16484852095499 0 0,0 0.193140960640794,1.139928882784873 l -45.580837445367756 7.3198699948619845" fill="#32ff47" stroke="none" /><path d="M 120.73433829027371 96.67025291283417 l 46.124127222564134 -7.407117416399193 a67.71509927703896,67.71509927703896 0 0,0 0.17491166956914705,1.1524493612415239 l -46.24479478557258 6.612068942765587" fill="#33ff4f" stroke="none" /><path d="M 120.78858239683441 97.02765380044208 l 45.85227352474313 -6.555946353182483 a67.3185861180333,67.3185861180333 0 0,0 0.1541403313487928,1.1485245068681733 l -45.95832985514976 5.765703504249646" fill="#32ff49" stroke="none" /><path d="M 120.87857604477298 97.74499172005257 l 46.423346007502964 -5.0139927840525225 a67.69333119590925,67.69333119590925 0 0,0 0.11515239821251119,1.1595689352046368 l -46.5027755313977 4.214148318143451" fill="#33ff4f" stroke="none" /><path d="M 120.91429891909075 98.10471618934814 l 23.435702740812832 -2.1237770468780846 a44.531735845461725,44.531735845461725 0 0,0 0.0626105946310079,0.7640078413190379 l -23.468787819263333 1.7200552883512779" fill="#ff940d" stroke="none" /><line stroke="#e1ed5e" stroke-width="0.3" x1="184.98032266829074" x2="189.97916517819016" y1="98.17113171792111" y2="98.06355123074" /><path d="M 185.9800911702706 98.14961562048488 a86.0,86.0 0 0,1 -9.607161424134198,41.387399972396054" fill="none" id="id100" stroke="none" /><text fill="#e1ed5e" style="font-size:6.75px; font-family:Arial;" text-anchor="middle"><textPath startOffset="21.466115282336823" xlink:href="#id100">April</textPath></text><path d="M 120.13307415673323 105.97154293290107 l 22.459535471905284 6.661579810385942 a44.42663823906267,44.42663823906267 0 0,0 -0.2237689958689581,0.7312900256872066 l -22.34153970353019 -7.047196808625206" fill="#ff920d" stroke="none" /><path d="M 120.02730092923936 106.31721596034902 l 33.599600378042766 10.598329376457931 a56.23148777920204,56.23148777920204 0 0,0 -0.2991187105629561,0.920592731160706 l -33.41218941646356 -11.175121007596433" fill="#b0ff20" stroke="none" /><path d="M 119.9155931802556 106.66101706037122 l 24.972946938308162 8.352511727781792 a47.33272737386478,47.33272737386478 0 0,0 -0.26508393979194433,0.7704580120771084 l -24.82547216757299 -8.7811424429482" fill="#ffc312" stroke="none" /><path d="M 119.79798401119884 107.00284435728193 l 44.01190532447814 15.567672076126954 a67.68404678432077,67.68404678432077 0 0,0 -0.39796846165956257,1.0950382858339556 l -43.737412601813354 -16.32295815896704" fill="#33ff4f" stroke="none" /><path d="M 119.67450827220406 107.3425965602758 l 43.78916130703532 16.342270960065015 a67.73928185269585,67.73928185269585 0 0,0 -0.41709888760863484,1.088913578719877 l -43.50136813983318 -17.093608105618035" fill="#33ff50" stroke="none" /><path d="M 119.54520255179757 107.68017299344265 l 43.559114506448054 17.116299202534 a67.80132642325984,67.80132642325984 0 0,0 -0.436180092841123,1.0825632195626083 l -43.25803179934954 -17.86356178993942" fill="#33ff51" stroke="none" /><path d="M 119.26925614724726 108.34839909993367 l 42.83229182253611 18.557076815362144 a67.67944218499343,67.67944218499343 0 0,0 -0.4723345539345318,1.0649897264418118 l -42.5065161838703 -19.291614878296645" fill="#33ff4f" stroke="none" /><path d="M 119.12269723197855 108.67885076344098 l 42.78030397210763 19.41587367537631 a67.98010811528746,67.98010811528746 0 0,0 -0.49277609548187257,1.0613958702484894 l -42.43975325978593 -20.149389612903633" fill="#33ff53" stroke="none" /><path d="M 118.81262510543309 109.33194174019688 l 41.762746594552155 20.71627515813372 a67.61856990029065,67.61856990029065 0 0,0 -0.526205554297888,1.038253479763604 l -41.399962370467996 -21.432082849600018" fill="#33ff4e" stroke="none" /><path d="M 118.64920377521936 109.65438752849418 l 41.75638579374949 21.616597421592868 a68.01992172094356,68.01992172094356 0 0,0 -0.5472283412139299,1.035149793191908 l -41.378104944310664 -22.33216222987091" fill="#33ff54" stroke="none" /><line stroke="#e1ed5e" stroke-width="0.3" x1="174.80103733775053" x2="179.2010983576182" y1="140.37084112569926" y2="142.7455964860345" /><path d="M 175.68104954172406 140.8457921977663 a86.0,86.0 0 0,1 -30.038265399797805,32.042727171017184" fill="none" id="id101" stroke="none" /><text fill="#e1ed5e" style="font-size:6.75px; font-family:Arial;" text-anchor="middle"><textPath startOffset="22.206326154141568" xlink:href="#id101">May</textPath></text><path d="M 118.48025628344425 109.97397251340804 l 20.808363498792296 11.230474426476793 a44.645539692331425,44.645539692331425 0 0,0 -0.3708207302434092,0.673147337553958 l -20.61196635909738 -11.586992282428556" fill="#ff960d" stroke="none" /><path d="M 118.30583269289576 110.29060199501025 l 40.60415715304385 22.82557847078876 a67.58008813468709,67.58008813468709 0 0,0 -0.5787687595652253,1.0091321168658964 l -40.20523639732624 -23.52113043351297" fill="#32ff4d" stroke="none" /><path d="M 118.12598468904814 110.60418214915192 l 40.50288372604514 23.695262021070292 a67.92492975351917,67.92492975351917 0 0,0 -0.5990950479622025,1.0041177602674265 l -40.08900780238471 -24.388941875223825" fill="#33ff53" stroke="none" /><path d="M 117.75023020441432 111.22182372390056 l 39.523238970412145 24.986877106149386 a67.75928192594618,67.75928192594618 0 0,0 -0.6317589458173142,0.9805039134346542 l -39.087275161217775 -25.663502619505493" fill="#33ff50" stroke="none" /><path d="M 117.55443506779139 111.5257021239791 l 39.130077976274166 25.691605631337122 a67.81048602979304,67.81048602979304 0 0,0 -0.6490331958370517,0.9702165657959828 l -38.68204167502639 -26.36135911133891" fill="#33ff51" stroke="none" /><path d="M 117.35343817320211 111.8261652097733 l 38.5418202935474 26.265799879401005 a67.64079925178002,67.64079925178002 0 0,0 -0.6639720474566663,0.9565012557366566 l -38.0839873389286 -26.92534239732468" fill="#33ff4e" stroke="none" /><path d="M 117.14729908036423 112.12312394758627 l 38.219293455776864 27.02100369172039 a67.80650630806315,67.80650630806315 0 0,0 -0.6820049686035284,0.947245251550077 l -37.74850869479773 -27.6748825487216" fill="#33ff51" stroke="none" /><path d="M 116.93607887273984 112.41649034213515 l 36.763854961009535 26.952995052342068 a66.58557857355461,66.58557857355461 0 0,0 -0.6856371984342795,0.9185230725323471 l -36.29445649588016 -27.58183100438373" fill="#31ff3e" stroke="none" /><path d="M 116.71984013943494 112.70617746262583 l 37.11398103256551 28.204625487540326 a67.61489554829059,67.61489554829059 0 0,0 -0.7121882833235358,0.920599360142388 l -36.62298593202391 -28.839302841795966" fill="#33ff4e" stroke="none" /><path d="M 116.498646956653 112.99209946851258 l 18.252458015441526 14.37316349058801 a44.23230622070542,44.23230622070542 0 0,0 -0.4761967688098168,0.5941286876906958 l -18.002343334576853 -14.685220011856956" fill="#ff8f0d" stroke="none" /><path d="M 116.27256486870786 113.27417163493432 l 36.197671121371364 29.52786503705874 a67.71366190160774,67.71366190160774 0 0,0 -0.7445407330922571,0.8968472760731595 l -35.68403438838556 -30.14657357024567" fill="#33ff4f" stroke="none" /><path d="M 116.0416608686014 113.55231037782055 l 35.683789177090134 30.146366410924013 a67.71334089761406,67.71334089761406 0 0,0 -0.7598645706909563,0.8838941634437291 l -35.159582096828395 -30.75613767352927" fill="#33ff4f" stroke="none" /><path d="M 115.80600337817218 113.82643327865902 l 35.14091614287686 30.739809474634292 a67.68854114124278,67.68854114124278 0 0,0 -0.7746829449291461,0.8703645009854094 l -34.606574348299375 -31.34014814536057" fill="#33ff4f" stroke="none" /><path d="M 115.56566222782051 114.09645910891815 l 34.50938370791635 31.252131081397806 a67.55741896872155,67.55741896872155 0 0,0 -0.7880205925202995,0.8552407172235774 l -33.96631670740033 -31.841523053422716" fill="#32ff4d" stroke="none" /><path d="M 115.32070863581623 114.36230785411682 l 34.18460944692615 32.04616029324719 a67.85663146854846,67.85663146854846 0 0,0 -0.8061802379473731,0.8452767564217035 l -33.62792265759982 -32.6298441662514" fill="#33ff52" stroke="none" /><path d="M 115.07121518719521 114.62390073753431 l 34.12138294994941 33.108658531490256 a68.54421146861014,68.54421146861014 0 0,0 -0.8289259571728296,0.8396976182333098 l -33.54641636772104 -33.69109664370423" fill="#34ff5c" stroke="none" /><path d="M 114.81725581225074 114.88116024355365 l 16.65577341032262 16.72760707110189 a44.605669366090595,44.605669366090595 0 0,0 -0.5487560383351944,0.5370732813469424 l -16.365367419611633 -17.011830455371403" fill="#ff950d" stroke="none" /><path d="M 114.55890576462653 115.13401014063108 l 32.418037801147435 33.69861174690503 a67.76029949161222,67.76029949161222 0 0,0 -0.8475334536853955,0.8013957808304486 l -31.833168513071232 -34.251642164481396" fill="#33ff50" stroke="none" /><path d="M 114.0293411484842 115.62618273729858 l 31.279329627672002 34.83959193016059 a67.82086743981438,67.82086743981438 0 0,0 -0.8753983215271572,0.772437237930137 l -30.67498895323826 -35.37285230986301" fill="#33ff51" stroke="none" /><path d="M 113.75828350139079 115.86535959552629 l 30.80479694207847 35.52254034479222 a68.01900027850526,68.01900027850526 0 0,0 -0.8911607250158207,0.7594665031775272 l -30.188770740485605 -36.04753123819269" fill="#33ff54" stroke="none" /><path d="M 113.48314897796784 116.09983520530334 l 29.98082163978635 35.79922527807761 a67.69511962408097,67.69511962408097 0 0,0 -0.8997966685153086,0.740471400342791 l -29.36015484272635 -36.309991797277576" fill="#33ff4f" stroke="none" /><path d="M 113.20401910651253 116.32954008644616 l 29.852064081914868 36.91834078370552 a68.47746429804951,68.47746429804951 0 0,0 -0.9229539612989528,0.7332504464550531 l -29.212152627898565 -37.4267251441657" fill="#34ff5b" stroke="none" /><path d="M 112.92097659922987 116.55440617244103 l 28.73137578336404 36.810751955018105 a67.69607493032736,67.69607493032736 0 0,0 -0.9247647186315586,0.7090701522561136 l -28.09348233623899 -37.29986144910159" fill="#33ff4f" stroke="none" /><path d="M 112.63410532772338 116.77436683061366 l 14.32926715403345 19.0250419337713 a44.81764299323966,44.81764299323966 0 0,0 -0.6202228878214556,0.45882606497520595 l -13.99965929579343 -19.268877947486274" fill="#ff990e" stroke="none" /><path d="M 112.34349029814194 116.9893568818739 l 27.67682893140605 38.093886957160784 a68.08663380624336,68.08663380624336 0 0,0 -0.9540969365684621,0.6807228313967694 l -27.017004666988704 -38.56465405040178" fill="#33ff55" stroke="none" /><path d="M 112.04921762599082 117.19931262002967 l 27.081024279004463 38.656037022728285 a68.19821049894338,68.19821049894338 0 0,0 -0.9672555941976041,0.6652872175965091 l -26.411611800183977 -39.11646502968989" fill="#33ff57" stroke="none" /><path d="M 111.7513745106137 117.40417183066458 l 26.346524257018714 39.020068239317766 a68.0818974323114,68.0818974323114 0 0,0 -0.9768951549593378,0.6474328402424034 l -25.670954403319413 -39.46779910065148" fill="#33ff55" stroke="none" /><path d="M 111.45004920935366 117.60387380957326 l 25.627619480774534 39.40117384043824 a68.00241887664728,68.00241887664728 0 0,0 -0.9867416445972267,0.6297852036470166 l -24.94559603413038 -39.83647347290906" fill="#33ff54" stroke="none" /><path d="M 111.1453310114006 117.79835938074945 l 12.698050937712841 20.27795081126751 a44.925630330692115,44.925630330692115 0 0,0 -0.6589537427621487,0.40478320921770344 l -12.347117995018383 -20.49352248731359" fill="#ff9b0e" stroke="none" /><line stroke="#e1ed5e" stroke-width="0.3" x1="143.8653032363475" x2="146.44561519142675" y1="172.8068346515853" y2="177.08958963109032" /><path d="M 144.38136562736335 173.6633856474863 a86.0,86.0 0 0,1 -40.68145358897372,12.25698825130547" fill="none" id="id102" stroke="none" /><text fill="#e1ed5e" style="font-size:6.75px; font-family:Arial;" text-anchor="middle"><textPath startOffset="21.466115282336833" xlink:href="#id102">June</textPath></text><path d="M 110.8373102113329 117.98757091392108 l 24.247039959923384 40.24479711540501 a67.98470646580898,67.98470646580898 0 0,0 -1.0075726157554403,0.5952916612915864 l -23.550699473139563 -40.65620734899034" fill="#33ff54" stroke="none" /><path d="M 110.5260780823613 118.17145234162733 l 23.673895609297226 40.868884159797304 a68.23048830773226,68.23048830773226 0 0,0 -1.0213494349097307,0.5799488647246108 l -22.9668974074663 -41.27033619031654" fill="#34ff57" stroke="none" /><path d="M 110.21172684928248 118.3499491758327 l 22.954705755500182 41.24842841729739 a68.20541667243813,68.20541667243813 0 0,0 -1.030802064705981,0.5620754740850203 l -22.24128087892555 -41.63744454314218" fill="#33ff57" stroke="none" /><path d="M 109.89434966115114 118.52300852407294 l 11.057104286755564 20.699777546704194 a44.46785771414228,44.46785771414228 0 0,0 -0.6782599700474822,0.35483355978297526 l -10.699153414181586 -20.88704052543189" fill="#ff930d" stroke="none" /><path d="M 109.57404056367764 118.69057910512821 l 28.722121691032903 56.07173731538463 a84.0,84.0 0 0,0 -1.292584369268958,0.6481286363627916 l -27.752683414081186 -56.55783379265672" fill="#4dd2ff" stroke="none" /><line stroke="#e1ed5e" stroke-width="0.3" x1="102.19456741930631" x2="102.32365962044197" y1="184.97166512339345" y2="189.96999836594603" /><path d="M 102.22038585953345 185.97133177190398 a86.0,86.0 0 0,1 -42.740103519485714,-10.115201625700543" fill="none" id="id103" stroke="none" /><text fill="#e1ed5e" style="font-size:6.75px; font-family:Arial;" text-anchor="middle"><textPath startOffset="22.20632615414155" xlink:href="#id103">July</textPath></text><line stroke="#e1ed5e" stroke-width="0.3" x1="58.666819895761336" x2="56.23545636021788" y1="174.27360380694188" y2="178.64263932499728" /><path d="M 58.180547188652646 175.14741091055294 a86.0,86.0 0 0,1 -31.652253787137756,-30.449443065178592" fill="none" id="id104" stroke="none" /><text fill="#e1ed5e" style="font-size:6.75px; font-family:Arial;" text-anchor="middle"><textPath startOffset="22.20632615414155" xlink:href="#id104">August</textPath></text><line stroke="#e1ed5e" stroke-width="0.3" x1="26.63291911575756" x2="22.317208475507996" y1="142.92168965132927" y2="145.44649492493687" /><path d="M 25.769776987707644 143.4266507060508 a86.0,86.0 0 0,1 -11.730757126820373,-40.83630448921669" fill="none" id="id105" stroke="none" /><text fill="#e1ed5e" style="font-size:6.75px; font-family:Arial;" text-anchor="middle"><textPath startOffset="21.46611528233685" xlink:href="#id105">September</textPath></text><line stroke="#e1ed5e" stroke-width="0.3" x1="15.007084014347285" x2="10.007500721073583" y1="101.09737516637583" y2="101.16192664675087" /><path d="M 14.007167355692545 101.11028546245083 a86.0,86.0 0 0,1 10.666146001902534,-42.60595125391555" fill="none" id="id106" stroke="none" /><text fill="#e1ed5e" style="font-size:6.75px; font-family:Arial;" text-anchor="middle"><textPath startOffset="22.20632615414155" xlink:href="#id106">October</textPath></text><line stroke="#e1ed5e" stroke-width="0.3" x1="26.266209847984243" x2="21.928928074336255" y1="57.711370442889674" y2="55.22380399835377" /><path d="M 25.398753493254645 57.213857153982495 a86.0,86.0 0 0,1 29.58750427330803,-30.492523968695096" fill="none" id="id107" stroke="none" /><text fill="#e1ed5e" style="font-size:6.75px; font-family:Arial;" text-anchor="middle"><textPath startOffset="21.46611528233685" xlink:href="#id107">November</textPath></text><line stroke="#e1ed5e" stroke-width="0.3" x1="56.762969772571076" x2="54.21961505331055" y1="26.818313649435495" y2="22.513508569990535" /><path d="M 56.25429882871897 25.957352633546506 a86.0,86.0 0 0,1 42.265352541879196,-11.944610805530505" fill="none" id="id108" stroke="none" /><text fill="#e1ed5e" style="font-size:6.75px; font-family:Arial;" text-anchor="middle"><textPath startOffset="22.20632615414155" xlink:href="#id108">December</textPath></text></svg>