<?xml version="1.0" encoding="utf-8" ?>
<svg baseProfile="full" height="200mm" version="1.1" viewBox="0,0,200,200" width="200mm" xmlns="http://www.w3.org/2000/svg" xmlns:ev="http://www.w3.org/2001/xml-events" xmlns:xlink="http://www.w3.org/1999/xlink"><defs /><rect fill="#1a1a1a" height="200" width="200" x="0" y="0" /><text alignment-baseline="middle" fill="#e1ed5e" style="dominant-baseline: central; font-size:9.0px; font-family:Arial;" text-anchor="middle" x="100.0" y="100.0">2022</text><line stroke="#e1ed5e" stroke-width="0.3" x1="100.0" x2="100.0" y1="15.0" y2="10.0" /><path d="M 100.0 14.0 a86.0,86.0 0 0,1 42.46469731375804,11.215312516191453" fill="none" id="id97" stroke="none" /><text fill="#e1ed5e" style="font-size:6.75px; font-family:Arial;" text-anchor="middle"><textPath startOffset="22.20632615414155" xlink:href="#id97">January</textPath></text><path d="M 100.0 79.0 l 0.0 -28.525366190985096 a49.525366190985096,49.525366190985096 0 0,0 0.8524977669935603,0.0073377174236639656 l -0.49101728772103187 28.52113985016999" fill="#ffd413" stroke="none" /><path d="M 100.36148047927253 79.00311137660856 l 0.7379429737570724 -42.86401982639251 a63.870371534544546,63.870371534544546 0 0,0 1.0990976701329664,0.028386450165553342 l -1.4756672790849068 42.844966584084595" fill="#4fff2b" stroke="none" /><path d="M 100.72285384407766 79.0124445844662 l 1.4771668815778067 -42.88850649284882 a63.913937260325646,63.913937260325646 0 0,0 1.0991954466504619,0.047333668151811545 l -2.2152031606176004 42.85672509817282" fill="#4fff2b" stroke="none" /><path d="M 101.44485096284872 79.0497635885617 l 1.9649890049127756 -28.492201104004057 a49.55987929842208,49.55987929842208 0 0,0 0.8505650815795014,0.06602022044498583 l -2.4551442758546185 28.454155621370607" fill="#ffd413" stroke="none" /><path d="M 102.16513564639614 79.11191278185805 l 4.412191350253641 -42.566495960949865 a63.79455585591249,63.79455585591249 0 0,0 1.0912918380120193,0.12261935337573365 l -5.144249891775385 42.48424065410353" fill="#50ff2b" stroke="none" /><path d="M 102.52436894288641 79.15227682838746 l 5.1582604352621155 -42.599947961039895 a63.91110831709311,63.91110831709311 0 0,0 1.0910090960198846,0.14164429283409535 l -5.890784259789846 42.50484534504166" fill="#4fff2b" stroke="none" /><path d="M 102.88285421437855 79.19881850522331 l 3.9487819807723294 -28.49236366364619 a49.764694788457916,49.764694788457916 0 0,0 0.8474951683739507,0.12489875759036259 l -4.438646129574936 28.42017042189486" fill="#ffd814" stroke="none" /><path d="M 103.2404852339499 79.25152402106235 l 4.404509413668881 -28.201596727265414 a49.54347142767335,49.54347142767335 0 0,0 0.8414623468925815,0.1388484971648812 l -4.889300966700338 28.121601967160906" fill="#ffd413" stroke="none" /><path d="M 103.95276090670814 79.375362276772 l 5.379565989136527 -28.069393078100557 a49.58024768969636,49.58024768969636 0 0,0 0.8368050099127783,0.1678552127356925 l -5.861937408516431 27.97263390928766" fill="#ffd513" stroke="none" /><path d="M 105.36241919743992 79.69619591428918 l 10.95937109379527 -41.49562266546661 a63.91846356949771,63.91846356949771 0 0,0 1.0613572935362472,0.29010904132749327 l -11.672026276555227 41.300827083312825" fill="#4fff2b" stroke="none" /><path d="M 105.71112130821622 79.79150937346287 l 7.798020191804764 -27.592868273507836 a49.67360281637015,49.67360281637015 0 0,0 0.8208202903905506,0.23961995113937584 l -8.271830699918743 27.454549993449756" fill="#ffd614" stroke="none" /><path d="M 106.40334571778207 80.00007090966166 l 13.052763841480578 -40.76842993774283 a63.80700320613566,63.80700320613566 0 0,0 1.0431447743761675,0.3439084313848319 l -13.752591438099163 40.537707782098764" fill="#50ff2b" stroke="none" /><path d="M 107.08798089147638 80.2323363322302 l 9.620516610408638 -26.83065030458037 a49.5033004337713,49.5033004337713 0 0,0 0.7996378304631099,0.29451336138081596 l -10.080936766644323 26.66107367539323" fill="#ffd313" stroke="none" /><path d="M 107.76421540070413 80.48803036053334 l 10.557824016980984 -26.53248667720919 a49.55591877789653,49.55591877789653 0 0,0 0.7898650177299854,0.3222057730615483 l -11.012972904299357 26.346820017964063" fill="#ffd413" stroke="none" /><path d="M 108.09893153111575 80.62456947434976 l 11.066432878572769 -26.474714668444562 a49.69453699629095,49.69453699629095 0 0,0 0.7863953234741696,0.3366934372144205 l -11.520511959837254 26.28030170326735" fill="#ffd714" stroke="none" /><path d="M 109.41281617654863 81.2277094730956 l 12.353259268853606 -24.63651340890462 a48.56013076004275,48.56013076004275 0 0,0 0.743986323493449,0.3810986914789243 l -12.77550607993581 24.420222192113197" fill="#ffc312" stroke="none" /><path d="M 109.73455568895987 81.39251694778311 l 19.803332667728295 -37.8538259748289 a63.72100333186647,63.72100333186647 0 0,0 0.9675122644072197,0.5168115445747364 l -20.451989978663825 37.50733570375241" fill="#51ff2b" stroke="none" /><path d="M 110.05341064243156 81.56283822128135 l 13.721606742807033 -25.164343960379743 a49.66228704343999,49.66228704343999 0 0,0 0.7470057218386988,0.41570787543730126 l -14.152736553717768 24.92442068738226" fill="#ffd614" stroke="none" /><path d="M 110.36928655335952 81.73862282372117 l 21.095145668778994 -37.15071520723953 a63.722134909159486,63.722134909159486 0 0,0 0.9491662863747742,0.5498183775128616 l -21.731508687619094 36.78209267233662" fill="#51ff2b" stroke="none" /><line stroke="#e1ed5e" stroke-width="0.3" x1="143.23703022742887" x2="145.7803849466894" y1="26.81831364943548" y2="22.513508569990506" /><path d="M 143.74570117128098 25.957352633546492 a86.0,86.0 0 0,1 28.547481713284135,27.462654790039103" fill="none" id="id98" stroke="none" /><text fill="#e1ed5e" style="font-size:6.75px; font-family:Arial;" text-anchor="middle"><textPath startOffset="19.985693538727396" xlink:href="#id98">February</textPath></text><path d="M 110.68208982089419 81.91981866633111 l 14.511751745564341 -24.562150986203363 a49.52876092286415,49.52876092286415 0 0,0 0.7302849140455367,0.4399884894987612 l -14.932398725827516 24.308715887245988" fill="#ffd413" stroke="none" /><path d="M 111.2981086023043 82.29822771554956 l 23.031302294611017 -36.085231872385634 a63.80870057207519,63.80870057207519 0 0,0 0.9207685864379166,0.598893501463741 l -23.649037906833215 35.683439446762364" fill="#50ff2b" stroke="none" /><path d="M 111.60114157652 82.49532879139004 l 15.870316667804929 -23.946322300618 a49.727918526434905,49.727918526434905 0 0,0 0.7094405213073264,0.47901740686095484 l -16.280161883518797 23.669592981458372" fill="#ffd714" stroke="none" /><path d="M 111.90073688211348 82.69761687909136 l 16.223409768237996 -23.587081549499377 a49.627773936003024,49.627773936003024 0 0,0 0.699678022582505,0.49016916829580603 l -16.62701893040415 23.304327538439637" fill="#ffd614" stroke="none" /><path d="M 112.19680574252982 82.90503203632743 l 33.22709182435837 -46.5708876778091 a78.20915320299238,78.20915320299238 0 0,0 1.089173007534248,0.7913305103291298 l -34.023810148246405 45.99203793266329" fill="#43ffe2" stroke="none" /><path d="M 113.06298171725822 83.55741782278167 l 17.929235402804306 -22.567812836775357 a49.822971019048225,49.822971019048225 0 0,0 0.6669079917559194,0.539259882324554 l -18.315046793124715 22.255846857186672" fill="#ffd914" stroke="none" /><path d="M 113.6212207817346 84.01681056812373 l 18.549003130481477 -21.765466954658436 a49.59722134909159,49.59722134909159 0 0,0 0.6450147009679055,0.5593503925989585 l -18.920911630096146 21.442951568639803" fill="#ffd513" stroke="none" /><path d="M 113.89432698308785 84.25364557470407 l 37.70219244272582 -42.72766039956391 a77.98340353303577,77.98340353303577 0 0,0 0.9988894619168892,0.896812821560572 l -38.43209289223869 42.07234856923404" fill="#43ffdf" stroke="none" /><path d="M 114.16331599549186 84.49514656593476 l 19.25821242203746 -21.08233418648765 a49.554221411957,49.554221411957 0 0,0 0.6248365311700386,0.5807174585773558 l -19.618256837002342 20.747712141835652" fill="#ffd413" stroke="none" /><path d="M 114.42810811169701 84.74124197986012 l 19.77724603899834 -20.915854613619967 a49.7856289683787,49.7856289683787 0 0,0 0.6176185987408404,0.5941486026501139 l -20.134347881351598 20.57232292420755" fill="#ffd814" stroke="none" /><path d="M 114.94478906791727 85.2469230424477 l 20.386029614329303 -20.12451714054566 a49.64587917269127,49.64587917269127 0 0,0 0.5951258070306628,0.6133294571804278 l -20.729419685063075 19.770623487815115" fill="#ffd614" stroke="none" /><path d="M 115.4437574822437 85.77008943001954 l 20.970550252295034 -19.32230903240565 a49.51518199534796,49.51518199534796 0 0,0 0.5721511332012169,0.631783571594976 l -21.300045026112286 18.958472673541124" fill="#ffd413" stroke="none" /><path d="M 115.9244219780498 86.31012108654704 l 43.236159294182926 -37.16918493091924 a78.01678506317973,78.01678506317973 0 0,0 0.8666899011950778,1.025887474947937 l -43.86955980886512 36.419438506342196" fill="#43ffdf" stroke="none" /><path d="M 116.15771136456269 86.58626213691792 l 22.017927203572157 -18.2787461128245 a49.61645816307286,49.61645816307286 0 0,0 0.5398778813376154,0.6618264466406704 l -22.32930357698618 17.89703549657573" fill="#ffd513" stroke="none" /><path d="M 116.60985879189232 87.15038557335679 l 22.66001876405517 -17.53010110842951 a49.64927390457032,49.64927390457032 0 0,0 0.5171186073015523,0.6804674712470409 l -22.958413311580838 17.137448861301433" fill="#ffd614" stroke="none" /><path d="M 117.04232023915458 87.72973835380427 l 23.355152330903675 -16.81542336169376 a49.778839504620606,49.778839504620606 0 0,0 0.4946769335915359,0.6996854412381358 l -23.641141884299092 16.41091142012383" fill="#ffd814" stroke="none" /><path d="M 117.45458315368197 88.32363383020206 l 47.53457862686256 -31.798590713248675 a78.18991638901113,78.18991638901113 0 0,0 0.738721071079159,1.125122871993104 l -48.07489633329965 30.975649777277898" fill="#43ffe1" stroke="none" /><line stroke="#e1ed5e" stroke-width="0.3" x1="172.23445277983987" x2="176.4835382374775" y1="55.19839476539836" y2="52.563006222186495" /><path d="M 173.08426987136738 54.67131705675599 a86.0,86.0 0 0,1 12.851231095245387,41.99856678651699" fill="none" id="id99" stroke="none" /><text fill="#e1ed5e" style="font-size:6.75px; font-family:Arial;" text-anchor="middle"><textPath startOffset="22.20632615414155" xlink:href="#id99">March</textPath></text><path d="M 118.03404312379186 89.2402003453031 l 48.98679633720517 -29.227395692449765 a78.04337712956561,78.04337712956561 0 0,0 0.678383974603139,1.15957811399303 l -49.48263998627864 28.37983816610284" fill="#43ffdf" stroke="none" /><path d="M 118.3937258080291 89.86733742301442 l 24.983149354556513 -13.76261803411547 a49.52310303639907,49.52310303639907 0 0,0 0.4048912234723416,0.7502019447745047 l -25.21634867724732 13.330535106008506" fill="#ffd413" stroke="none" /><path d="M 118.56541770881063 90.18545643968196 l 55.696253126431905 -29.44363068095414 a84.0,84.0 0 0,0 0.6647622673595346,1.2841091109586207 l -56.19482482695156 28.480548847735175" fill="#4dd2ff" stroke="none" /><path d="M 118.73160827565052 90.50648371742162 l 51.005273203717024 -25.850390662199064 a78.18199534796003,78.18199534796003 0 0,0 0.5980549866653811,1.2056423593074554 l -51.44268820333581 24.96858871439266" fill="#43ffe1" stroke="none" /><path d="M 118.89224826269711 90.83032412892265 l 25.76664518462455 -12.506282012743997 a49.6413528635192,49.6413528635192 0 0,0 0.3664992860999393,0.7719409654974464 l -25.978102664566247 12.06089863160601" fill="#ffd614" stroke="none" /><path d="M 119.196687751892 91.48605970444005 l 52.04047252083867 -23.080516895498278 a77.92908782297101,77.92908782297101 0 0,0 0.5332920901736455,1.2309116710697734 l -52.430055320855 22.181306079841903" fill="#43ffde" stroke="none" /><path d="M 119.47837535516314 92.15188598940014 l 53.21081619308867 -21.439393402475847 a78.36757402401457,78.36757402401457 0 0,0 0.4933666079094301,1.2555642030610943 l -53.571976350879794 20.520280194518968" fill="#44ffe4" stroke="none" /><path d="M 119.61058180528143 92.48833698450437 l 53.504346974655256 -20.4943753494108 a78.29515307726159,78.29515307726159 0 0,0 0.47124514721565336,1.2627027061911953 l -53.84919671037253 19.57034950619027" fill="#43ffe3" stroke="none" /><path d="M 119.7369772167798 92.82701384747503 l 53.6683983488146 -19.504642172711073 a78.10278493744893,78.10278493744893 0 0,0 0.4483357192563562,1.2675054518749644 l -53.99618714888076 18.57793909440949" fill="#43ffe0" stroke="none" /><path d="M 119.85752413597 93.16781622104841 l 27.10884016837869 -9.327073042761318 a49.66851071855158,49.66851071855158 0 0,0 0.27119646920547474,0.8108429243862298 l -27.265373931355935 8.859057015452775" fill="#ffd614" stroke="none" /><path d="M 120.08093135843002 93.85539295169968 l 55.14848564851539 -16.87500283579725 a78.6725341044823,78.6725341044823 0 0,0 0.3850986935818697,1.2983613519426176 l -55.43079023920896 15.923212097108102" fill="#44ffe8" stroke="none" /><path d="M 120.28053869075195 94.5502522615342 l 55.9720574553312 -15.040704696545662 a78.95769158232225,78.95769158232225 0 0,0 0.34141181060610404,1.3155989769079048 l -56.22266559780761 14.075009294088906" fill="#45ffec" stroke="none" /><path d="M 120.37134235888165 94.90015583598534 l 55.97403602533079 -14.012766362235938 a78.7013893254542,78.7013893254542 0 0,0 0.3176807804143709,1.3169919284708274 l -56.206949606005985 13.047189202105704" fill="#44ffe8" stroke="none" /><path d="M 120.45610955862082 95.25157060432595 l 56.21080755085264 -13.048084737919309 a78.70534984597975,78.70534984597975 0 0,0 0.2949787050403297,1.3223316951842403 l -56.427080642895014 12.078574873185106" fill="#44ffe8" stroke="none" /><path d="M 120.6074358757038 95.95851677861258 l 55.82324132287032 -10.947926492680969 a77.88665367448293,77.88665367448293 0 0,0 0.24669401839246333,1.3178493106488012 l -56.00342106517264 9.985399104569604" fill="#43ffdd" stroke="none" /><path d="M 120.67395015179393 96.31383870115 l 56.93863096301263 -10.152146847812087 a78.83661281196956,78.83661281196956 0 0,0 0.22670458532217988,1.3380232955822688 l -57.10494740985503 9.17053776391398" fill="#44ffea" stroke="none" /><path d="M 120.73433829027371 96.67025291283417 l 57.1334375961918 -9.175113030008301 a78.86546803294146,78.86546803294146 0 0,0 0.20371365961611262,1.342218489361293 l -57.28290714924721 8.190295428254926" fill="#44ffea" stroke="none" /><path d="M 120.78858239683441 97.02765380044208 l 57.10591789822387 -8.164989550364862 a78.686678820645,78.686678820645 0 0,0 0.18017001612131595,1.3424758926326643 l -57.23800391340302 7.180795315667532" fill="#44ffe8" stroke="none" /><path d="M 120.87857604477298 97.74499172005257 l 57.39419282860824 -6.198908382059548 a78.72798139184007,78.72798139184007 0 0,0 0.1339233230739306,1.3485895868995614 l -57.4923932773644 5.210043264455551" fill="#44ffe9" stroke="none" /><path d="M 120.91429891909075 98.10471618934814 l 28.953275414048818 -2.6237874083123716 a50.071918023511664,50.071918023511664 0 0,0 0.07039996313295839,0.8590578667897495 l -28.994149861001272 2.1250156243148535" fill="#ffdd14" stroke="none" /><line stroke="#e1ed5e" stroke-width="0.3" x1="184.98032266829074" x2="189.97916517819016" y1="98.17113171792111" y2="98.06355123074" /><path d="M 185.9800911702706 98.14961562048488 a86.0,86.0 0 0,1 -9.607161424134198,41.387399972396054" fill="none" id="id100" stroke="none" /><text fill="#e1ed5e" style="font-size:6.75px; font-family:Arial;" text-anchor="middle"><textPath startOffset="21.466115282336823" xlink:href="#id100">April</textPath></text><path d="M 120.13307415673323 105.97154293290107 l 27.856035265109107 8.262201253074618 a50.055510152762935,50.055510152762935 0 0,0 -0.25212061250998946,0.8239447492836574 l -27.709687880092986 -8.740472974910332" fill="#ffdd14" stroke="none" /><path d="M 120.02730092923936 106.31721596034902 l 41.63143997329466 13.131814315909308 a64.65342302131137,64.65342302131137 0 0,0 -0.34391849284785947,1.0584722835679898 l -41.39922922943056 -13.846485499455094" fill="#45ff2d" stroke="none" /><path d="M 119.9155931802556 106.66101706037122 l 27.44244935143537 9.178467427699193 a49.936694536996285,49.936694536996285 0 0,0 -0.27966729285418285,0.8128440623922257 l -27.28039122763796 -9.649484193180719" fill="#ffdb14" stroke="none" /><path d="M 119.79798401119884 107.00284435728193 l 54.63492554890651 19.325193912383114 a78.95203369585718,78.95203369585718 0 0,0 -0.4642219383683907,1.2773393990006499 l -54.29417934953289 -20.26278110838989" fill="#45ffec" stroke="none" /><path d="M 119.67450827220406 107.3425965602758 l 54.16855114109332 20.215896213560516 a78.81794178663482,78.81794178663482 0 0,0 -0.48531479731799343,1.2670037932326232 l -53.81254206418181 -21.145323573626282" fill="#44ffea" stroke="none" /><path d="M 119.54520255179757 107.68017299344265 l 54.035817510264714 21.233058353890662 a79.05783617275412,79.05783617275412 0 0,0 -0.508595570924116,1.2622924974144638 l -53.66231932508321 -22.16005021914794" fill="#45ffed" stroke="none" /><path d="M 119.26925614724726 108.34839909993367 l 52.96713554022676 22.947994634098187 a78.72458665996103,78.72458665996103 0 0,0 -0.549418572660133,1.238793839081414 l -52.564275882835354 -23.85633680967229" fill="#44ffe9" stroke="none" /><path d="M 119.12269723197855 108.67885076344098 l 52.759540382316786 23.944957752096844 a78.93902055698749,78.93902055698749 0 0,0 -0.5722153643131357,1.2325009880619078 l -52.33955040116382 -24.84957880743758" fill="#45ffeb" stroke="none" /><path d="M 118.81262510543309 109.33194174019688 l 51.64606153045213 25.618861515164777 a78.65103413591501,78.65103413591501 0 0,0 -0.6120598391036568,1.207652128683496 l -51.1974230215622 -26.504067855550968" fill="#44ffe8" stroke="none" /><path d="M 118.64920377521936 109.65438752849418 l 51.880758762367186 26.85781958314848 a79.42050669516564,79.42050669516564 0 0,0 -0.6389474000788725,1.2086476873345753 l -51.41075885406342 -27.746882285569193" fill="#45fff2" stroke="none" /><line stroke="#e1ed5e" stroke-width="0.3" x1="174.80103733775053" x2="179.2010983576182" y1="140.37084112569926" y2="142.7455964860345" /><path d="M 175.68104954172406 140.8457921977663 a86.0,86.0 0 0,1 -30.038265399797805,32.042727171017184" fill="none" id="id101" stroke="none" /><text fill="#e1ed5e" style="font-size:6.75px; font-family:Arial;" text-anchor="middle"><textPath startOffset="22.206326154141568" xlink:href="#id101">May</textPath></text><path d="M 118.48025628344425 109.97397251340804 l 25.870931480869068 13.962791182588498 a50.39837807254668,50.39837807254668 0 0,0 -0.41860314577304286,0.759886301081042 l -25.626751925644516 -14.406048002067346" fill="#ffe315" stroke="none" /><path d="M 118.30583269289576 110.29060199501025 l 50.51567435011959 28.397326030865006 a78.95033632991765,78.95033632991765 0 0,0 -0.6761457329539979,1.1789170778987352 l -50.01937662101321 -29.26266295462206" fill="#45ffec" stroke="none" /><path d="M 118.12598468904814 110.60418214915192 l 50.14879096535212 29.33837378101992 a79.10027032124222,79.10027032124222 0 0,0 -0.6976610857587615,1.1693201091223608 l -49.636349003895134 -30.197255984028388" fill="#45ffee" stroke="none" /><path d="M 117.75023020441432 111.22182372390056 l 48.933687459503446 30.936230601360197 a78.89262588797385,78.89262588797385 0 0,0 -0.7355615459180522,1.1416078539444217 l -48.39392105020834 -31.773960055226073" fill="#44ffeb" stroke="none" /><path d="M 117.55443506779139 111.5257021239791 l 48.482364036432124 31.832028999640055 a78.99842836487082,78.99842836487082 0 0,0 -0.7561161323225069,1.1302910266381239 l -47.927244798698894 -32.661856940483986" fill="#45ffec" stroke="none" /><path d="M 117.35343817320211 111.8261652097733 l 47.72386410541894 32.52325537604466 a78.7523103036399,78.7523103036399 0 0,0 -0.7730442764227754,1.1136279365535753 l -47.156958921834025 -33.33992457478525" fill="#44ffe9" stroke="none" /><path d="M 117.14729908036423 112.12312394758627 l 47.35515175622345 33.4800467179616 a78.99503363299175,78.99503363299175 0 0,0 -0.7945403526312741,1.1035470573417818 l -46.77183161121657 -34.29022738075451" fill="#45ffec" stroke="none" /><path d="M 116.93607887273984 112.41649034213515 l 46.74856045415609 34.27316640111082 a78.96617841201987,78.96617841201987 0 0,0 -0.8131212568449783,1.0893088019205586 l -46.151677930616025 -35.07278808254069" fill="#45ffec" stroke="none" /><path d="M 116.71984013943494 112.70617746262583 l 46.18276044513222 35.096409118515545 a79.00521782862891,79.00521782862891 0 0,0 -0.8321626470425826,1.0756823979562378 l -45.57179098087156 -35.886169510585034" fill="#45ffec" stroke="none" /><path d="M 116.498646956653 112.99209946851258 l 22.62831606863226 17.818996548081287 a49.80203683912743,49.80203683912743 0 0,0 -0.536159451071953,0.6689413534965934 l -22.31823870550545 -18.20586573515613" fill="#ffd814" stroke="none" /><path d="M 116.27256486870786 113.27417163493432 l 44.92232763762445 36.64491075093383 a78.97296787577795,78.97296787577795 0 0,0 -0.8683416277521823,1.0459734289030223 l -44.28489000997872 -37.41274543695062" fill="#45ffec" stroke="none" /><path d="M 116.0416608686014 113.55231037782055 l 44.24469545607757 37.378788287848145 a78.92034953165273,78.92034953165273 0 0,0 -0.8856272149726785,1.0301845308953712 l -43.59472573153411 -38.13484991790504" fill="#45ffeb" stroke="none" /><path d="M 115.80600337817218 113.82643327865902 l 43.478042736834055 38.03278049514366 a78.7653234425096,78.7653234425096 0 0,0 -0.9014546878092126,1.012793898009183 l -42.8169291993765 -38.77554856289372" fill="#44ffe9" stroke="none" /><path d="M 115.56566222782051 114.09645910891815 l 42.83957544928361 38.79605729108745 a78.79587602942101,78.79587602942101 0 0,0 -0.9191110889776412,0.9975135604405313 l -42.16541795231024 -39.527722106329314" fill="#44ffea" stroke="none" /><path d="M 115.32070863581623 114.36230785411682 l 42.384188904280606 39.732807643586455 a79.09574401207016,79.09574401207016 0 0,0 -0.939708092610381,0.9852801781985394 l -41.693974260291256 -40.456494938367506" fill="#45ffee" stroke="none" /><path d="M 115.07121518719521 114.62390073753431 l 42.350156634874985 41.09320178598686 a80.01005846482681,80.01005846482681 0 0,0 -0.9675859255713082,0.9801594341542612 l -41.636530084248136 -41.81610171412178" fill="#46fffa" stroke="none" /><path d="M 114.81725581225074 114.88116024355365 l 20.67594625083539 20.765118267810145 a50.30332557993336,50.30332557993336 0 0,0 -0.6188507885348434,0.6056757474065952 l -20.315445509924754 -21.11794411813931" fill="#ffe115" stroke="none" /><path d="M 114.55890576462653 115.13401014063108 l 40.13508620202929 41.720498188291906 a78.89149431068083,78.89149431068083 0 0,0 -0.9867604060370155,0.9330435543871102 l -39.410989961601466 -42.40517637942494" fill="#44ffeb" stroke="none" /><path d="M 114.0293411484842 115.62618273729858 l 38.78483044964833 43.199380614308346 a79.0555730181681,79.0555730181681 0 0,0 -1.0204103624726713,0.9003935038036601 l -38.03547773426907 -43.8605972598843" fill="#45ffed" stroke="none" /><path d="M 113.75828350139079 115.86535959552629 l 38.05586513584187 43.88410698456311 a79.08669139372603,79.08669139372603 0 0,0 -1.0361656736052833,0.8830428661806444 l -37.29483398565954 -44.532674240966706" fill="#45ffed" stroke="none" /><path d="M 113.48314897796784 116.09983520530334 l 37.148074009716375 44.35743243126185 a78.85811278053689,78.85811278053689 0 0,0 -1.0481740420780719,0.8625758773047832 l -36.37902983909361 -44.99030342742381" fill="#44ffea" stroke="none" /><path d="M 113.20401910651253 116.32954008644616 l 36.99411616322297 45.75098672434067 a79.83636135034891,79.83636135034891 0 0,0 -1.0760516137583962,0.8548804808059711 l -36.20110705674722 -46.38100111915177" fill="#46fff7" stroke="none" /><path d="M 112.92097659922987 116.55440617244103 l 35.70433833119689 45.74453906898319 a79.02898095178223,79.02898095178223 0 0,0 -1.0795782976905348,0.827774603088864 l -34.91163130501286 -46.352353013899425" fill="#45ffed" stroke="none" /><path d="M 112.63410532772338 116.77436683061366 l 17.868541030638195 23.724154120995255 a50.700509209781856,50.700509209781856 0 0,0 -0.7016347611330765,0.519052622568134 l -17.457521299086554 -24.02821669230316" fill="#ffe815" stroke="none" /><path d="M 112.34349029814194 116.9893568818739 l 34.267543951293064 47.16522795351108 a79.29942792481299,79.29942792481299 0 0,0 -1.1112216454994999,0.7928271392992973 l -33.450594977944675 -47.74809935465459" fill="#45fff0" stroke="none" /><path d="M 112.04921762599082 117.19931262002967 l 33.55447780510029 47.89638393839785 a79.48048029169549,79.48048029169549 0 0,0 -1.1272720886546719,0.7753480215923776 l -32.72504883182274 -48.466872749355325" fill="#45fff3" stroke="none" /><path d="M 111.7513745106137 117.40417183066458 l 32.00792887744847 47.40479453051756 a78.19896900735526,78.19896900735526 0 0,0 -1.1220632330650253,0.7436423266375002 l -31.187190945643483 -47.948734878246384" fill="#43ffe2" stroke="none" /><path d="M 111.45004920935366 117.60387380957326 l 31.200764543032186 47.969603600398024 a78.2238637078016,78.2238637078016 0 0,0 -1.1350587993318009,0.7244482291819201 l -30.370423941653453 -48.49956625840375" fill="#43ffe2" stroke="none" /><path d="M 111.1453310114006 117.79835938074945 l 15.405618250964887 24.601757438413543 a50.02722072043754,50.02722072043754 0 0,0 -0.7337821214986741,0.4507489110871008 l -14.979856929533904 -24.863294816329024" fill="#ffdc14" stroke="none" /><line stroke="#e1ed5e" stroke-width="0.3" x1="143.8653032363475" x2="146.44561519142675" y1="172.8068346515853" y2="177.08958963109032" /><path d="M 144.38136562736335 173.6633856474863 a86.0,86.0 0 0,1 -40.68145358897372,12.25698825130547" fill="none" id="id102" stroke="none" /><text fill="#e1ed5e" style="font-size:6.75px; font-family:Arial;" text-anchor="middle"><textPath startOffset="21.466115282336833" xlink:href="#id102">June</textPath></text><path d="M 110.8373102113329 117.98757091392108 l 29.49137434333858 48.949248199526295 a78.14691645187654,78.14691645187654 0 0,0 -1.158182437137366,0.6842745984767682 l -28.644424035172833 -49.44964137029681" fill="#43ffe1" stroke="none" /><path d="M 110.5260780823613 118.17145234162733 l 28.712203700774253 49.56665123413883 a78.2821399383919,78.2821399383919 0 0,0 -1.1718136770324161,0.665386388277373 l -27.854741256820635 -50.05354078821084" fill="#43ffe3" stroke="none" /><path d="M 110.21172684928248 118.3499491758327 l 27.892433734840694 50.12127223718 a78.35965298296347,78.35965298296347 0 0,0 -1.1842650631753047,0.6457557368362958 l -27.02554585979674 -50.593968625776064" fill="#44ffe4" stroke="none" /><path d="M 109.89434966115114 118.52300852407294 l 13.475718768579455 25.227615979498978 a49.60118186961715,49.60118186961715 0 0,0 -0.7565576094417247,0.3957951841390726 l -13.039470256611235 -25.455840582582766" fill="#ffd513" stroke="none" /><path d="M 109.2508944713604 118.85261126421891 l 25.183512064250042 51.322060227247924 a78.16785063179734,78.16785063179734 0 0,0 -1.213043442407274,0.5823345688840884 l -24.296355953842536 -51.74794907263158" fill="#43ffe1" stroke="none" /><path d="M 108.59647513512805 119.15986991738527 l 23.182898238438835 51.6701680135613 a77.63261457220092,77.63261457220092 0 0,0 -1.2239311265294721,0.536535437850277 l -22.29004643725161 -52.06156800470603" fill="#42ffda" stroke="none" /><path d="M 107.93186726928326 119.44442032107085 l 10.715489729132763 26.2682769599853 a49.36977431319545,49.36977431319545 0 0,0 -0.7896317463034285,0.3142107679961321 l -10.261736906787469 -26.4488345723875" fill="#ffd113" stroke="none" /><path d="M 107.59598834532513 119.57807347666477 l 20.50137123318459 52.840701450350814 a77.67844345256806,77.67844345256806 0 0,0 -1.2507330922048723,0.4729202344954261 l -19.58876792021944 -53.18576993495287" fill="#42ffda" stroke="none" /><path d="M 107.2578585660854 119.70592522655815 l 19.57429769954686 53.14648161264826 a77.63657509272647,77.63657509272647 0 0,0 -1.2580098992264548,0.4510775920142544 l -18.65656823969067 -53.475546745702474" fill="#42ffda" stroke="none" /><path d="M 106.91757812671514 119.82793768551818 l 9.343380541769122 26.78104442923774 a49.36411642673037,49.36411642673037 0 0,0 -0.804706245699068,0.27300004934351263 l -8.881004563132826 -26.937907465479373" fill="#ffd113" stroke="none" /><path d="M 105.53697534728816 120.25689768951611 l 7.478340375563911 27.35933725068324 a49.36298484943735,49.36298484943735 0 0,0 -0.8215635702966482,0.21698240599043758 l -7.006286362455765 -27.48401100597726" fill="#ffd113" stroke="none" /><path d="M 105.18746579009965 120.34920634021253 l 13.99049027437756 54.88139776023012 a77.63657509272647,77.63657509272647 0 0,0 -1.2978126033375552,0.3189707622766078 l -13.043724386296795 -55.114089780820755" fill="#42ffda" stroke="none" /><path d="M 104.83641907484287 120.43548508189849 l 13.04893655963451 55.136112953097374 a77.6592066385868,77.6592066385868 0 0,0 -1.3034907406779965,0.2966702487768099 l -12.09792566956365 -55.352559935451865" fill="#42ffda" stroke="none" /><path d="M 104.48393922423573 120.51570834832081 l 12.095992746207687 55.34371608413107 a77.65015402024267,77.65015402024267 0 0,0 -1.3082517863659888,0.2741568817268532 l -11.141549498412319 -55.54372894658446" fill="#42ffda" stroke="none" /><path d="M 103.7750983002368 120.6578951692458 l 5.082036524880309 27.80965406137108 a49.27019551141008,49.27019551141008 0 0,0 -0.835601467007709,0.14528002583878347 l -4.60258608640055 -27.893012665730872" fill="#ffcf13" stroke="none" /><path d="M 103.06178313531738 120.77559828337769 l 8.242058757117723 55.926136567514725 a77.53020682718301,77.53020682718301 0 0,0 -1.3219690659136112,0.18321286672606416 l -7.278161100017282 -56.05972399973339" fill="#42ffd8" stroke="none" /><path d="M 102.70371172650421 120.8252237178851 l 7.295862254483165 56.19606638350279 a77.66769346828441,77.66769346828441 0 0,0 -1.327276442886605,0.1607146930850388 l -6.32745838854518 -56.31332660531318" fill="#42ffda" stroke="none" /><path d="M 102.34483914955558 120.86867818915974 l 6.325184074198827 56.29308558613536 a77.64732507701012,77.64732507701012 0 0,0 -1.329497478974343,0.13780784968291404 l -5.355253998618881 -56.39362280427404" fill="#42ffda" stroke="none" /><path d="M 101.98527174616119 120.90594882070398 l 5.355949340275298 56.40094511524233 a77.65468032941473,77.65468032941473 0 0,0 -1.3317987797429927,0.1149132026332348 l -4.384306242790763 -56.48478257015422" fill="#42ffda" stroke="none" /><path d="M 101.26447882468166 120.96189622390904 l 1.7041489308810893 28.250526890561503 a49.30187967561451,49.30187967561451 0 0,0 -0.8475508005971336,0.04380869532064942 l -1.217610061870476 -28.275675392644352" fill="#ffd013" stroke="none" /><line stroke="#e1ed5e" stroke-width="0.3" x1="102.19456741930631" x2="102.32365962044197" y1="184.97166512339345" y2="189.96999836594603" /><path d="M 102.22038585953345 185.97133177190398 a86.0,86.0 0 0,1 -42.740103519485714,-10.115201625700543" fill="none" id="id103" stroke="none" /><text fill="#e1ed5e" style="font-size:6.75px; font-family:Arial;" text-anchor="middle"><textPath startOffset="22.20632615414155" xlink:href="#id103">July</textPath></text><path d="M 100.54218724476979 120.99299961872073 l 1.4622242053600396 56.61599840593971 a77.63487772678695,77.63487772678695 0 0,0 -1.3362082990816515,0.023004037646885404 l -0.4874562163857201 -56.63277992086576" fill="#42ffda" stroke="none" /><path d="M 99.81925306533755 120.99922214144158 l -0.2791481702302361 32.43150124780256 a53.432702583768155,53.432702583768155 0 0,0 -0.9196539329404764,-0.015832676469685794 l 0.8373617930633803 -32.42189109405371" fill="#eaff1a" stroke="none" /><path d="M 97.65516085044442 120.86867818915974 l -3.1651506407390535 28.169313939642716 a49.34657697868863,49.34657697868863 0 0,0 -0.8432920592349988,-0.10211092437251426 l 3.6495701230254416 -28.110657486544856" fill="#ffd113" stroke="none" /><path d="M 94.11515582081647 120.15858648285463 l -9.05645222269523 31.022958263675203 a53.317847488527065,53.317847488527065 0 0,0 -0.8787924440360716,-0.26477295454372674 l 9.589119641171546 -30.862469940025754" fill="#ecff1a" stroke="none" /><path d="M 93.08242187328487 119.8279376855182 l -9.32809774426601 26.737239162278566 a49.317721757716726,49.317721757716726 0 0,0 -0.7991360013550828,-0.2865417381888663 l 9.786953306250819 -26.572709883049743" fill="#ffd013" stroke="none" /><path d="M 92.40401165467489 119.57807347666478 l -16.383742367870774 42.227830970584634 a66.29477588483059,66.29477588483059 0 0,0 -1.0603341899163368,-0.42192885697143845 l 17.10819763382897 -41.939555269207126" fill="#2fff30" stroke="none" /><path d="M 92.06813273071674 119.44442032107085 l -6.409163026333622 15.71161689415897 a37.96856729741623,37.96856729741623 0 0,0 -0.6030286112228389,-0.252066008398216 l 6.6786630970539225 -15.59896584274078" fill="#ff0000" stroke="none" /><path d="M 91.7346041902142 119.30500536409082 l -12.238759799639443 28.585361066693025 a52.095178223423645,52.095178223423645 0 0,0 -0.8213160218950345,-0.360040807745796 l 12.728996496192222 -28.370455705652777" fill="#ffff18" stroke="none" /><path d="M 90.42595943632237 118.69057910512821 l -21.1856891281279 41.35900573141359 a67.46935311498083,67.46935311498083 0 0,0 -1.0290975049228896,-0.5383751764238772 l 21.894477535577288 -40.98820113604499" fill="#31ff43" stroke="none" /><path d="M 90.10565033884886 118.52300852407294 l -21.3634567489062 39.994088041721206 a66.34230213113725,66.34230213113725 0 0,0 -1.0026444430734016,-0.5467216936938719 l 22.04872400384824 -39.62042569626757" fill="#2fff31" stroke="none" /><line stroke="#e1ed5e" stroke-width="0.3" x1="58.666819895761336" x2="56.23545636021788" y1="174.27360380694188" y2="178.64263932499728" /><path d="M 58.180547188652646 175.14741091055294 a86.0,86.0 0 0,1 -31.652253787137756,-30.449443065178592" fill="none" id="id104" stroke="none" /><text fill="#e1ed5e" style="font-size:6.75px; font-family:Arial;" text-anchor="middle"><textPath startOffset="22.20632615414155" xlink:href="#id104">August</textPath></text><path d="M 89.7882731507175 118.34994917583269 l -13.809753589333145 24.815418609913323 a49.39919532281385,49.39919532281385 0 0,0 -0.7394618077536508,-0.41988571321023044 l 14.234864164008004 -24.57402973090846" fill="#ffd213" stroke="none" /><path d="M 89.1626897886671 117.98757091392108 l -22.122910491129822 36.71920555207426 a63.86867416860502,63.86867416860502 0 0,0 -0.9368038150798288,-0.5754614171943103 l 22.75169350614196 -36.332955668051575" fill="#4fff2b" stroke="none" /><path d="M 88.54995079064634 117.60387380957326 l -16.09458461280478 24.74461300217486 a50.518325265606336,50.518325265606336 0 0,0 -0.7248785514195918,-0.48040997746162056 l 16.518137862964334 -24.463905003621917" fill="#ffe515" stroke="none" /><path d="M 88.24862548938628 117.40417183066458 l -22.228818930093972 32.92161133173524 a60.723455082668,60.723455082668 0 0,0 -0.8612410970611346,-0.592369479774243 l 22.792216911778 -32.5341010625959" fill="#7bff26" stroke="none" /><path d="M 87.95078237400918 117.19931262002967 l -20.539907365510206 29.319105931312304 a56.79801345319671,56.79801345319671 0 0,0 -0.7959096757974793,-0.5678604209689466 l 21.041544369156572 -28.96120124849914" fill="#b5ff1f" stroke="none" /><path d="M 87.65650970185807 116.9893568818739 l -17.47348428575847 24.050187858555127 a50.72766706481423,50.72766706481423 0 0,0 -0.7020105935542004,-0.5193306544084028 l 17.884879849731238 -23.745847255406957" fill="#ffe815" stroke="none" /><path d="M 86.51685102203217 116.09983520530335 l -29.104246912414858 34.752532945383265 a66.32985478091408,66.32985478091408 0 0,0 -0.8690301420885638,-0.7406063402941859 l 29.698142531080478 -34.24640221486612" fill="#2fff30" stroke="none" /><path d="M 86.24171649860922 115.8653595955263 l -23.216060871016516 26.77159211562046 a56.4359087194317,56.4359087194317 0 0,0 -0.7284468870984642,-0.6427696827971221 l 23.673450111021566 -26.36799929105105" fill="#bbff1f" stroke="none" /><path d="M 85.97065885151581 115.62618273729859 l -23.707090593528328 26.405468785980133 a56.4862639089709,56.4862639089709 0 0,0 -0.7179147279161182,-0.6557980823574637 l 24.158104870911302 -25.993477937036094" fill="#baff1f" stroke="none" /><path d="M 85.70375840098266 115.38237550388516 l -19.344972242293508 20.814675317437825 a49.416168982209086,49.416168982209086 0 0,0 -0.6180884187292544,-0.5844411790424203 l 19.700396495413578 -20.478599501649477" fill="#ffd213" stroke="none" /><path d="M 85.18274418774928 114.88116024355367 l -24.02133607130959 24.12493621429319 a55.04463443766895,55.04463443766895 0 0,0 -0.6656714740874797,-0.6743216887833147 l 24.433048170452604 -23.707874031529208" fill="#d0ff1d" stroke="none" /><path d="M 84.67929136418377 114.36230785411682 l -20.694080954871918 19.39954400915032 a49.365248004023385,49.365248004023385 0 0,0 -0.5758188008936761,-0.6249375827757175 l 21.024946163761324 -19.040455171573257" fill="#ffd113" stroke="none" /><path d="M 84.19399662182784 113.82643327865904 l -21.414736330226866 18.732719205846305 a49.45181366693908,49.45181366693908 0 0,0 -0.5549376336154442,-0.6455178387668963 l 21.73401647341309 -18.36132426791788" fill="#ffd313" stroke="none" /><path d="M 83.50135304334701 112.99209946851258 l -22.714995863418384 17.887253812978877 a49.91236562519646,49.91236562519646 0 0,0 -0.5257273815625084,-0.6795735094337574 l 23.019530062198964 -17.493602309431868" fill="#ffda14" stroke="none" /><path d="M 83.06392112726016 112.41649034213515 l -23.317699374617227 17.095101602990333 a49.91293141384296,49.91293141384296 0 0,0 -0.5020295112559036,-0.6972750823925588 l 23.60850867824874 -16.691192915146637" fill="#ffda14" stroke="none" /><path d="M 82.85270091963577 112.12312394758628 l -48.84829683954895 34.53569885489863 a80.82366253850506,80.82366253850506 0 0,0 -0.7933769750248219,-1.142918705374157 l 49.435534721735905 -33.689738887337455" fill="#48faff" stroke="none" /><path d="M 82.6465618267979 111.8261652097733 l -46.82758642951628 31.912452619653454 a77.66769346828441,77.66769346828441 0 0,0 -0.7433792950969745,-1.1112511831427212 l 47.369968830023986 -31.10166452230491" fill="#42ffda" stroke="none" /><path d="M 82.44556493220864 111.52570212397912 l -24.122706253247824 15.838226956634477 a49.85748412648519,49.85748412648519 0 0,0 -0.46485013886771165,-0.7214577384903861 l 24.391761255492582 -15.420647618222642" fill="#ffd914" stroke="none" /><path d="M 82.05923443525364 110.91462005526583 l -25.210909201532374 15.337555924772557 a50.50983843590872,50.50983843590872 0 0,0 -0.44549466874870486,-0.7466746896283013 l 25.47118474597931 -14.901319141258146" fill="#ffe415" stroke="none" /><line stroke="#e1ed5e" stroke-width="0.3" x1="26.63291911575756" x2="22.317208475507996" y1="142.92168965132927" y2="145.44649492493687" /><path d="M 25.769776987707644 143.4266507060508 a86.0,86.0 0 0,1 -11.730757126820373,-40.83630448921669" fill="none" id="id105" stroke="none" /><text fill="#e1ed5e" style="font-size:6.75px; font-family:Arial;" text-anchor="middle"><textPath startOffset="21.46611528233685" xlink:href="#id105">September</textPath></text><path d="M 81.69416730710424 110.29060199501025 l -42.077489232801405 23.653810340576904 a69.27025837681524,69.27025837681524 0 0,0 -0.5753508183002513,-1.044428857157138 l 42.47841646055318 -22.92601096502194" fill="#34ff5f" stroke="none" /><path d="M 81.51974371655577 109.97397251340807 l -25.766372288971773 13.906359578501853 a50.279562456780035,50.279562456780035 0 0,0 -0.40450504593443676,-0.7651711052012488 l 26.001929843131098 -13.46077345821448" fill="#ffe115" stroke="none" /><path d="M 80.87730276802145 108.67885076344099 l -26.61419063248836 12.078870772626733 a50.226944112654806,50.226944112654806 0 0,0 -0.350533640305396,-0.7903608207102465 l 26.818165357525036 -11.61896161542379" fill="#ffe015" stroke="none" /><path d="M 80.73074385275274 108.34839909993369 l -26.649438878225126 11.545860921906694 a50.043062802539765,50.043062802539765 0 0,0 -0.33564363304140504,-0.7933624009835121 l 26.844233492458837 -11.085423995257024" fill="#ffdd14" stroke="none" /><path d="M 80.58989483394504 108.01547362559985 l -26.242314363069372 10.836859298410207 a49.39184007040926,49.39184007040926 0 0,0 -0.3177480224061662,-0.788624533286442 l 26.424964999732925 -10.383535397280959" fill="#ffd213" stroke="none" /><path d="M 80.45479744820244 107.68017299344265 l -52.77673356784902 20.738308684994102 a77.7050355189539,77.7050355189539 0 0,0 -0.4784621712852523,-1.2491137490281543 l 53.12589001872779 -19.826771369132793" fill="#42ffdb" stroke="none" /><path d="M 80.32549172779594 107.34259656027581 l -52.97163766152987 19.769203840038507 a77.54039102282016,77.54039102282016 0 0,0 -0.45592176588031347,-1.254500889095726 l 53.3040836884154 -18.854455153936662" fill="#42ffd9" stroke="none" /><path d="M 79.76711848015287 105.62410040840567 l -54.54096115920028 15.160660216855456 a77.60885144904759,77.60885144904759 0 0,0 -0.3466969355876469,-1.2901882717473918 l 54.7938461711297 -14.219581011932526" fill="#42ffd9" stroke="none" /><path d="M 79.67330655649465 105.27499134158121 l -54.615312855269224 14.173249733411241 a77.42440435028604,77.42440435028604 0 0,0 -0.32366603330474114,-1.2928849122326085 l 54.85119020286903 -13.23103698178124" fill="#42ffd7" stroke="none" /><path d="M 79.58551787078972 104.9243191809786 l -28.647449955542964 6.91025059608808 a50.469101653360156,50.469101653360156 0 0,0 -0.19644360986375914,-0.846273929886143 l 28.762154131337276 -6.416108008853362" fill="#ffe415" stroke="none" /><path d="M 79.23777060512086 103.15116336523772 l -28.28517892442852 4.29295033354351 a49.609102910668256,49.609102910668256 0 0,0 -0.12087127755426388,-0.8453734336939488 l 28.354884252999387 -3.805431427869161" fill="#ffd513" stroke="none" /><path d="M 79.18660465613746 102.79330883721812 l -28.78442724395752 3.8630792173232864 a50.04249701389326,50.04249701389326 0 0,0 -0.10723032567353839,-0.8547312004766134 l 28.846659078877906 -3.3670302625592643" fill="#ffdd14" stroke="none" /><path d="M 79.1416061653843 102.43462659150553 l -29.460896057959022 3.438725029405365 a50.6609040045263,50.6609040045263 0 0,0 -0.09364474749199311,-0.8670340588508917 l 29.515723106952066 -2.931094648669691" fill="#ffe715" stroke="none" /><path d="M 79.04373962182676 101.35467743843564 l -29.150260004078323 1.8843628986967202 a50.21110203055258,50.21110203055258 0 0,0 -0.0483309332379018,-0.8629812798473127 l 29.17837728820376 -1.38230990251397" fill="#ffdf14" stroke="none" /><path d="M 79.0095281055655 100.63252640178507 l -56.67817628534034 1.7079388727326352 a77.70390394166091,77.70390394166091 0 0,0 -0.028779813999449556,-1.3372848684467527 l 56.6991781620248 -0.7320641884957537" fill="#42ffdb" stroke="none" /><line stroke="#e1ed5e" stroke-width="0.3" x1="15.007084014347285" x2="10.007500721073583" y1="101.09737516637583" y2="101.16192664675087" /><path d="M 14.007167355692545 101.11028546245083 a86.0,86.0 0 0,1 10.666146001902534,-42.60595125391555" fill="none" id="id106" stroke="none" /><text fill="#e1ed5e" style="font-size:6.75px; font-family:Arial;" text-anchor="middle"><textPath startOffset="22.20632615414155" xlink:href="#id106">October</textPath></text><path d="M 79.00175016825051 100.2711162175752 l -56.59225301986275 0.73068363819566 a77.59696988747093,77.59696988747093 0 0,0 -0.005748467446680552,-1.335741387354074 l 56.596445784598934 0.24356722736208952" fill="#42ffd9" stroke="none" /><path d="M 79.00019446554 99.90962569577889 l -56.59588000119178 -0.24356479246898166 a77.59640409882442,77.59640409882442 0 0,0 0.0172448507438134,-1.3356326946006098 l 56.58330214333025 1.2177337451300634" fill="#42ffd9" stroke="none" /><path d="M 79.00486145842228 99.54816195383935 l -56.55841320595778 -1.2171981083296144 a77.57150939837808,77.57150939837808 0 0,0 0.04022010932696863,-1.3347096216636483 l 56.52908140217516 2.190577877418257" fill="#42ffd9" stroke="none" /><path d="M 79.01574976396665 99.18683210126434 l -48.659210187734494 -1.885609791030405 a69.69573143898913,69.69573143898913 0 0,0 0.05677345173562867,-1.198397835162121 l 48.61954312776537 2.722918732815535" fill="#35ff66" stroke="none" /><path d="M 79.03285615573316 98.82574320788736 l -56.587505945304386 -3.1691614126622025 a77.67618029798203,77.67618029798203 0 0,0 0.08625536274207551,-1.3343322840926575 l 56.5245699915579 4.142752761007872" fill="#42ffda" stroke="none" /><path d="M 79.08570108090925 98.10471618934814 l -56.474749009848445 -5.117822879125509 a77.70616709624693,77.70616709624693 0 0,0 0.13218512575690317,-1.3310861771281088 l 56.37828675840931 6.089184586958048" fill="#42ffdb" stroke="none" /><path d="M 79.16333360222342 97.38593545837743 l -40.27285671295736 -5.052432318752375 a61.58854592317848,61.58854592317848 0 0,0 0.14102017619984555,-1.0507641115801547 l 40.17992053769969 5.744914772397189" fill="#6fff28" stroke="none" /><path d="M 79.21141760316559 97.0276538004421 l -40.12671174387937 -5.737306992651758 a61.534796001760235,61.534796001760235 0 0,0 0.15894762054810865,-1.0472662242762216 l 40.02200822989196 6.427172329320071" fill="#70ff27" stroke="none" /><path d="M 79.26566170972629 96.67025291283419 l -55.95249144097787 -8.985463764843715 a77.66939083422392,77.66939083422392 0 0,0 0.22334809187319213,-1.3182130812461796 l 55.78953148758446 9.947262634405723" fill="#42ffda" stroke="none" /><path d="M 79.32604984820605 96.31383870115002 l -40.04469635819599 -7.139961587213765 a61.67624316338719,61.67624316338719 0 0,0 0.19535003171295454,-1.0435676807476473 l 39.915860602573176 7.828207345423985" fill="#6eff28" stroke="none" /><path d="M 79.3925641242962 95.95851677861259 l -34.78847723194233 -6.822636638470729 a56.451185012887414,56.451185012887414 0 0,0 0.19521546676518048,-0.9519399453089107 l 34.66588246926216 7.420452239943042" fill="#baff1f" stroke="none" /><path d="M 79.46518482838121 95.60439243477599 l -39.62415816732988 -8.481802633737441 a61.521782862890554,61.521782862890554 0 0,0 0.23057664918815907,-1.033629906773095 l 39.47228713113968 9.162610710060497" fill="#70ff27" stroke="none" /><path d="M 79.54389044137918 95.25157060432595 l -55.11349780946618 -12.793368765792371 a77.57886465078268,77.57886465078268 0 0,0 0.3131496721615291,-1.2982075594943716 l 54.88511533704384 13.74016155694614" fill="#42ffd9" stroke="none" /><path d="M 79.62865764111835 94.90015583598534 l -55.028914339226894 -13.77616078022534 a77.72710127616773,77.72710127616773 0 0,0 0.3360907575697212,-1.295094788964598 l 54.78362724978687 14.7213519947388" fill="#43ffdb" stroke="none" /><path d="M 79.71946130924805 94.55025226153421 l -54.7109554257237 -14.701823760559348 a77.65185138618219,77.65185138618219 0 0,0 0.35798697639034827,-1.2878696241142558 l 54.44978167876699 15.641404688092546" fill="#42ffda" stroke="none" /><path d="M 79.81627453868168 94.20196356495316 l -34.25536155649781 -9.840296073235665 a56.640724209467535,56.640724209467535 0 0,0 0.2772539253359732,-0.9347624059235861 l 34.08090173405013 10.42848786590579" fill="#b8ff1f" stroke="none" /><path d="M 79.91906864156998 93.8553929516997 l -34.446094829639854 -10.540234080715154 a57.022631545860314,57.022631545860314 0 0,0 0.2952808800818352,-0.9361210826363443 l 34.259558465789816 11.131605329777914" fill="#b2ff20" stroke="none" /><path d="M 80.14247586403 93.16781622104843 l -27.75887452410359 -9.55072399494119 a50.35594392405859,50.35594392405859 0 0,0 0.2890597096647263,-0.8172107244213163 l 27.590361733629052 10.027132345789118" fill="#ffe215" stroke="none" /><path d="M 80.2630227832202 92.82701384747504 l -53.18662389125138 -19.329551454675293 a77.59018042371284,77.59018042371284 0 0,0 0.4670020372803878,-1.2513332811062128 l 52.846017265469364 20.242207872810848" fill="#42ffd9" stroke="none" /><path d="M 80.38941819471856 92.48833698450439 l -37.939023352972335 -14.532213342482061 a61.62701955114101,61.62701955114101 0 0,0 0.38797568982037955,-0.9873558120614113 l 37.683254113270266 15.183118159439235" fill="#6eff28" stroke="none" /><path d="M 80.52162464483688 92.15188598940014 l -33.1432737309359 -13.353895598687922 a56.7323819702018,56.7323819702018 0 0,0 0.3727542077702962,-0.9026538807143093 l 32.90849783627941 13.922424049855541" fill="#b6ff1f" stroke="none" /><line stroke="#e1ed5e" stroke-width="0.3" x1="26.266209847984243" x2="21.928928074336255" y1="57.711370442889674" y2="55.22380399835377" /><path d="M 25.398753493254645 57.213857153982495 a86.0,86.0 0 0,1 29.58750427330803,-30.492523968695096" fill="none" id="id107" stroke="none" /><text fill="#e1ed5e" style="font-size:6.75px; font-family:Arial;" text-anchor="middle"><textPath startOffset="21.46611528233685" xlink:href="#id107">November</textPath></text><line stroke="#e1ed5e" stroke-width="0.3" x1="56.762969772571076" x2="54.21961505331055" y1="26.818313649435495" y2="22.513508569990535" /><path d="M 56.25429882871897 25.957352633546506 a86.0,86.0 0 0,1 42.265352541879196,-11.944610805530505" fill="none" id="id108" stroke="none" /><text fill="#e1ed5e" style="font-size:6.75px; font-family:Arial;" text-anchor="middle"><textPath startOffset="22.20632615414155" xlink:href="#id108">December</textPath></text></svg>