<?xml version="1.0" encoding="utf-8" ?>
<svg baseProfile="full" height="200mm" version="1.1" viewBox="0,0,200,200" width="200mm" xmlns="http://www.w3.org/2000/svg" xmlns:ev="http://www.w3.org/2001/xml-events" xmlns:xlink="http://www.w3.org/1999/xlink"><defs /><rect fill="#1a1a1a" height="200" width="200" x="0" y="0" /><text alignment-baseline="middle" fill="#e1ed5e" style="dominant-baseline: central; font-size:9.0px; font-family:Arial;" text-anchor="middle" x="100.0" y="100.0">2021</text><line stroke="#e1ed5e" stroke-width="0.3" x1="100.0" x2="100.0" y1="15.0" y2="10.0" /><path d="M 100.0 14.0 a86.0,86.0 0 0,1 42.46469731375804,11.215312516191453" fill="none" id="id85" stroke="none" /><text fill="#e1ed5e" style="font-size:6.75px; font-family:Arial;" text-anchor="middle"><textPath startOffset="22.20632615414155" xlink:href="#id85">January</textPath></text><line stroke="#e1ed5e" stroke-width="0.3" x1="143.23703022742887" x2="145.7803849466894" y1="26.81831364943548" y2="22.513508569990506" /><path d="M 143.74570117128098 25.957352633546492 a86.0,86.0 0 0,1 28.547481713284135,27.462654790039103" fill="none" id="id86" stroke="none" /><text fill="#e1ed5e" style="font-size:6.75px; font-family:Arial;" text-anchor="middle"><textPath startOffset="19.985693538727396" xlink:href="#id86">February</textPath></text><line stroke="#e1ed5e" stroke-width="0.3" x1="172.23445277983987" x2="176.4835382374775" y1="55.19839476539836" y2="52.563006222186495" /><path d="M 173.08426987136738 54.67131705675599 a86.0,86.0 0 0,1 12.851231095245387,41.99856678651699" fill="none" id="id87" stroke="none" /><text fill="#e1ed5e" style="font-size:6.75px; font-family:Arial;" text-anchor="middle"><textPath startOffset="22.20632615414155" xlink:href="#id87">March</textPath></text><line stroke="#e1ed5e" stroke-width="0.3" x1="184.98032266829074" x2="189.97916517819016" y1="98.17113171792111" y2="98.06355123074" /><path d="M 185.9800911702706 98.14961562048488 a86.0,86.0 0 0,1 -9.607161424134198,41.387399972396054" fill="none" id="id88" stroke="none" /><text fill="#e1ed5e" style="font-size:6.75px; font-family:Arial;" text-anchor="middle"><textPath startOffset="21.466115282336823" xlink:href="#id88">April</textPath></text><line stroke="#e1ed5e" stroke-width="0.3" x1="174.80103733775053" x2="179.2010983576182" y1="140.37084112569926" y2="142.7455964860345" /><path d="M 175.68104954172406 140.8457921977663 a86.0,86.0 0 0,1 -30.038265399797805,32.042727171017184" fill="none" id="id89" stroke="none" /><text fill="#e1ed5e" style="font-size:6.75px; font-family:Arial;" text-anchor="middle"><textPath startOffset="22.206326154141568" xlink:href="#id89">May</textPath></text><path d="M 115.32070863581623 114.36230785411682 l 13.137874740662888 12.316023106993367 a39.008003161742906,39.008003161742906 0 0,0 -0.46344005869730925,0.4859150487351907 l -12.923928130586614 -12.540345272311065" fill="#ff6c0a" stroke="none" /><path d="M 114.81725581225074 114.88116024355365 l 8.221886043039238 8.257345709692451 a32.65260349767809,32.65260349767809 0 0,0 -0.4017048413656878,0.3931527349379986 l -8.078531249297756 -8.397648547553022" fill="#ff0000" stroke="none" /><path d="M 114.29624159901734 115.38237550388516 l 12.369971006330848 13.309759608751454 a39.170467345123996,39.170467345123996 0 0,0 -0.49783882771462323,0.4547639654726322 l -12.13903262914936 -13.520716340810669" fill="#ff6f0a" stroke="none" /><path d="M 114.0293411484842 115.62618273729858 l 12.24964832163519 13.643922484713094 a39.33604386918289,39.33604386918289 0 0,0 -0.50773026176876,0.4480129232256468 l -12.012975706959843 -13.85275854971103" fill="#ff720a" stroke="none" /><path d="M 113.20401910651253 116.32954008644616 l 11.597514894699511 14.342760552561186 a39.444975792905836,39.444975792905836 0 0,0 -0.5316478499108315,0.4223732056530137 l -11.34890955207133 -14.540267672219326" fill="#ff740a" stroke="none" /><path d="M 112.92097659922987 116.55440617244103 l 11.531215199573557 14.773838386716374 a39.74127062543227,39.74127062543227 0 0,0 -0.5428870874096154,0.41626266873269674 l -11.275199383670449 -14.970140397276442" fill="#ff780b" stroke="none" /><path d="M 112.34349029814194 116.9893568818739 l 9.94052824553557 13.681963357088188 a37.91183677502223,37.91183677502223 0 0,0 -0.5312579768544151,0.37903846071148883 l -9.70354294083227 -13.851046079643895" fill="#ff5a08" stroke="none" /><path d="M 112.04921762599082 117.19931262002967 l 10.62571703164271 15.167377228292741 a39.51904950103744,39.51904950103744 0 0,0 -0.5604988961967372,0.3855162517059191 l -10.36306125082309 -15.348034269363755" fill="#ff750a" stroke="none" /><path d="M 111.1453310114006 117.79835938074945 l 8.882788071372575 14.185227359833755 a37.73692322892995,37.73692322892995 0 0,0 -0.553512251669907,0.3400124333964585 l -8.63729661977036 -14.336028260058592" fill="#ff5708" stroke="none" /><line stroke="#e1ed5e" stroke-width="0.3" x1="143.8653032363475" x2="146.44561519142675" y1="172.8068346515853" y2="177.08958963109032" /><path d="M 144.38136562736335 173.6633856474863 a86.0,86.0 0 0,1 -40.68145358897372,12.25698825130547" fill="none" id="id90" stroke="none" /><text fill="#e1ed5e" style="font-size:6.75px; font-family:Arial;" text-anchor="middle"><textPath startOffset="21.466115282336833" xlink:href="#id90">June</textPath></text><path d="M 110.8373102113329 117.98757091392108 l 6.907460176097963 11.464877107856289 a34.38493231894082,34.38493231894082 0 0,0 -0.5096045566747115,0.3010833545899825 l -6.709087748394869 -11.58207903474002" fill="#ff1e03" stroke="none" /><path d="M 110.5260780823613 118.17145234162733 l 9.406076749795844 16.23796384970968 a39.76554688271909,39.76554688271909 0 0,0 -0.5952546998397912,0.3380011537624114 l -9.125173283034853 -16.397468169266716" fill="#ff790b" stroke="none" /><path d="M 110.21172684928248 118.3499491758327 l 7.808777667951476 14.031972794332532 a37.05843296116984,37.05843296116984 0 0,0 -0.5600714880842986,0.3053956311935377 l -7.566083367998529 -14.16430907728584" fill="#ff4c07" stroke="none" /><path d="M 109.89434966115114 118.52300852407294 l 6.807363402380567 12.743925032672363 a35.44810789447683,35.44810789447683 0 0,0 -0.5406834022296799,0.2828600017708502 l -6.586989097624391 -12.85921445338793" fill="#ff3104" stroke="none" /><path d="M 109.57404056367764 118.69057910512821 l 7.226645873551556 14.107961572337414 a36.85115107202846,36.85115107202846 0 0,0 -0.5670621650627737,0.284336741579917 l -6.982729800806022 -14.230266154826634" fill="#ff4806" stroke="none" /><path d="M 109.2508944713604 118.85261126421891 l 7.2657133921836685 14.806964944215245 a37.49353818792609,37.49353818792609 0 0,0 -0.5818413870140297,0.2793192242095939 l -7.009759337169406 -14.9298384449244" fill="#ff5307" stroke="none" /><path d="M 108.92500713936063 119.00905698771935 l 7.833565450161274 16.68443394318815 a39.43190396205908,39.43190396205908 0 0,0 -0.6168877352077097,0.28318290280112146 l -7.545209719186144 -16.816803916323344" fill="#ff730a" stroke="none" /><path d="M 108.59647513512805 119.15986991738527 l 7.167070135137237 15.974004381967065 a38.50816124888845,38.50816124888845 0 0,0 -0.6071074307834484,0.2661380564126952 l -6.891042029696035 -16.095006991674214" fill="#ff6409" stroke="none" /><path d="M 107.93186726928326 119.44442032107085 l 4.525890078066479 11.094904392271923 a32.98251160952475,32.98251160952475 0 0,0 -0.5275300242306584,0.20991508362030714 l -4.334238977793954 -11.171166320298298" fill="#ff0600" stroke="none" /><path d="M 107.59598834532513 119.57807347666477 l 5.532965643652397 14.26079174831223 a36.29653196324474,36.29653196324474 0 0,0 -0.584425635233313,0.22097976793149735 l -5.28666978765881 -14.353919766350357" fill="#ff3f05" stroke="none" /><path d="M 107.2578585660854 119.70592522655815 l 7.361624215182584 19.987660962185352 a42.30023713071831,42.30023713071831 0 0,0 -0.6854258703003444,0.2457693308053201 l -7.016478784252504 -20.111417834030632" fill="#ffa10e" stroke="none" /><path d="M 106.91757812671514 119.82793768551818 l 6.520061731250509 18.6885316428448 a40.79324177452821,40.79324177452821 0 0,0 -0.6649886357633578,0.22560025021125799 l -6.197403362549925 -18.79799487995418" fill="#ff890c" stroke="none" /><path d="M 106.57524785965236 119.94407469862006 l 5.519933896287155 16.743091106046364 a38.6295425353226,38.6295425353226 0 0,0 -0.6333012830387224,0.20276307183363768 l -5.2309112681574925 -16.835627024539708" fill="#ff6609" stroke="none" /><path d="M 106.2309692047433 120.05430185196036 l 4.0202402928459895 12.93909658368603 a34.549263906728584,34.549263906728584 0 0,0 -0.5694459453708154,0.17156939210390798 l -3.796919373034928 -13.006381344895665" fill="#ff2103" stroke="none" /><path d="M 105.88484417918355 120.15858648285463 l 5.322524961152881 18.232356961308465 a39.99337022033396,39.99337022033396 0 0,0 -0.662497475338458,0.18722840403906524 l -5.007896317709817 -18.32127415868605" fill="#ff7c0b" stroke="none" /><path d="M 105.53697534728816 120.25689768951611 l 4.574446503693769 16.73550792615926 a38.349431874320715,38.349431874320715 0 0,0 -0.6382615691821181,0.16857068149012733 l -4.285694491700154 -16.811769956952972" fill="#ff6109" stroke="none" /><path d="M 104.83641907484287 120.43548508189849 l 10.074479314828052 42.568038162150486 a64.74394822645984,64.74394822645984 0 0,0 -1.0867112951704208,0.2473319527525664 l -9.34024787026477 -42.73514684848074" fill="#30ff37" stroke="none" /><path d="M 104.48393922423573 120.51570834832081 l 6.6194479534780015 30.28646394367463 a52.00140302341666,52.00140302341666 0 0,0 -0.876120971777951,0.18359966800071925 l -6.0971355202706725 -30.39591959240189" fill="#ccff1d" stroke="none" /><path d="M 103.7750983002368 120.6578951692458 l 5.686593830246056 31.117880879534702 a52.63320818100978,52.63320818100978 0 0,0 -0.8926367251615404,0.1551963365508539 l -5.1501081336124654 -31.21115579460656" fill="#c3ff1e" stroke="none" /><path d="M 103.06178313531738 120.77559828337769 l 4.577337048103961 31.059324425069782 a52.394802885090414,52.394802885090414 0 0,0 -0.8933848039786974,0.12381499329057391 l -4.042023652938433 -31.133513983852957" fill="#c7ff1e" stroke="none" /><path d="M 102.70371172650421 120.8252237178851 l 3.0868956115449784 23.77668117277437 a44.97622764548958,44.97622764548958 0 0,0 -0.7686064150745046,0.09306753296490498 l -2.6771617734190936 -23.826294234464626" fill="#ffcb12" stroke="none" /><path d="M 102.34483914955558 120.86867818915974 l 3.5271978212127357 31.391473591843052 a52.58901294338504,52.58901294338504 0 0,0 -0.9004426110060625,0.09333455831848839 l -2.9863226136010708 -31.4475375186173" fill="#c4ff1e" stroke="none" /><path d="M 101.98527174616119 120.90594882070398 l 2.9707872393993147 31.28394191081177 a52.42468135559727,52.42468135559727 0 0,0 -0.8990974705146388,0.07757791296085707 l -2.4318454511431344 -31.33044407605129" fill="#c6ff1e" stroke="none" /><path d="M 101.26447882468166 120.96189622390904 l 1.884649404450194 31.24277327813905 a52.299565260349766,52.299565260349766 0 0,0 -0.8990841464654357,0.04647238066718855 l -1.3465771895712788 -31.27058546556844" fill="#c8ff1d" stroke="none" /><line stroke="#e1ed5e" stroke-width="0.3" x1="102.19456741930631" x2="102.32365962044197" y1="184.97166512339345" y2="189.96999836594603" /><path d="M 102.22038585953345 185.97133177190398 a86.0,86.0 0 0,1 -42.740103519485714,-10.115201625700543" fill="none" id="id91" stroke="none" /><text fill="#e1ed5e" style="font-size:6.75px; font-family:Arial;" text-anchor="middle"><textPath startOffset="22.20632615414155" xlink:href="#id91">July</textPath></text><path d="M 100.54218724476979 120.99299961872073 l 0.808395235623914 31.300332195077715 a52.31076968678985,52.31076968678985 0 0,0 -0.9003438484545975,0.015500235853366472 l -0.2694916972766486 -31.30960990821024" fill="#c8ff1d" stroke="none" /><path d="M 99.81925306533755 120.99922214144158 l -0.26958813374013624 31.320813919628453 a52.32197411322991,52.32197411322991 0 0,0 -0.9005366928054105,-0.015503555843752058 l 0.8086845164382146 -31.31153288650554" fill="#c8ff1d" stroke="none" /><path d="M 99.45781275523022 120.99299961872073 l -0.8123165977735957 31.45216378998833 a52.462651911866416,52.462651911866416 0 0,0 -0.9025565920445102,-0.03108587394481096 l 1.353593541492749 -31.433521117617424" fill="#c6ff1e" stroke="none" /><path d="M 99.09653310690486 120.98055641714683 l -1.353111502047762 31.42232706518658 a52.45144748542634,52.45144748542634 0 0,0 -0.9016951605343911,-0.04660734027048929 l 1.893794730995642 -31.394379918153888" fill="#c6ff1e" stroke="none" /><path d="M 98.73552117531835 120.96189622390904 l -1.8792896434009831 31.153921845671338 a52.21055231696472,52.21055231696472 0 0,0 -0.8966223545617806,-0.0618363271353341 l 2.415274758741694 -31.116957174019717" fill="#c9ff1d" stroke="none" /><path d="M 98.37488393609728 120.93702456842531 l -2.432038133612897 31.33292648188887 a52.427171228139514,52.427171228139514 0 0,0 -0.8991401725024573,-0.07758159746804665 l 2.971022623856896 -31.286420632142157" fill="#c6ff1e" stroke="none" /><path d="M 97.65516085044442 120.86867818915974 l -3.501620285187539 31.16383777798244 a52.35994466949906,52.35994466949906 0 0,0 -0.8947880129728475,-0.10834636721824209 l 4.037535721211776 -31.09894588203885" fill="#c7ff1e" stroke="none" /><path d="M 96.93821686468263 120.77559828337769 l -4.566446405591201 30.9854264369064 a52.320106708823246,52.320106708823246 0 0,0 -0.889850748979385,-0.13897638628562894 l 5.099133018179103 -30.902231743273667" fill="#c8ff1d" stroke="none" /><path d="M 96.58105272829116 120.7198165907248 l -5.101767914801898 30.918199984495637 a52.33629088034779,52.33629088034779 0 0,0 -0.8876011345892304,-0.15432083458329696 l 5.633218020863178 -30.825800571391333" fill="#c7ff1e" stroke="none" /><path d="M 95.86986931433489 120.58985236759428 l -6.191768195500951 30.86768984870513 a52.48257089220432,52.48257089220432 0 0,0 -0.8842277003714007,-0.18529851179772694 l 6.722187357301738 -30.756535356180862" fill="#c5ff1e" stroke="none" /><path d="M 95.51606077576429 120.51570834832081 l -6.696137003938925 30.637345192078385 a52.360567137634625,52.360567137634625 0 0,0 -0.878859280113259,-0.20002551083361347 l 7.222516433445047 -30.517542947667085" fill="#c7ff1e" stroke="none" /><path d="M 95.16358092515715 120.4354850818985 l -7.215061820504866 30.486044719500136 a52.32819879458551,52.32819879458551 0 0,0 -0.8747448715306444,-0.21499100698524443 l 7.738759976778721 -30.35733245420086" fill="#c7ff1e" stroke="none" /><path d="M 94.81253420990036 120.34920634021253 l -15.485361888799863 60.74542697311917 a83.68814346408458,83.68814346408458 0 0,0 -1.3928479030505123,-0.36786379059323476 l 16.528700234661866 -60.469871833222356" fill="#4dd5ff" stroke="none" /><path d="M 94.11515582081647 120.15858648285463 l -8.796216898241921 30.131519827217986 a52.38920067187037,52.38920067187037 0 0,0 -0.86348635340982,-0.2601613549958131 l 9.313578226091986 -29.975643103116447" fill="#c7ff1e" stroke="none" /><path d="M 93.42475214034765 119.94407469862007 l -9.807715328329975 29.748811194070516 a52.323841517636595,52.323841517636595 0 0,0 -0.8529540304991813,-0.28936831751782355 l 10.318339091766383 -29.57557988965457" fill="#c7ff1d" stroke="none" /><path d="M 93.08242187328487 119.8279376855182 l -10.31259779582088 29.559123543783766 a52.30641240984092,52.30641240984092 0 0,0 -0.8475642379382565,-0.3039063808334646 l 10.819881594388864 -29.37722962191034" fill="#c8ff1d" stroke="none" /><path d="M 91.07499286063937 119.00905698771935 l -13.331955383501999 28.395260158960077 a52.36928169153246,52.36928169153246 0 0,0 -0.8126897851998707,-0.39014048397285794 l 13.818757836702112 -28.16156539848766" fill="#c7ff1e" stroke="none" /><path d="M 90.7491055286396 118.85261126421891 l -13.848920816403217 28.223035230689934 a52.43775318644403,52.43775318644403 0 0,0 -0.8069073824807268,-0.40460011269831664 l 14.332682106566704 -27.980467277082315" fill="#c6ff1e" stroke="none" /><path d="M 90.10565033884886 118.52300852407294 l -14.779348754304591 27.668114866720895 a52.36803675526134,52.36803675526134 0 0,0 -0.7914485834925965,-0.43156087188029313 l 15.253420149665828 -27.409613343080835" fill="#c7ff1e" stroke="none" /><line stroke="#e1ed5e" stroke-width="0.3" x1="58.666819895761336" x2="56.23545636021788" y1="174.27360380694188" y2="178.64263932499728" /><path d="M 58.180547188652646 175.14741091055294 a86.0,86.0 0 0,1 -31.652253787137756,-30.449443065178592" fill="none" id="id92" stroke="none" /><text fill="#e1ed5e" style="font-size:6.75px; font-family:Arial;" text-anchor="middle"><textPath startOffset="22.20632615414155" xlink:href="#id92">August</textPath></text><path d="M 89.7882731507175 118.34994917583269 l -15.293375132694338 27.48141039745915 a52.45020254915522,52.45020254915522 0 0,0 -0.7851326593599707,-0.44581881468830814 l 15.764156558975516 -27.21408841697621" fill="#c6ff1e" stroke="none" /><path d="M 89.4739219176387 118.17145234162733 l -15.714547436899771 27.128446852239957 a52.351230115601226,52.351230115601226 0 0,0 -0.7758754668172213,-0.4584009017064386 l 16.179190774745372 -26.85392737823977" fill="#c7ff1e" stroke="none" /><path d="M 88.8546689885994 117.79835938074946 l -16.614923403508655 26.532938099082084 a52.30578994170537,52.30578994170537 0 0,0 -0.7589774311213627,-0.48441530631593743 l 17.06918263667694 -26.24300836394234" fill="#c8ff1d" stroke="none" /><path d="M 88.54995079064634 117.60387380957326 l -8.56700352166304 13.171336311666284 a36.712340677798636,36.712340677798636 0 0,0 -0.5267789102237538,-0.34912033732028935 l 8.792457130626754 -13.021917953254677" fill="#ff4606" stroke="none" /><path d="M 88.24862548938628 117.40417183066458 l -17.552868224647153 25.996374673180004 a52.367414287125776,52.367414287125776 0 0,0 -0.7427273245486337,-0.510854626373872 l 17.997752433818675 -25.69037925744103" fill="#c7ff1e" stroke="none" /><path d="M 87.95078237400918 117.19931262002967 l -17.990609334741908 25.68018304405103 a52.35496492441458,52.35496492441458 0 0,0 -0.7336493061278703,-0.5234393003250225 l 18.42998596871867 -25.36669948188179" fill="#c7ff1e" stroke="none" /><path d="M 87.65650970185807 116.9893568818739 l -18.41388735475409 25.344541640676304 a52.32757632644996,52.32757632644996 0 0,0 -0.7241514353350519,-0.535709919845107 l 18.84742376050771 -25.02382177209143" fill="#c7ff1e" stroke="none" /><path d="M 87.36589467227662 116.77436683061367 l -18.84929621955243 25.026307845626256 a52.33068866712776,52.33068866712776 0 0,0 -0.7148652950833535,-0.5481282248499324 l 19.27729024312927 -24.698140278948955" fill="#c7ff1e" stroke="none" /><path d="M 86.51685102203217 116.09983520530335 l -40.19926065013092 48.000765466561546 a83.6103349471396,83.6103349471396 0 0,0 -1.0954328409006633,-0.9335516319235156 l 41.01955896760864 -47.30168944441508" fill="#4cd6ff" stroke="none" /><path d="M 85.97065885151581 115.62618273729859 l -31.35746957739153 34.92662589137645 a67.9378322300168,67.9378322300168 0 0,0 -0.8634589538303203,-0.7887492819097974 l 31.954028080688705 -34.38168384288008" fill="#35ff64" stroke="none" /><path d="M 85.70375840098266 115.38237550388516 l -21.363848045088204 22.986931954205225 a52.38173105424365,52.38173105424365 0 0,0 -0.6551811276441686,-0.6195146505316277 l 21.75636500712319 -22.615782666927668" fill="#c7ff1e" stroke="none" /><path d="M 85.44109423537348 115.13401014063109 l -21.74471327935978 22.603670673830237 a52.36492441458354,52.36492441458354 0 0,0 -0.6442133674450282,-0.6304983689854698 l 22.130576599180603 -22.2260222019222" fill="#c7ff1e" stroke="none" /><path d="M 84.9287848128048 114.62390073753433 l -22.503627917392663 21.835719071807745 a52.356209860685695,52.356209860685695 0 0,0 -0.6220253026128336,-0.6521910429651672 l 22.87615977138445 -21.445120912260077" fill="#c7ff1e" stroke="none" /><path d="M 84.43433777217949 114.09645910891817 l -23.273287247180768 21.07658108009239 a52.39853769390376,52.39853769390376 0 0,0 -0.5996916583856066,-0.6737599354838566 l 23.632637755214713 -20.672846974867667" fill="#c6ff1e" stroke="none" /><path d="M 84.19399662182784 113.82643327865904 l -23.67480375572955 20.70973203548656 a52.45455982610414,52.45455982610414 0 0,0 -0.5886338061994832,-0.684714100082701 l 24.027780071499812 -20.29914083624233" fill="#c6ff1e" stroke="none" /><path d="M 83.95833913139862 113.55231037782056 l -23.987838380571176 20.265397310748696 a52.402272502717125,52.402272502717125 0 0,0 -0.5761854445498252,-0.6940524856327553 l 24.33311982501454 -19.849483568002178" fill="#c6ff1e" stroke="none" /><path d="M 83.72743513129214 113.27417163493432 l -24.332155143765526 19.848696639538492 a52.401027566446004,52.401027566446004 0 0,0 -0.5641397010806144,-0.7038510175425124 l 24.670212756901 -19.42691778841772" fill="#c6ff1e" stroke="none" /><path d="M 83.28015986056508 112.70617746262583 l -24.983614107372414 18.986200337963577 a52.37924118170142,52.37924118170142 0 0,0 -0.5393533697430357,-0.7225519786387884 l 25.306728743810535 -18.55333547981548" fill="#c7ff1e" stroke="none" /><path d="M 82.85270091963577 112.12312394758628 l -25.667072115185647 18.146595283939124 a52.434018377630665,52.434018377630665 0 0,0 -0.514700046771847,-0.7414638055182947 l 25.975633069119628 -17.70209021623382" fill="#c6ff1e" stroke="none" /><path d="M 82.6465618267979 111.8261652097733 l -25.85321082966043 17.618660891465737 a52.28587096136746,52.28587096136746 0 0,0 -0.5004427473395299,-0.7480940063089871 l 26.15265668241069 -17.17102997095093" fill="#c8ff1d" stroke="none" /><path d="M 82.44556493220864 111.52570212397912 l -26.24735801179527 17.233207950989385 a52.39916016203932,52.39916016203932 0 0,0 -0.48854765346926454,-0.758236807404776 l 26.540110528641584 -16.77884954366316" fill="#c6ff1e" stroke="none" /><path d="M 82.24976979558568 111.22182372390057 l -26.50748981114311 16.758226490480222 a52.360567137634625,52.360567137634625 0 0,0 -0.4750733107980667,-0.7659694436417497 l 26.79202776160913 -16.29946071547321" fill="#c7ff1e" stroke="none" /><line stroke="#e1ed5e" stroke-width="0.3" x1="26.63291911575756" x2="22.317208475507996" y1="142.92168965132927" y2="145.44649492493687" /><path d="M 25.769776987707644 143.4266507060508 a86.0,86.0 0 0,1 -11.730757126820373,-40.83630448921669" fill="none" id="id93" stroke="none" /><text fill="#e1ed5e" style="font-size:6.75px; font-family:Arial;" text-anchor="middle"><textPath startOffset="21.46611528233685" xlink:href="#id93">September</textPath></text><path d="M 81.87401531095188 110.60418214915194 l -27.14868114823443 15.882699061258204 a52.453314889833024,52.453314889833024 0 0,0 -0.4492201894346314,-0.783253265161743 l 27.41805333382144 -15.413025950238154" fill="#c6ff1e" stroke="none" /><path d="M 81.51974371655577 109.97397251340807 l -27.58398731575294 14.887343934942502 a52.345005434245635,52.345005434245635 0 0,0 -0.42112177976526227,-0.7966037034295255 l 27.836161603743086 -14.41032521642685" fill="#c7ff1e" stroke="none" /><path d="M 81.35079622478065 109.6543875284942 l -27.885359681087053 14.435794255752091 a52.40040509831044,52.40040509831044 0 0,0 -0.4077782811859231,-0.8045852347153979 l 28.129716632059242 -13.953654809334008" fill="#c6ff1e" stroke="none" /><path d="M 81.18737489456691 109.33194174019688 l -28.086221381840183 13.932079131365368 a52.351852583736786,52.351852583736786 0 0,0 -0.3935033066918649,-0.8107333636146926 l 28.321877945146767 -13.446556811785392" fill="#c7ff1e" stroke="none" /><path d="M 80.73074385275274 108.34839909993369 l -28.811926403272626 12.48275795466026 a52.39978263017488,52.39978263017488 0 0,0 -0.3514503794855499,-0.8307248803400545 l 29.02252776395048 -11.984958548654047" fill="#c6ff1e" stroke="none" /><path d="M 80.45479744820244 107.68017299344265 l -29.18223686601903 11.466989245707932 a52.35434245627903,52.35434245627903 0 0,0 -0.3223674270341568,-0.8415996279612402 l 29.375298572646695 -10.962966050913534" fill="#c7ff1e" stroke="none" /><path d="M 80.32549172779594 107.34259656027581 l -29.438865060197433 10.986689290467035 a52.42219148305503,52.42219148305503 0 0,0 -0.30823184919504054,-0.8481216686731005 l 29.623621170397698 -10.478319824787818" fill="#c6ff1e" stroke="none" /><path d="M 80.20201598880116 107.00284435728193 l -29.604255490947956 10.47146989304816 a52.401650034581564,52.401650034581564 0 0,0 -0.2934721198938515,-0.8529673516657937 l 29.780118441785035 -9.96032983829307" fill="#c6ff1e" stroke="none" /><path d="M 79.86692584326677 105.97154293290107 l -30.07011186472109 8.918904415661084 a52.36492441458354,52.36492441458354 0 0,0 -0.24887642978466923,-0.866371501600663 l 30.21918093139186 -8.399975438555826" fill="#c7ff1e" stroke="none" /><path d="M 79.76711848015287 105.62410040840567 l -30.32713228027752 8.42998249537372 a52.47696867898429,52.47696867898429 0 0,0 -0.23442692283466401,-0.8723897888236514 l 30.46774727945396 -7.906701773374529" fill="#c5ff1e" stroke="none" /><path d="M 79.67330655649465 105.27499134158121 l -15.08806611635987 3.915512296488786 a36.58784705068669,36.58784705068669 0 0,0 -0.15295233358824778,-0.6109685417648603 l 15.153229764243177 -3.655215915326534" fill="#ff4406" stroke="none" /><path d="M 79.58551787078972 104.9243191809786 l -15.218581925194309 3.6709799644781693 a36.65507360932714,36.65507360932714 0 0,0 -0.14267452250477347,-0.6146381088113909 l 15.279517013629638 -3.4084731983182044" fill="#ff4506" stroke="none" /><path d="M 79.4281124754447 104.21870165774334 l -50.03170041010484 10.260060833401344 a72.07288805454006,72.07288805454006 0 0,0 -0.23876741202817336,-1.2174698899007648 l 50.20089775510868 -9.397327216432624" fill="#3bff9d" stroke="none" /><path d="M 79.35854240842038 103.8639653848113 l -15.36576126731343 2.876384547203366 a36.63266475644699,36.63266475644699 0 0,0 -0.11068918597106565,-0.6208037379759872 l 15.412996895623683 -2.611462058494165" fill="#ff4506" stroke="none" /><path d="M 79.29508885075956 103.50808413554451 l -30.959171314794006 5.2454887130978 a52.40040509831044,52.40040509831044 0 0,0 -0.14302377576156333,-0.8906091881941246 l 31.04487684491686 -4.711800295210462" fill="#c6ff1e" stroke="none" /><path d="M 79.18660465613746 102.79330883721812 l -30.952342390977016 4.154029177118975 a52.22984882916708,52.22984882916708 0 0,0 -0.11191735093227596,-0.8920914033940386 l 31.01926125115614 -3.620620019437528" fill="#c9ff1d" stroke="none" /><path d="M 79.1416061653843 102.43462659150553 l -31.261623380881538 3.648908932307901 a52.47385633830649,52.47385633830649 0 0,0 -0.09699592068654757,-0.8980617606131853 l 31.319801603069138 -3.1102508498099337" fill="#c5ff1e" stroke="none" /><path d="M 79.07016306316243 101.71520430193888 l -15.651779154613434 1.2826664163703991 a36.704248592036365,36.704248592036365 0 0,0 -0.04618345521149166,-0.6301365534347647 l 15.67153916848926 -1.0130567264388737" fill="#ff4606" stroke="none" /><line stroke="#e1ed5e" stroke-width="0.3" x1="15.007084014347285" x2="10.007500721073583" y1="101.09737516637583" y2="101.16192664675087" /><path d="M 14.007167355692545 101.11028546245083 a86.0,86.0 0 0,1 10.666146001902534,-42.60595125391555" fill="none" id="id94" stroke="none" /><text fill="#e1ed5e" style="font-size:6.75px; font-family:Arial;" text-anchor="middle"><textPath startOffset="22.20632615414155" xlink:href="#id94">October</textPath></text><path d="M 79.16333360222342 97.38593545837743 l -31.051800409483715 -3.8956044529576914 a52.29520798340086,52.29520798340086 0 0,0 0.11974108714022005,-0.8922101818269675 l 30.98014332328566 4.429532976849319" fill="#c8ff1d" stroke="none" /><path d="M 79.21141760316559 97.0276538004421 l -31.062714315514956 -4.441338956221141 a52.37861871356586,52.37861871356586 0 0,0 0.13529673214289645,-0.8914364199954579 l 30.981661689932757 4.975374488608692" fill="#c7ff1e" stroke="none" /><path d="M 79.26566170972629 96.67025291283419 l -30.94294229523992 -4.969156504224991 a52.33940322102559,52.33940322102559 0 0,0 0.15050852998381803,-0.8883098637638976 l 30.85282190373588 5.501052156304716" fill="#c7ff1e" stroke="none" /><path d="M 79.3925641242962 95.95851677861259 l -30.843351460560836 -6.04892758958806 a52.43090603695286,52.43090603695286 0 0,0 0.1813128243913466,-0.884145723671154 l 30.734659340254495 6.578948969422616" fill="#c6ff1e" stroke="none" /><path d="M 79.54389044137918 95.25157060432595 l -30.50711116163097 -7.081545149230761 a52.318239304416565,52.318239304416565 0 0,0 0.2111843162438081,-0.8754953307214185 l 30.380694045126347 7.605625711611577" fill="#c8ff1d" stroke="none" /><path d="M 79.71946130924805 94.55025226153421 l -30.24467333096865 -8.127291025126688 a52.317616836281,52.317616836281 0 0,0 0.2411922591520047,-0.8676968845778806 l 30.100294301250283 8.646699213123512" fill="#c8ff1d" stroke="none" /><path d="M 79.91906864156998 93.8553929516997 l -29.95830519319657 -9.16700575085474 a52.32944373085664,52.32944373085664 0 0,0 0.27097809729480965,-0.8590746198671969 l 29.796071612133556 9.681330537148352" fill="#c7ff1e" stroke="none" /><path d="M 80.14247586403 93.16781622104843 l -29.73507768899118 -10.230656856389944 a52.445845272206306,52.445845272206306 0 0,0 0.30105643199475646,-0.8511270739443146 l 29.554568176186613 10.74098155676087" fill="#c6ff1e" stroke="none" /><path d="M 80.2630227832202 92.82701384747504 l -29.444582451947273 -10.701009575829895 a52.32882126272108,52.32882126272108 0 0,0 0.31495823317744814,-0.8439314775338415 l 29.2560196302682 11.206264190393076" fill="#c7ff1e" stroke="none" /><path d="M 80.38941819471856 92.48833698450439 l -29.26008861769938 -11.20782278068381 a52.33317853966999,52.33317853966999 0 0,0 0.3294658932446397,-0.8384547617447451 l 29.06282917457305 11.709826547324319" fill="#c7ff1e" stroke="none" /><path d="M 80.52162464483688 92.15188598940014 l -29.080150128846 -11.716805405746948 a52.351852583736786,52.351852583736786 0 0,0 0.34397239561363563,-0.8329564396240943 l 28.874156046346165 12.215636415824353" fill="#c7ff1e" stroke="none" /><path d="M 80.65960295795068 91.81776055985345 l -28.910845664289784 -12.231158498350865 a52.39169054441261,52.39169054441261 0 0,0 0.3585320313466415,-0.8275413604826591 l 28.696022923100465 12.726999003420124" fill="#c7ff1e" stroke="none" /><path d="M 80.95270993114464 91.15688171328213 l -28.416802798506904 -13.19311815849473 a52.33006619899219,52.33006619899219 0 0,0 0.38634990380345036,-0.8137514289197109 l 28.1854947008617 13.680312003054974" fill="#c7ff1e" stroke="none" /><path d="M 81.26839172434947 90.50648371742162 l -42.398470639617386 -21.488308182104042 a68.53291176761189,68.53291176761189 0 0,0 0.5423582597070149,-1.0476635285870983 l 42.02230294675026 22.214944432951476" fill="#36ff6d" stroke="none" /><path d="M 81.43458229118936 90.18545643968196 l -27.70944999185087 -14.648504452900736 a52.343138029838954,52.343138029838954 0 0,0 0.4279472791053783,-0.7929213142545247 l 27.45319461352702 15.123306750487734" fill="#c7ff1e" stroke="none" /><path d="M 81.6062741919709 89.86733742301443 l -27.425933879694345 -15.108289465767369 a52.31201462306096,52.31201462306096 0 0,0 0.4412701742416132,-0.7849704017266282 l 27.161806064160302 15.57814337742878" fill="#c8ff1d" stroke="none" /><line stroke="#e1ed5e" stroke-width="0.3" x1="26.266209847984243" x2="21.928928074336255" y1="57.711370442889674" y2="55.22380399835377" /><path d="M 25.398753493254645 57.213857153982495 a86.0,86.0 0 0,1 29.58750427330803,-30.492523968695096" fill="none" id="id95" stroke="none" /><text fill="#e1ed5e" style="font-size:6.75px; font-family:Arial;" text-anchor="middle"><textPath startOffset="21.46611528233685" xlink:href="#id95">November</textPath></text><path d="M 81.78341655067845 89.55222093294921 l -27.195283828428398 -15.59734391992924 a52.350607647465665,52.350607647465665 0 0,0 0.45505223626879415,-0.7778317791330039 l 26.92277191768928 16.063155111416137" fill="#c7ff1e" stroke="none" /><path d="M 82.15384107792192 88.93136811851018 l -26.62482573459245 -16.513379503778644 a52.33006619899219,52.33006619899219 0 0,0 0.4813678417270105,-0.7614083248748993 l 26.336630296619475 16.96923547636776" fill="#c7ff1e" stroke="none" /><path d="M 82.54541684631803 88.32363383020206 l -25.99561892767761 -17.389952125328445 a52.2759114711985,52.2759114711985 0 0,0 0.506766505257279,-0.7436173147627221 l 25.69242795675159 17.834847463361584" fill="#c8ff1d" stroke="none" /><path d="M 82.7489923806493 88.02491185347247 l -25.776288205232177 -17.893060519068445 a52.37799624543029,52.37799624543029 0 0,0 0.5205060388752928,-0.7362188789224868 l 25.46446954655301 18.334105898322715" fill="#c7ff1e" stroke="none" /><path d="M 83.17141714833178 87.43820079747576 l -25.13014056370496 -18.758548029561357 a52.3593222013635,52.3593222013635 0 0,0 0.5453449294760083,-0.7176100025763322 l 24.80351969400484 19.188342808018717" fill="#c7ff1e" stroke="none" /><path d="M 83.6137871275137 86.86637796730984 l -24.44089215720315 -19.58948307533748 a52.322596581365474,52.322596581365474 0 0,0 0.5693234389200286,-0.6979232185547861 l 24.100070226206732 20.007290463500347" fill="#c8ff1d" stroke="none" /><path d="M 84.07557802195018 86.31012108654704 l -35.67961069752417 -30.672984601985842 a68.05174389882421,68.05174389882421 0 0,0 0.7712794640779527,-0.8817057565776831 l 35.14633936986837 31.282605914766467" fill="#35ff66" stroke="none" /><path d="M 84.31358615837235 86.03803664274999 l -23.494283321912967 -20.911492337075963 a52.452692421697456,52.452692421697456 0 0,0 0.6060942563302606,-0.6692644159333864 l 23.13084542496666 21.312809540278906" fill="#c6ff1e" stroke="none" /><path d="M 84.5562425177563 85.77008943001954 l -34.52025416397141 -31.807034665694793 a67.93969963442348,67.93969963442348 0 0,0 0.7998530421495882,-0.8532274572246012 l 33.96763379985136 32.396531539797444" fill="#35ff64" stroke="none" /><path d="M 84.80347519578584 85.50635884689758 l -22.745688662590602 -21.693634136954635 a52.432150973224,52.432150973224 0 0,0 0.6285260062320858,-0.6477512984178921 l 22.3688983926554 22.081949630922654" fill="#c6ff1e" stroke="none" /><path d="M 85.31137513191541 84.99185889309783 l -21.983302782762348 -22.46149745959682 a52.429038632546195,52.429038632546195 0 0,0 0.6504115754795077,-0.6256954202908638 l 21.593407963670412 22.83657596665" fill="#c6ff1e" stroke="none" /><path d="M 85.83668400450813 84.49514656593479 l -21.266384795997524 -23.28071896717739 a52.531745874913554,52.531745874913554 0 0,0 0.6728791639405906,-0.6041175571367606 l 20.862494644460963 23.64333553308343" fill="#c5ff1e" stroke="none" /><path d="M 86.10567301691215 84.25364557470407 l -41.383156721113515 -46.8992743413473 a83.54684319731253,83.54684319731253 0 0,0 1.0865314752700799,-0.9422293884952584 l 40.56973144719666 47.60466872326224" fill="#4cd7ff" stroke="none" /><path d="M 86.65592168130627 83.78471172551755 l -20.075052395622407 -24.394548199281154 a52.59274775219839,52.59274775219839 0 0,0 0.7039829834903559,-0.5692386139142905 l 19.65216601356755 24.73649291045958" fill="#c4ff1e" stroke="none" /><path d="M 87.22198572758235 83.33499621200491 l -19.203382125062177 -25.044927093818966 a52.55975694101374,52.55975694101374 0 0,0 0.7227062844877085,-0.544327390203572 l 18.76942968681608 25.371771073528393" fill="#c4ff1e" stroke="none" /><path d="M 87.80319425747018 82.90503203632743 l -18.190726541086775 -25.49601051457808 a52.320106708823246,52.320106708823246 0 0,0 0.7376359223877423,-0.5167611028389465 l 17.749159479115374 25.80535646018097" fill="#c8ff1d" stroke="none" /><path d="M 88.09926311788651 82.69761687909137 l -35.45210821230968 -51.54352749830367 a83.55867009188816,83.55867009188816 0 0,0 1.1920850143410657,-0.8049011230359406 l 34.55961850356208 52.146140533638274" fill="#4cd7ff" stroke="none" /><path d="M 88.39885842347998 82.49532879139004 l -17.37592186132468 -26.21809216987634 a52.453314889833024,52.453314889833024 0 0,0 0.7569087627875922,-0.4923145141040367 l 16.922046072752803 26.51330560813991" fill="#c6ff1e" stroke="none" /><line stroke="#e1ed5e" stroke-width="0.3" x1="56.762969772571076" x2="54.21961505331055" y1="26.818313649435495" y2="22.513508569990535" /><path d="M 56.25429882871897 25.957352633546506 a86.0,86.0 0 0,1 42.265352541879196,-11.944610805530505" fill="none" id="id96" stroke="none" /><text fill="#e1ed5e" style="font-size:6.75px; font-family:Arial;" text-anchor="middle"><textPath startOffset="22.20632615414155" xlink:href="#id96">December</textPath></text><path d="M 89.3179101791058 81.91981866633112 l -15.966774332523428 -27.02487809839701 a52.38920067187037,52.38920067187037 0 0,0 0.7803577692233855,-0.4520335885429265 l 15.499219830834724 27.295715844329983" fill="#c7ff1e" stroke="none" /><path d="M 89.94658935756843 81.56283822128135 l -14.988929016016169 -27.488513001909958 a52.30952475051872,52.30952475051872 0 0,0 0.7942452895453861,-0.42425832721888596 l 14.513538679942478 27.742450055630595" fill="#c8ff1d" stroke="none" /><path d="M 90.26544431104013 81.39251694778311 l -29.09459695373587 -55.61396298155719 a83.76470704475844,83.76470704475844 0 0,0 1.283353142945268,-0.6573833255230687 l 28.132983323201838 56.106538832392765" fill="#4dd5ff" stroke="none" /><path d="M 91.56875222667455 80.76684994638697 l -12.633126418583187 -28.818369781942646 a52.46576425254422,52.46576425254422 0 0,0 0.8302488390983367,-0.3554692239831034 l 12.135193821694543 29.031558533888536" fill="#c6ff1e" stroke="none" /><path d="M 92.23578459929587 80.48803036053334 l -11.62146779239275 -29.205491479621017 a52.432773441359544,52.432773441359544 0 0,0 0.8414632074045725,-0.32647465155768945 l 11.1170214199885 29.40120883506926" fill="#c6ff1e" stroke="none" /><path d="M 92.91201910852362 80.23233633223022 l -21.209527486674215 -59.15123253408838 a83.83878075289005,83.83878075289005 0 0,0 1.36265164896924,-0.4754024039588716 l 20.18819383364169 59.50755579121946" fill="#4dd4ff" stroke="none" /><path d="M 93.25333710446033 80.11325718540243 l -10.05080121925486 -29.626157705331277 a52.28462602509633,52.28462602509633 0 0,0 0.8547719165260547,-0.28180486182282805 l 9.539346480486396 29.79477629141334" fill="#c8ff1d" stroke="none" /><path d="M 93.94186890950719 79.89281104454417 l -9.087376206861347 -30.16137943720375 a52.50062246813556,52.50062246813556 0 0,0 0.8675347415263132,-0.2532571804205066 l 8.566851247611613 30.313334946542955" fill="#c5ff1e" stroke="none" /><path d="M 94.63758080256005 79.69619591428918 l -12.008777772526006 -45.46900610056927 a68.02809010967296,68.02809010967296 0 0,0 1.134744537388302,-0.28927164872135175 l 11.224324346452704 45.66898074545948" fill="#35ff66" stroke="none" /><path d="M 94.98787191387505 79.60689891045804 l -15.036384258374849 -61.17930326862588 a84.0,84.0 0 0,0 1.407105252149864,-0.3330163514365161 l 13.98105531926245 61.42906553220327" fill="#4dd2ff" stroke="none" /><path d="M 95.33964822691252 79.52364482259891 l -6.983482567038768 -30.68357848942795 a52.468254125086446,52.468254125086446 0 0,0 0.882359318820777,-0.19284957128249788 l 6.454280524064471 30.79924155880632" fill="#c5ff1e" stroke="none" /><path d="M 95.692805502759 79.44645832069477 l -3.2415670867982143 -15.468464279346689 a36.804465961861474,36.804465961861474 0 0,0 0.6211780485003393,-0.1246024727894909 l 2.9748226288307387 15.521970708213392" fill="#ff4806" stroke="none" /><path d="M 96.40284397218896 79.31037775812273 l -8.082032301710756 -46.48511045288179 a68.18246220729176,68.18246220729176 0 0,0 1.1580329963276277,-0.19108536680365565 l 7.280670099244243 46.61734208262507" fill="#35ff68" stroke="none" /><path d="M 97.11714578562143 79.19881850522333 l -6.479543123614772 -46.75302408470797 a68.19989131508744,68.19989131508744 0 0,0 1.1642217406582722,-0.15114939532513333 l 5.673806654448643 46.857631803197236" fill="#35ff68" stroke="none" /><path d="M 97.47563105711357 79.15227682838746 l -3.7792204979260373 -31.21102522167675 a52.43899812271515,52.43899812271515 0 0,0 0.8970397219176511,-0.1007928647704987 l 3.241414072498668 31.27145403991785" fill="#c6ff1e" stroke="none" /><path d="M 97.83486435360386 79.11191278185805 l -4.871908180758933 -47.001601570718584 a68.25342357474558,68.25342357474558 0 0,0 1.169652006410373,-0.11107255169722237 l 4.062131047258323 47.07849966693099" fill="#35ff69" stroke="none" /><path d="M 98.19473922651362 79.07773832637324 l -3.369386082129738 -39.04985823940094 a60.19495109178935,60.19495109178935 0 0,0 1.0330881392540645,-0.08018752258910232 l 2.6967077535133392 39.1020710241785" fill="#60ff29" stroke="none" /><path d="M 98.91598698831166 79.02799685794201 l -2.43245836450476 -47.05988204317409 a68.12270526627805,68.12270526627805 0 0,0 1.1715780728264946,-0.05045061629585678 l 1.6220394592889413 47.09478038599414" fill="#35ff67" stroke="none" /><path d="M 99.63851952072746 79.00311137660856 l -0.8125221135518818 -47.1960100214115 a68.20300365576523,68.20300365576523 0 0,0 1.1740025928244058,-0.010105010962285856 l 1.156140146743474e-14 47.20300365576523" fill="#35ff68" stroke="none" /></svg>