<?xml version="1.0" encoding="utf-8" ?>
<svg baseProfile="full" height="200mm" version="1.1" viewBox="0,0,200,200" width="200mm" xmlns="http://www.w3.org/2000/svg" xmlns:ev="http://www.w3.org/2001/xml-events" xmlns:xlink="http://www.w3.org/1999/xlink"><defs /><rect fill="#1a1a1a" height="200" width="200" x="0" y="0" /><text alignment-baseline="middle" fill="#e1ed5e" style="dominant-baseline: central; font-size:9.0px; font-family:Arial;" text-anchor="middle" x="100.0" y="100.0">2014</text><line stroke="#e1ed5e" stroke-width="0.3" x1="100.0" x2="100.0" y1="15.0" y2="10.0" /><path d="M 100.0 14.0 a86.0,86.0 0 0,1 42.46469731375804,11.215312516191453" fill="none" id="id1" stroke="none" /><text fill="#e1ed5e" style="font-size:6.75px; font-family:Arial;" text-anchor="middle"><textPath startOffset="22.20632615414155" xlink:href="#id1">January</textPath></text><line stroke="#e1ed5e" stroke-width="0.3" x1="143.23703022742887" x2="145.7803849466894" y1="26.81831364943548" y2="22.513508569990506" /><path d="M 143.74570117128098 25.957352633546492 a86.0,86.0 0 0,1 28.547481713284135,27.462654790039103" fill="none" id="id2" stroke="none" /><text fill="#e1ed5e" style="font-size:6.75px; font-family:Arial;" text-anchor="middle"><textPath startOffset="19.985693538727396" xlink:href="#id2">February</textPath></text><line stroke="#e1ed5e" stroke-width="0.3" x1="172.23445277983987" x2="176.4835382374775" y1="55.19839476539836" y2="52.563006222186495" /><path d="M 173.08426987136738 54.67131705675599 a86.0,86.0 0 0,1 12.851231095245387,41.99856678651699" fill="none" id="id3" stroke="none" /><text fill="#e1ed5e" style="font-size:6.75px; font-family:Arial;" text-anchor="middle"><textPath startOffset="22.20632615414155" xlink:href="#id3">March</textPath></text><line stroke="#e1ed5e" stroke-width="0.3" x1="184.98032266829074" x2="189.97916517819016" y1="98.17113171792111" y2="98.06355123074" /><path d="M 185.9800911702706 98.14961562048488 a86.0,86.0 0 0,1 -9.607161424134198,41.387399972396054" fill="none" id="id4" stroke="none" /><text fill="#e1ed5e" style="font-size:6.75px; font-family:Arial;" text-anchor="middle"><textPath startOffset="21.466115282336823" xlink:href="#id4">April</textPath></text><line stroke="#e1ed5e" stroke-width="0.3" x1="174.80103733775053" x2="179.2010983576182" y1="140.37084112569926" y2="142.7455964860345" /><path d="M 175.68104954172406 140.8457921977663 a86.0,86.0 0 0,1 -30.038265399797805,32.042727171017184" fill="none" id="id5" stroke="none" /><text fill="#e1ed5e" style="font-size:6.75px; font-family:Arial;" text-anchor="middle"><textPath startOffset="22.206326154141568" xlink:href="#id5">May</textPath></text><line stroke="#e1ed5e" stroke-width="0.3" x1="143.8653032363475" x2="146.44561519142675" y1="172.8068346515853" y2="177.08958963109032" /><path d="M 144.38136562736335 173.6633856474863 a86.0,86.0 0 0,1 -40.68145358897372,12.25698825130547" fill="none" id="id6" stroke="none" /><text fill="#e1ed5e" style="font-size:6.75px; font-family:Arial;" text-anchor="middle"><textPath startOffset="21.466115282336833" xlink:href="#id6">June</textPath></text><path d="M 108.2653958097858 119.30500536409082 l 5.339834963870093 12.471942662301048 a34.56698902531783,34.56698902531783 0 0,0 -0.5490036856753112,0.22948358513779735 l -5.124359818697321 -12.562011290458818" fill="#ff1402" stroke="none" /><path d="M 107.93186726928326 119.44442032107085 l 4.6936668504423595 11.506197467588857 a33.42670868195154,33.42670868195154 0 0,0 -0.5346346163598042,0.21274214745056555 l -4.494911158040689 -11.585286459445491" fill="#ff0000" stroke="none" /><path d="M 107.59598834532513 119.57807347666477 l 4.952290565245112 12.764146567422431 a34.69118765619906,34.69118765619906 0 0,0 -0.5585773154168795,0.2112061451297284 l -4.731843029067957 -12.84750096265879" fill="#ff1702" stroke="none" /><path d="M 107.2578585660854 119.70592522655815 l 4.734884928158073 12.855760070420503 a34.69998913397805,34.69998913397805 0 0,0 -0.5622727404120704,0.20161100000587268 l -4.512892627116268 -12.935358611466336" fill="#ff1702" stroke="none" /><path d="M 106.91757812671514 119.82793768551818 l 4.21877663250158 12.092330385877869 a33.80712811039878,33.80712811039878 0 0,0 -0.5511049140313427,0.18696470858543884 l -4.01000198553301 -12.16315808136143" fill="#ff0701" stroke="none" /><path d="M 106.2309692047433 120.05430185196036 l 4.398075172830022 14.155153746611964 a35.822666521786374,35.822666521786374 0 0,0 -0.5904343507367552,0.17789302647015112 l -4.1537658476530215 -14.228762142187842" fill="#ff2a04" stroke="none" /><path d="M 105.53697534728816 120.25689768951611 l 3.8806357698585914 14.197217222359983 a35.718026730413996,35.718026730413996 0 0,0 -0.5944662717235283,0.15700394538204934 l -3.6356790553235654 -14.261912517045616" fill="#ff2903" stroke="none" /><path d="M 105.18746579009965 120.34920634021253 l 4.238887733140372 16.62815806887704 a38.15994784309464,38.15994784309464 0 0,0 -0.6379011592708933,0.15678058489068822 l -3.9520332891262675 -16.698659912081755" fill="#ff5307" stroke="none" /><path d="M 104.48393922423573 120.51570834832081 l 3.1248576003486903 14.297398772106344 a35.634901662501356,35.634901662501356 0 0,0 -0.6003777371103539,0.1258149921748719 l -2.8782884018089585 -14.349069745007757" fill="#ff2703" stroke="none" /><path d="M 103.7750983002368 120.6578951692458 l 4.206749067526115 23.01995188703448 a44.40117353037053,44.40117353037053 0 0,0 -0.7530249343185454,0.13092303715885797 l -3.8098751617355195 -23.088953502714347" fill="#ffb911" stroke="none" /><path d="M 101.98527174616119 120.90594882070398 l 2.214397270954479 23.31876031822705 a44.42366619580571,44.42366619580571 0 0,0 -0.7618778955796389,0.06573803064560602 l -1.8126750576332984 -23.35342260115132" fill="#ffb911" stroke="none" /><line stroke="#e1ed5e" stroke-width="0.3" x1="102.19456741930631" x2="102.32365962044197" y1="184.97166512339345" y2="189.96999836594603" /><path d="M 102.22038585953345 185.97133177190398 a86.0,86.0 0 0,1 -42.740103519485714,-10.115201625700543" fill="none" id="id7" stroke="none" /><text fill="#e1ed5e" style="font-size:6.75px; font-family:Arial;" text-anchor="middle"><textPath startOffset="22.20632615414155" xlink:href="#id7">July</textPath></text><path d="M 100.18074693466247 120.99922214144158 l 0.2726144449720359 31.67241148307275 a52.6735847006411,52.6735847006411 0 0,0 -0.906722759268961,0.0 l 0.2726144449720141 -31.67241148307275" fill="#c9ff1d" stroke="none" /><path d="M 99.09653310690486 120.98055641714683 l -0.9477840471626092 22.00970154494962 a43.030098880799734,43.030098880799734 0 0,0 -0.7397323387293372,-0.03823571238844205 l 1.3265044543054354 -21.99012602579898" fill="#ffa30f" stroke="none" /><path d="M 97.65516085044442 120.86867818915974 l -5.39209996142817 47.988792271807704 a69.29077474736499,69.29077474736499 0 0,0 -1.18412185201679,-0.1433806657551292 l 6.217349236496349 -47.88886607732723" fill="#37ff74" stroke="none" /><path d="M 96.22490169976321 120.6578951692458 l -11.290134642717776 61.78128338573455 a83.80441160491145,83.80441160491145 0 0,0 -1.4168228648336778,-0.27153747411220597 l 12.351925122123149 -61.577788713273875" fill="#4dd4ff" stroke="none" /><path d="M 95.86986931433489 120.58985236759428 l -9.532298795994228 47.52116576226726 a69.46778224492013,69.46778224492013 0 0,0 -1.1703949768484183,-0.24526764693579992 l 10.348885234272032 -47.35004213460492" fill="#37ff77" stroke="none" /><path d="M 95.16358092515715 120.4354850818985 l -14.509257224528554 61.30645524569551 a84.0,84.0 0 0,0 -1.4041868610271577,-0.3451149667438802 l 15.562397370298923 -61.0476190206376" fill="#4dd2ff" stroke="none" /><path d="M 93.08242187328487 119.8279376855182 l -18.442973502393677 52.863317571922295 a76.9881560360752,76.9881560360752 0 0,0 -1.2475030267744205,-0.44731020136956906 l 19.350196089797823 -52.53801982951276" fill="#42ffda" stroke="none" /><path d="M 92.7421414339146 119.70592522655815 l -9.601923472342254 26.070332489155266 a48.78235358035423,48.78235358035423 0 0,0 -0.7854650689009046,-0.2969956794840588 l 10.049258762003442 -25.901188559564574" fill="#fffc17" stroke="none" /><line stroke="#e1ed5e" stroke-width="0.3" x1="58.666819895761336" x2="56.23545636021788" y1="174.27360380694188" y2="178.64263932499728" /><path d="M 58.180547188652646 175.14741091055294 a86.0,86.0 0 0,1 -31.652253787137756,-30.449443065178592" fill="none" id="id8" stroke="none" /><text fill="#e1ed5e" style="font-size:6.75px; font-family:Arial;" text-anchor="middle"><textPath startOffset="22.20632615414155" xlink:href="#id8">August</textPath></text><path d="M 89.7882731507175 118.34994917583269 l -6.509755926165136 11.697697378245003 a34.38704770183636,34.38704770183636 0 0,0 -0.5147433736672156,-0.2922847215450822 l 6.7101480667535585 -11.583909490905288" fill="#ff1101" stroke="none" /><path d="M 89.4739219176387 118.17145234162733 l -12.315908406544171 21.26128467813539 a45.57079213300011,45.57079213300011 0 0,0 -0.6753854597369848,-0.39902963424384896 l 12.680061737309538 -21.04613647159779" fill="#ffcb12" stroke="none" /><path d="M 89.1626897886671 117.98757091392108 l -7.242144713647439 12.020380432534461 a35.033467347604045,35.033467347604045 0 0,0 -0.5138588876930636,-0.3156540985313388 l 7.447982801272811 -11.893937867174746" fill="#ff1d02" stroke="none" /><path d="M 83.28015986056508 112.70617746262583 l -22.284122791820717 16.93473241553305 a48.98869933717266,48.98869933717266 0 0,0 -0.5044406805202639,-0.6757807260747534 l 22.572324739036066 -16.548638809948987" fill="#ffff18" stroke="none" /><path d="M 82.85270091963577 112.12312394758628 l -31.179278801566337 22.04372010636845 a59.18472237313919,59.18472237313919 0 0,0 -0.5809659514218987,-0.8369247835114043 l 31.55410566015037 -21.503754060670033" fill="#71ff27" stroke="none" /><line stroke="#e1ed5e" stroke-width="0.3" x1="26.63291911575756" x2="22.317208475507996" y1="142.92168965132927" y2="145.44649492493687" /><path d="M 25.769776987707644 143.4266507060508 a86.0,86.0 0 0,1 -11.730757126820373,-40.83630448921669" fill="none" id="id9" stroke="none" /><text fill="#e1ed5e" style="font-size:6.75px; font-family:Arial;" text-anchor="middle"><textPath startOffset="21.46611528233685" xlink:href="#id9">September</textPath></text><line stroke="#e1ed5e" stroke-width="0.3" x1="15.007084014347285" x2="10.007500721073583" y1="101.09737516637583" y2="101.16192664675087" /><path d="M 14.007167355692545 101.11028546245083 a86.0,86.0 0 0,1 10.666146001902534,-42.60595125391555" fill="none" id="id10" stroke="none" /><text fill="#e1ed5e" style="font-size:6.75px; font-family:Arial;" text-anchor="middle"><textPath startOffset="22.20632615414155" xlink:href="#id10">October</textPath></text><line stroke="#e1ed5e" stroke-width="0.3" x1="26.266209847984243" x2="21.928928074336255" y1="57.711370442889674" y2="55.22380399835377" /><path d="M 25.398753493254645 57.213857153982495 a86.0,86.0 0 0,1 29.58750427330803,-30.492523968695096" fill="none" id="id11" stroke="none" /><text fill="#e1ed5e" style="font-size:6.75px; font-family:Arial;" text-anchor="middle"><textPath startOffset="21.46611528233685" xlink:href="#id11">November</textPath></text><line stroke="#e1ed5e" stroke-width="0.3" x1="56.762969772571076" x2="54.21961505331055" y1="26.818313649435495" y2="22.513508569990535" /><path d="M 56.25429882871897 25.957352633546506 a86.0,86.0 0 0,1 42.265352541879196,-11.944610805530505" fill="none" id="id12" stroke="none" /><text fill="#e1ed5e" style="font-size:6.75px; font-family:Arial;" text-anchor="middle"><textPath startOffset="22.20632615414155" xlink:href="#id12">December</textPath></text></svg>