<?xml version="1.0" encoding="utf-8" ?>
<svg baseProfile="full" height="200mm" version="1.1" viewBox="0,0,200,200" width="200mm" xmlns="http://www.w3.org/2000/svg" xmlns:ev="http://www.w3.org/2001/xml-events" xmlns:xlink="http://www.w3.org/1999/xlink"><defs /><rect fill="#1a1a1a" height="200" width="200" x="0" y="0" /><text alignment-baseline="middle" fill="#e1ed5e" style="dominant-baseline: central; font-size:9.0px; font-family:Arial;" text-anchor="middle" x="100.0" y="100.0">2022</text><line stroke="#e1ed5e" stroke-width="0.3" x1="100.0" x2="100.0" y1="15.0" y2="10.0" /><path d="M 100.0 14.0 a86.0,86.0 0 0,1 42.46469731375804,11.215312516191453" fill="none" id="id97" stroke="none" /><text fill="#e1ed5e" style="font-size:6.75px; font-family:Arial;" text-anchor="middle"><textPath startOffset="22.20632615414155" xlink:href="#id97">January</textPath></text><path d="M 100.0 79.0 l 0.0 -28.494101791470115 a49.494101791470115,49.494101791470115 0 0,0 0.8519596017497106,0.0073330852655053205 l -0.49047912247718223 28.48988008281317" fill="#ffbc11" stroke="none" /><path d="M 100.36148047927253 79.00311137660856 l 0.7381602832169846 -42.87664242370611 a63.88299600230928,63.88299600230928 0 0,0 1.0993149151993957,0.028392060964683833 l -1.4761018336112481 42.85758357059907" fill="#5aff2a" stroke="none" /><path d="M 100.72285384407766 79.0124445844662 l 1.4774393832420827 -42.896418387938915 a63.921853846779015,63.921853846779015 0 0,0 1.099331596544453,0.04733953105264572 l -2.215611812175867 42.86463113036208" fill="#59ff2a" stroke="none" /><path d="M 101.44485096284872 79.0497635885617 l 1.966364230076093 -28.51214177126406 a49.57986733121733,49.57986733121733 0 0,0 0.850908123632585,0.06604684711054848 l -2.4568625430710194 28.474069661965046" fill="#ffbd11" stroke="none" /><path d="M 102.16513564639614 79.11191278185805 l 4.413138882397058 -42.57563725151364 a63.80374612306498,63.80374612306498 0 0,0 1.0914490499151057,0.12263701796482701 l -5.145354635821889 42.49336428007821" fill="#5bff2a" stroke="none" /><path d="M 102.52436894288641 79.15227682838746 l 5.1742788026069135 -42.73223705808595 a64.04436368580167,64.04436368580167 0 0,0 1.0932838620688978,0.14193962275348002 l -5.909077393183657 42.63683911216833" fill="#58ff2a" stroke="none" /><path d="M 102.88285421437855 79.19881850522331 l 3.957450964041199 -28.55491455277945 a49.827843541432756,49.827843541432756 0 0,0 0.8485705947030484,0.1250572474760831 l -4.4483905391729035 28.4825628211424" fill="#ffc212" stroke="none" /><path d="M 103.2404852339499 79.25152402106235 l 4.411363344679282 -28.245481705181902 a49.587888402548124,49.587888402548124 0 0,0 0.8422167391635097,0.1389729783534668 l -4.896909289981667 28.165362463888812" fill="#ffbe11" stroke="none" /><path d="M 103.95276090670814 79.375362276772 l 5.39032699289239 -28.125541630780866 a49.637418129347694,49.637418129347694 0 0,0 0.8377699205888719,0.16804876473990854 l -5.873663322948387 28.02858890996375" fill="#ffbf11" stroke="none" /><path d="M 105.36241919743992 79.69619591428918 l 10.978889642724868 -41.56952602492294 a63.99490099679121,63.99490099679121 0 0,0 1.0626265265000354,0.29045597064204953 l -11.692814058448613 41.3743835134546" fill="#58ff2a" stroke="none" /><path d="M 105.71112130821622 79.79150937346287 l 7.809360972274926 -27.632997005408377 a49.71530327710643,49.71530327710643 0 0,0 0.8215093602858329,0.23982110953734942 l -8.283860550284187 27.494477566952327" fill="#ffc011" stroke="none" /><path d="M 106.40334571778207 80.00007090966166 l 13.054067474344528 -40.77250164743772 a63.81127851647334,63.81127851647334 0 0,0 1.0432146690180326,0.34393147454934414 l -13.753964965604979 40.54175644862914" fill="#5bff2a" stroke="none" /><path d="M 107.08798089147638 80.2323363322302 l 9.61455466323838 -26.81402303536632 a49.48563660362103,49.48563660362103 0 0,0 0.7993525026830374,0.29440827275143505 l -10.074689491693993 26.644551494808557" fill="#ffbc11" stroke="none" /><path d="M 107.76421540070413 80.48803036053334 l 10.58462674949246 -26.599843657409817 a49.628412565574024,49.628412565574024 0 0,0 0.7910204863057135,0.3226771177056759 l -11.04093110538656 26.413705653520562" fill="#ffbe11" stroke="none" /><path d="M 108.09893153111575 80.62456947434976 l 11.081465094536682 -26.51067690061511 a49.73351454956811,49.73351454956811 0 0,0 0.7870121269996742,0.33695752029437914 l -11.53616097932667 26.31599985235794" fill="#ffc011" stroke="none" /><path d="M 109.41281617654863 81.2277094730956 l 12.386974556857732 -24.703752922535894 a48.63534959304734,48.63534959304734 0 0,0 0.7451387459055936,0.3816890069987541 l -12.810373790352081 24.48687139022464" fill="#ffac10" stroke="none" /><path d="M 109.73455568895987 81.39251694778311 l 19.893726405243807 -38.02661248841925 a63.91600642686942,63.91600642686942 0 0,0 0.970473107396934,0.5183931243593557 l -20.545344559169052 37.678540637558136" fill="#59ff2a" stroke="none" /><path d="M 110.05341064243156 81.56283822128135 l 13.716835833741953 -25.15559448963862 a49.65232136174946,49.65232136174946 0 0,0 0.7468558209443172,0.4156244557518721 l -14.147815743758306 24.915754636326568" fill="#ffbf11" stroke="none" /><path d="M 110.36928655335952 81.73862282372117 l 21.181898662218288 -37.303496126757366 a63.89782808273033,63.89782808273033 0 0,0 0.951783305364131,0.5513343238283847 l -21.820878700047746 36.93335764553893" fill="#5aff2a" stroke="none" /><line stroke="#e1ed5e" stroke-width="0.3" x1="143.23703022742887" x2="145.7803849466894" y1="26.81831364943548" y2="22.513508569990506" /><path d="M 143.74570117128098 25.957352633546492 a86.0,86.0 0 0,1 28.547481713284135,27.462654790039103" fill="none" id="id98" stroke="none" /><text fill="#e1ed5e" style="font-size:6.75px; font-family:Arial;" text-anchor="middle"><textPath startOffset="19.985693538727396" xlink:href="#id98">February</textPath></text><path d="M 110.68208982089419 81.91981866633111 l 14.535285970673295 -24.60198430202935 a49.57502703142292,49.57502703142292 0 0,0 0.7309670922483124,0.44039949423298946 l -14.956615129139244 24.348138198337747" fill="#ffbd11" stroke="none" /><path d="M 111.2981086023043 82.29822771554956 l 23.050189104410332 -36.11482355166715 a63.843805829047554,63.843805829047554 0 0,0 0.9212751602679615,0.59922299117407 l -23.66843129046257 35.712701636333556" fill="#5aff2a" stroke="none" /><path d="M 111.60114157652 82.49532879139004 l 15.889156138200335 -23.974748704419792 a49.7620211081243,49.7620211081243 0 0,0 0.7099270438493627,0.4793459090531275 l -16.29948787645624 23.69769088306799" fill="#ffc111" stroke="none" /><path d="M 111.90073688211348 82.69761687909136 l 16.261009839028635 -23.641747982060433 a49.694122893586496,49.694122893586496 0 0,0 0.7006134444997217,0.4908244911276929 l -16.665554423112006 23.358338648168804" fill="#ffc011" stroke="none" /><path d="M 112.19680574252982 82.90503203632743 l 33.36324131548973 -46.76171396776509 a78.44357026054942,78.44357026054942 0 0,0 1.0924375964108728,0.7937023729844509 l -34.16322422825439 46.180492359963964" fill="#43ffe2" stroke="none" /><path d="M 113.06298171725822 83.55741782278167 l 17.96719087401664 -22.615587990104963 a49.883988091008604,49.883988091008604 0 0,0 0.6677247389729484,0.5399203017730965 l -18.35381901155408 22.30296159106774" fill="#ffc312" stroke="none" /><path d="M 113.6212207817346 84.01681056812373 l 18.58045704112776 -21.802375086483668 a49.645714221658324,49.645714221658324 0 0,0 0.6456453535497819,0.559897288303408 l -18.952996193324307 21.47931280476059" fill="#ffbf11" stroke="none" /><path d="M 113.89432698308785 84.25364557470407 l 37.8091046815565 -42.84882337543737 a78.14499156951837,78.14499156951837 0 0,0 1.0009592431716396,0.8986710916073134 l -38.54107491232413 42.19165327506076" fill="#43ffde" stroke="none" /><path d="M 114.16331599549186 84.49514656593476 l 19.31832799906271 -21.148143860661232 a49.64335499606486,49.64335499606486 0 0,0 0.6259604297586513,0.5817619998285783 l -19.67949631261621 20.812477274758013" fill="#ffbf11" stroke="none" /><path d="M 114.42810811169701 84.74124197986012 l 19.856121519955042 -20.99927108571202 a49.900431622147835,49.900431622147835 0 0,0 0.6190427899305843,0.5955186734462624 l -20.214647553498043 20.654369325503456" fill="#ffc312" stroke="none" /><path d="M 114.94478906791727 85.2469230424477 l 20.475963979170224 -20.21329782521086 a49.772252429153866,49.772252429153866 0 0,0 0.5966406958289413,0.6148906832495385 l -20.820868938702276 19.857842946411207" fill="#ffc111" stroke="none" /><path d="M 115.4437574822437 85.77008943001954 l 21.035299148178076 -19.381968801019603 a49.60322577712239,49.60322577712239 0 0,0 0.5731684847989207,0.6329069566390096 l -21.365811273593035 19.017009057111043" fill="#ffbe11" stroke="none" /><path d="M 115.9244219780498 86.31012108654704 l 43.33584660405553 -37.25488394110906 a78.14824562797827,78.14824562797827 0 0,0 0.8681502990290059,1.027616125350119 l -43.97070751657166 36.50340886612983" fill="#43ffde" stroke="none" /><path d="M 116.15771136456269 86.58626213691792 l 22.00926944691528 -18.271558654424144 a49.605205771834264,49.605205771834264 0 0,0 0.5397554437963884,0.661676352692304 l -22.320523382788075 17.88999813212374" fill="#ffbe11" stroke="none" /><path d="M 116.60985879189232 87.15038557335679 l 22.74400484965961 -17.595073895419535 a49.75545829901888,49.75545829901888 0 0,0 0.5182245635795826,0.6819227800701909 l -23.043505353463306 17.200966339468312" fill="#ffc111" stroke="none" /><path d="M 117.04232023915458 87.72973835380427 l 23.398472422893708 -16.846613296854922 a49.832219673460564,49.832219673460564 0 0,0 0.495207398714852,0.7004357465357248 l -23.684992441412444 16.441351049987404" fill="#ffc212" stroke="none" /><path d="M 117.45458315368197 88.32363383020206 l 47.629729656728664 -31.86224266393508 a78.30439472456317,78.30439472456317 0 0,0 0.7398026371244993,1.1267701712821385 l -48.171128929211086 31.03765442867527" fill="#43ffe0" stroke="none" /><path d="M 117.65298651832404 88.62581576622439 l 15.733078534179922 -10.137147820651721 a39.71607667489148,39.71607667489148 0 0,0 0.3653357142366057,0.5778733643607639 l -15.905241844662484 9.864826808576751" fill="#ff0000" stroke="none" /><line stroke="#e1ed5e" stroke-width="0.3" x1="172.23445277983987" x2="176.4835382374775" y1="55.19839476539836" y2="52.563006222186495" /><path d="M 173.08426987136738 54.67131705675599 a86.0,86.0 0 0,1 12.851231095245387,41.99856678651699" fill="none" id="id99" stroke="none" /><text fill="#e1ed5e" style="font-size:6.75px; font-family:Arial;" text-anchor="middle"><textPath startOffset="22.20632615414155" xlink:href="#id99">March</textPath></text><path d="M 118.03404312379186 89.2402003453031 l 49.050430735678546 -29.26536240762399 a78.1174771169488,78.1174771169488 0 0,0 0.6790280810706949,1.160679100736262 l -49.54691849121957 28.416703894533832" fill="#43ffdd" stroke="none" /><path d="M 118.3937258080291 89.86733742301442 l 25.05626422190014 -13.802895261681329 a49.60657781634528,49.60657781634528 0 0,0 0.40557369697883133,0.751466464532268 l -25.290146018097435 13.369547813816602" fill="#ffbe11" stroke="none" /><path d="M 118.56541770881063 90.18545643968196 l 55.696253126431905 -29.44363068095414 a84.0,84.0 0 0,0 0.6647622673595346,1.2841091109586207 l -56.19482482695156 28.480548847735175" fill="#4dd2ff" stroke="none" /><path d="M 118.73160827565052 90.50648371742162 l 51.092059655867246 -25.894375598488082 a78.27929161149143,78.27929161149143 0 0,0 0.5987992566898273,1.207142762260766 l -51.53021892551048 25.01107324772837" fill="#43ffe0" stroke="none" /><path d="M 118.89224826269711 90.83032412892265 l 25.790500065206672 -12.517860387103665 a49.66786916191094,49.66786916191094 0 0,0 0.3666950544235244,0.7723533035140636 l -26.00215331347195 12.07206466794906" fill="#ffbf11" stroke="none" /><path d="M 119.196687751892 91.48605970444005 l 52.1602790916674 -23.13365241576276 a78.06014886953908,78.06014886953908 0 0,0 0.5341889801721966,1.232981816843964 l -52.550758781682276 22.232371454332192" fill="#43ffdc" stroke="none" /><path d="M 119.47837535516314 92.15188598940014 l 53.33824465619909 -21.490736139662655 a78.50495702832194,78.50495702832194 0 0,0 0.49423150882876643,1.2577652815615525 l -53.70026971490955 20.569421853205316" fill="#43ffe3" stroke="none" /><path d="M 119.61058180528143 92.48833698450437 l 53.5423010293883 -20.508913320392846 a78.33579619317257,78.33579619317257 0 0,0 0.47148977118518404,1.2633581768101516 l -53.8873953890751 19.584232006553364" fill="#43ffe0" stroke="none" /><path d="M 119.7369772167798 92.82701384747503 l 53.74368271863052 -19.532002681681618 a78.18288695858266,78.18288695858266 0 0,0 0.448795531250098,1.2688054023002215 l -54.071931330690425 18.603999652954784" fill="#43ffde" stroke="none" /><path d="M 119.85752413597 93.16781622104841 l 27.168175671027317 -9.347488027828746 a49.7312600093035,49.7312600093035 0 0,0 0.2715390884193565,0.8118673122263396 l -27.325052053218446 8.878447612680091" fill="#ffc011" stroke="none" /><path d="M 120.08093135843002 93.85539295169968 l 53.3989509872693 -16.339658990491714 a76.84292634225346,76.84292634225346 0 0,0 0.37614284174588025,1.268166671744096 l -53.67229972612688 15.418062932001089" fill="#41ffcb" stroke="none" /><path d="M 120.28053869075195 94.5502522615342 l 54.726196482268165 -14.70591930825175 a77.66763312612088,77.66763312612088 0 0,0 0.3358336182287317,1.2941039261900098 l -54.971226432367196 13.76171895651289" fill="#42ffd7" stroke="none" /><path d="M 120.37134235888165 94.90015583598534 l 55.12674968643273 -13.800653276384494 a77.82795581265961,77.82795581265961 0 0,0 0.31415513693637315,1.3023758601108455 l -55.35613762362993 12.849692184614243" fill="#42ffd9" stroke="none" /><path d="M 120.45610955862082 95.25157060432595 l 55.19713917995431 -12.812784243656452 a77.66472989193312,77.66472989193312 0 0,0 0.29107857973646534,1.304848198184737 l -55.40951214669282 11.86075787592175" fill="#42ffd7" stroke="none" /><path d="M 120.6074358757038 95.95851677861258 l 55.9928673440151 -10.98119316023254 a78.05951100935593,78.05951100935593 0 0,0 0.247241517463699,1.3207740725798378 l -56.173594585388656 10.015741010190139" fill="#43ffdc" stroke="none" /><path d="M 120.67395015179393 96.31383870115 l 55.33909326781005 -9.86694958725877 a77.2118487319256,77.2118487319256 0 0,0 0.22203237207157692,1.3104476284983826 l -55.50073750140185 8.91291617044455" fill="#41ffd0" stroke="none" /><path d="M 120.73433829027371 96.67025291283417 l 56.162265130145215 -9.019151520907661 a77.88185227913922,77.88185227913922 0 0,0 0.20117292829401584,1.325478244433957 l -56.309193951878534 8.051074164081621" fill="#42ffda" stroke="none" /><path d="M 120.78858239683441 97.02765380044208 l 55.83124706274721 -7.982737439990403 a77.39904472256018,77.39904472256018 0 0,0 0.17722170187438868,1.3205075269433357 l -55.96038476367943 7.0205115709824035" fill="#42ffd3" stroke="none" /><path d="M 120.87857604477298 97.74499172005257 l 56.526603834064026 -6.1052036982682285 a77.85534674250584,77.85534674250584 0 0,0 0.13243889364995445,1.3336415851795291 l -56.623319853396204 5.131286582384264" fill="#42ffda" stroke="none" /><path d="M 120.91429891909075 98.10471618934814 l 28.536087945679522 -2.5859812806546376 a49.653021034917984,49.653021034917984 0 0,0 0.06981100361797327,0.8518710689271838 l -28.57637343311699 2.094396294519685" fill="#ffbf11" stroke="none" /><line stroke="#e1ed5e" stroke-width="0.3" x1="184.98032266829074" x2="189.97916517819016" y1="98.17113171792111" y2="98.06355123074" /><path d="M 185.9800911702706 98.14961562048488 a86.0,86.0 0 0,1 -9.607161424134198,41.387399972396054" fill="none" id="id100" stroke="none" /><text fill="#e1ed5e" style="font-size:6.75px; font-family:Arial;" text-anchor="middle"><textPath startOffset="21.466115282336823" xlink:href="#id100">April</textPath></text><path d="M 120.13307415673323 105.97154293290107 l 27.347474344316126 8.111360236503119 a49.52505070809433,49.52505070809433 0 0,0 -0.24944878358059883,0.8152130577514216 l -27.203798788229395 -8.580900266806598" fill="#ffbc11" stroke="none" /><path d="M 120.02730092923936 106.31721596034902 l 40.91198637955847 12.904876909758624 a63.89902653414409,63.89902653414409 0 0,0 -0.3399055436372544,1.0461216958469899 l -40.68378858490497 -13.60719750558341" fill="#5aff2a" stroke="none" /><path d="M 119.9155931802556 106.66101706037122 l 30.407887400505302 10.170294949859656 a53.06360110045267,53.06360110045267 0 0,0 -0.2971793348849573,0.8637422537388268 l -30.228317234677114 -10.692209906687784" fill="#fffa17" stroke="none" /><path d="M 119.79798401119884 107.00284435728193 l 53.590353781414684 18.95571318628401 a77.84404173541716,77.84404173541716 0 0,0 -0.45770717045812415,1.2594135556930788 l -53.25612234995133 -19.87537453898322" fill="#42ffd9" stroke="none" /><path d="M 119.67450827220406 107.3425965602758 l 53.31913328756309 19.89889044532084 a77.91129778428709,77.91129778428709 0 0,0 -0.47973221370486013,1.25242942902002 l -52.968706794264726 -20.813743441174005" fill="#42ffda" stroke="none" /><path d="M 119.54520255179757 107.68017299344265 l 53.039020683056116 20.84137287240289 a77.9868453085814,77.9868453085814 0 0,0 -0.5017056630239278,1.245192311043431 l -52.67241240577479 -21.751264551289136" fill="#43ffdb" stroke="none" /><path d="M 119.26925614724726 108.34839909993367 l 52.15401730771859 22.595711418361258 a77.83843502275262,77.83843502275262 0 0,0 -0.5432341239595201,1.2248495399083068 l -51.7573420990278 -23.490109294762252" fill="#42ffd9" stroke="none" /><path d="M 119.12269723197855 108.67885076344098 l 52.09071517898189 23.64141092205737 a78.2045358187914,78.2045358187914 0 0,0 -0.5668912109466026,1.2210332353693145 l -51.67604935119546 -24.53456422470552" fill="#43ffde" stroke="none" /><path d="M 118.81262510543309 109.33194174019688 l 50.851703610315326 25.22482284219724 a77.76431491255393,77.76431491255393 0 0,0 -0.6051594183890018,1.1940369439703988 l -50.409965522140055 -26.096413997870336" fill="#42ffd8" stroke="none" /><path d="M 118.64920377521936 109.65438752849418 l 50.843958488561675 26.32108505262295 a78.25301418383135,78.25301418383135 0 0,0 -0.6295547842952464,1.1908803979716314 l -50.38335119604153 -27.192380465680717" fill="#43ffdf" stroke="none" /><line stroke="#e1ed5e" stroke-width="0.3" x1="174.80103733775053" x2="179.2010983576182" y1="140.37084112569926" y2="142.7455964860345" /><path d="M 175.68104954172406 140.8457921977663 a86.0,86.0 0 0,1 -30.038265399797805,32.042727171017184" fill="none" id="id101" stroke="none" /><text fill="#e1ed5e" style="font-size:6.75px; font-family:Arial;" text-anchor="middle"><textPath startOffset="22.206326154141568" xlink:href="#id101">May</textPath></text><path d="M 118.48025628344425 109.97397251340804 l 25.33695265613402 13.674597661948821 a49.7915923685258,49.7915923685258 0 0,0 -0.4135632533354802,0.750737432371149 l -25.09781299334703 -14.108705612717776" fill="#ffc112" stroke="none" /><path d="M 118.30583269289576 110.29060199501025 l 49.44096672900812 27.793180424631295 a77.71745824007803,77.71745824007803 0 0,0 -0.6655871299328017,1.1605072635439821 l -48.95522760292293 -28.640107534033593" fill="#42ffd8" stroke="none" /><path d="M 118.12598468904814 110.60418214915192 l 49.317652849695136 28.85213592300966 a78.13734881776426,78.13734881776426 0 0,0 -0.6891681582518313,1.1550854741084684 l -48.81370381574508 -29.696783491004233" fill="#43ffde" stroke="none" /><path d="M 117.75023020441432 111.22182372390056 l 48.12480494530594 30.42484923429418 a77.93565053596274,77.93565053596274 0 0,0 -0.7266391116422517,1.1277600378071007 l -47.59396097028664 -31.248730872022733" fill="#42ffdb" stroke="none" /><line stroke="#e1ed5e" stroke-width="0.3" x1="143.8653032363475" x2="146.44561519142675" y1="172.8068346515853" y2="177.08958963109032" /><path d="M 144.38136562736335 173.6633856474863 a86.0,86.0 0 0,1 -40.68145358897372,12.25698825130547" fill="none" id="id102" stroke="none" /><text fill="#e1ed5e" style="font-size:6.75px; font-family:Arial;" text-anchor="middle"><textPath startOffset="21.466115282336833" xlink:href="#id102">June</textPath></text><line stroke="#e1ed5e" stroke-width="0.3" x1="102.19456741930631" x2="102.32365962044197" y1="184.97166512339345" y2="189.96999836594603" /><path d="M 102.22038585953345 185.97133177190398 a86.0,86.0 0 0,1 -42.740103519485714,-10.115201625700543" fill="none" id="id103" stroke="none" /><text fill="#e1ed5e" style="font-size:6.75px; font-family:Arial;" text-anchor="middle"><textPath startOffset="22.20632615414155" xlink:href="#id103">July</textPath></text><line stroke="#e1ed5e" stroke-width="0.3" x1="58.666819895761336" x2="56.23545636021788" y1="174.27360380694188" y2="178.64263932499728" /><path d="M 58.180547188652646 175.14741091055294 a86.0,86.0 0 0,1 -31.652253787137756,-30.449443065178592" fill="none" id="id104" stroke="none" /><text fill="#e1ed5e" style="font-size:6.75px; font-family:Arial;" text-anchor="middle"><textPath startOffset="22.20632615414155" xlink:href="#id104">August</textPath></text><line stroke="#e1ed5e" stroke-width="0.3" x1="26.63291911575756" x2="22.317208475507996" y1="142.92168965132927" y2="145.44649492493687" /><path d="M 25.769776987707644 143.4266507060508 a86.0,86.0 0 0,1 -11.730757126820373,-40.83630448921669" fill="none" id="id105" stroke="none" /><text fill="#e1ed5e" style="font-size:6.75px; font-family:Arial;" text-anchor="middle"><textPath startOffset="21.46611528233685" xlink:href="#id105">September</textPath></text><line stroke="#e1ed5e" stroke-width="0.3" x1="15.007084014347285" x2="10.007500721073583" y1="101.09737516637583" y2="101.16192664675087" /><path d="M 14.007167355692545 101.11028546245083 a86.0,86.0 0 0,1 10.666146001902534,-42.60595125391555" fill="none" id="id106" stroke="none" /><text fill="#e1ed5e" style="font-size:6.75px; font-family:Arial;" text-anchor="middle"><textPath startOffset="22.20632615414155" xlink:href="#id106">October</textPath></text><line stroke="#e1ed5e" stroke-width="0.3" x1="26.266209847984243" x2="21.928928074336255" y1="57.711370442889674" y2="55.22380399835377" /><path d="M 25.398753493254645 57.213857153982495 a86.0,86.0 0 0,1 29.58750427330803,-30.492523968695096" fill="none" id="id107" stroke="none" /><text fill="#e1ed5e" style="font-size:6.75px; font-family:Arial;" text-anchor="middle"><textPath startOffset="21.46611528233685" xlink:href="#id107">November</textPath></text><line stroke="#e1ed5e" stroke-width="0.3" x1="56.762969772571076" x2="54.21961505331055" y1="26.818313649435495" y2="22.513508569990535" /><path d="M 56.25429882871897 25.957352633546506 a86.0,86.0 0 0,1 42.265352541879196,-11.944610805530505" fill="none" id="id108" stroke="none" /><text fill="#e1ed5e" style="font-size:6.75px; font-family:Arial;" text-anchor="middle"><textPath startOffset="22.20632615414155" xlink:href="#id108">December</textPath></text></svg>