<?xml version="1.0" encoding="utf-8" ?>
<svg baseProfile="full" height="200mm" version="1.1" viewBox="0,0,200,200" width="200mm" xmlns="http://www.w3.org/2000/svg" xmlns:ev="http://www.w3.org/2001/xml-events" xmlns:xlink="http://www.w3.org/1999/xlink"><defs /><rect fill="#1a1a1a" height="200" width="200" x="0" y="0" /><text alignment-baseline="middle" fill="#e1ed5e" style="dominant-baseline: central; font-size:9.0px; font-family:Arial;" text-anchor="middle" x="100.0" y="100.0">2022</text><line stroke="#e1ed5e" stroke-width="0.3" x1="100.0" x2="100.0" y1="15.0" y2="10.0" /><path d="M 100.0 14.0 a86.0,86.0 0 0,1 42.46469731375804,11.215312516191453" fill="none" id="id97" stroke="none" /><text fill="#e1ed5e" style="font-size:6.75px; font-family:Arial;" text-anchor="middle"><textPath startOffset="22.20632615414155" xlink:href="#id97">January</textPath></text><path d="M 100.0 79.0 l 0.0 -26.849516902087082 a47.84951690208708,47.84951690208708 0 0,0 0.8236507763202564,0.0070894222676188565 l -0.4621702970477281 26.84553885642802" fill="#ffc412" stroke="none" /><path d="M 100.36148047927253 79.00311137660856 l 0.6945892373128788 -40.345782666370624 a61.35176121522583,61.35176121522583 0 0,0 1.0557567803365315,0.02726708285019146 l -1.3889726528442783 40.327848791378074" fill="#6bff28" stroke="none" /><path d="M 100.72285384407766 79.0124445844662 l 1.3903841545305304 -40.3688307548857 a61.39276747901504,61.39276747901504 0 0,0 1.0558362285731615,0.045466529012864944 l -2.0850612154930235 40.33891649934864" fill="#6bff28" stroke="none" /><path d="M 101.44485096284872 79.0497635885617 l 1.8495470013105153 -26.81830024539301 a47.88200238379023,47.88200238379023 0 0,0 0.8217687339092269,0.0637850696465642 l -2.3109059245820833 26.78248991355798" fill="#ffc512" stroke="none" /><path d="M 102.16513564639614 79.11191278185805 l 4.1529775793488755 -40.06573816140294 a61.28039966525499,61.28039966525499 0 0,0 1.0482838086662418,0.11778690016326335 l -4.842028091524843 39.98831530776908" fill="#6cff28" stroke="none" /><path d="M 102.52436894288641 79.15227682838746 l 4.855215523427935 -40.09722487522152 a61.390104734613146,61.390104734613146 0 0,0 1.0479737315580742,0.13605706740372223 l -5.5447039834938545 40.00770948465367" fill="#6bff28" stroke="none" /><path d="M 102.88285421437855 79.19881850522331 l 3.716793250805316 -26.818453254747205 a48.074785078487565,48.074785078487565 0 0,0 0.8187159239663215,0.12065744506724951 l -4.177878155200293 26.750501325518986" fill="#ffc812" stroke="none" /><path d="M 103.2404852339499 79.25152402106235 l 4.145746952236419 -26.544768713043016 a47.86655846625922,47.86655846625922 0 0,0 0.8129811146457439,0.13414884980753825 l -4.602057273021038 26.469473600295853" fill="#ffc512" stroke="none" /><path d="M 103.95276090670814 79.375362276772 l 5.063519499948125 -26.420331954229702 a47.901174143483885,47.901174143483885 0 0,0 0.8084659591626424,0.162170665755163 l -5.517551868577892 26.32925733239733" fill="#ffc512" stroke="none" /><path d="M 105.36241919743992 79.69619591428918 l 10.31551417951977 -39.05777807231711 a61.397027870058075,61.397027870058075 0 0,0 1.019489200651424,0.27866490996569965 l -10.986301269394906 38.87442662152512" fill="#6bff28" stroke="none" /><path d="M 105.71112130821622 79.79150937346287 l 7.339890872596291 -25.971802715042593 a47.989044708746476,47.989044708746476 0 0,0 0.7929841883829922,0.23149382964719373 l -7.78586527870271 25.841610556476695" fill="#ffc712" stroke="none" /><path d="M 106.40334571778207 80.00007090966166 l 12.285921275623808 -38.37330751010343 a61.29211574062333,61.29211574062333 0 0,0 1.0020302949934239,0.3303536339501429 l -12.94463439285965 38.15614015189405" fill="#6cff28" stroke="none" /><path d="M 107.08798089147638 80.2323363322302 l 9.05531664724462 -25.254364624931064 a47.828747495752296,47.828747495752296 0 0,0 0.7725884041295144,0.28455082938265347 l -9.48868737714671 25.094750527742086" fill="#ffc412" stroke="none" /><path d="M 107.76421540070413 80.48803036053334 l 9.937557768593273 -24.973717943689852 a47.878274541627576,47.878274541627576 0 0,0 0.7631252754932573,0.31129796080824407 l -10.365966913674917 24.79895909669803" fill="#ffc512" stroke="none" /><path d="M 108.09893153111575 80.62456947434976 l 10.416286144398509 -24.91934000808657 a48.008749017320525,48.008749017320525 0 0,0 0.759718431743993,0.32527178438572696 l -10.843688333932818 24.736348695738055" fill="#ffc712" stroke="none" /><path d="M 109.41281617654863 81.2277094730956 l 11.627512204900972 -23.189132043112117 a46.94098851215987,46.94098851215987 0 0,0 0.719179559809721,0.36839170362019 l -12.02495225229945 22.985547814179426" fill="#ffb510" stroke="none" /><path d="M 109.73455568895987 81.39251694778311 l 18.6398979637941 -35.62993489776941 a61.21116831080567,61.21116831080567 0 0,0 0.9294040106518884,0.49645543519104257 l -19.2504470209743 35.30380073607662" fill="#6dff28" stroke="none" /><path d="M 110.05341064243156 81.56283822128135 l 12.915470031063835 -23.685952845284614 a47.978393731138894,47.978393731138894 0 0,0 0.7216770868897171,0.40161251751092414 l -13.321271207025587 23.46012493021351" fill="#ffc612" stroke="none" /><path d="M 110.36928655335952 81.73862282372117 l 19.855817674476302 -34.96813149401867 a61.212233408566426,61.212233408566426 0 0,0 0.9117803153949796,0.5281620100239122 l -20.45479472233661 34.621165326604704" fill="#6dff28" stroke="none" /><line stroke="#e1ed5e" stroke-width="0.3" x1="143.23703022742887" x2="145.7803849466894" y1="26.81831364943548" y2="22.513508569990506" /><path d="M 143.74570117128098 25.957352633546492 a86.0,86.0 0 0,1 28.547481713284135,27.462654790039103" fill="none" id="id98" stroke="none" /><text fill="#e1ed5e" style="font-size:6.75px; font-family:Arial;" text-anchor="middle"><textPath startOffset="19.985693538727396" xlink:href="#id98">February</textPath></text><path d="M 110.68208982089419 81.91981866633111 l 13.65919445740745 -23.119138371099993 a47.852712195369364,47.852712195369364 0 0,0 0.7055721395264871,0.4250993193641551 l -14.055128663151574 22.880592442277223" fill="#ffc412" stroke="none" /><path d="M 111.2981086023043 82.29822771554956 l 21.678226182830304 -33.96524470839371 a61.293713387264475,61.293713387264475 0 0,0 0.8844769651651733,0.575288421470827 l -22.259670173779757 33.58705736276335" fill="#6cff28" stroke="none" /><path d="M 111.60114157652 82.49532879139004 l 14.937944451292156 -22.539489275915376 a48.0401694012629,48.0401694012629 0 0,0 0.6853623444063265,0.462759714334734 l -15.323711490105024 22.279017649281972" fill="#ffc712" stroke="none" /><path d="M 111.90073688211348 82.69761687909136 l 15.270293529814555 -22.201353717742382 a47.94590824943575,47.94590824943575 0 0,0 0.6759662103351082,0.4735575284944112 l -15.650190879733316 21.935211346484035" fill="#ffc612" stroke="none" /><path d="M 112.19680574252982 82.90503203632743 l 31.275018787567774 -43.83487410744271 a74.84814749068039,74.84814749068039 0 0,0 1.0423662521853285,0.7573234119701975 l -32.02493035610689 43.29003146065584" fill="#3effb6" stroke="none" /><path d="M 113.06298171725822 83.55741782278167 l 16.87590286364936 -21.241966471078356 a48.129637613166636,48.129637613166636 0 0,0 0.6442417886373227,0.5209320557314183 l -17.239048050851178 20.948328318082808" fill="#ffc912" stroke="none" /><path d="M 113.6212207817346 84.01681056812373 l 17.459259584408844 -20.486757960204752 a47.91715060989526,47.91715060989526 0 0,0 0.6231652848923515,0.5404027942859594 l -17.80931866794796 20.18319017249912" fill="#ffc512" stroke="none" /><path d="M 113.89432698308785 84.25364557470407 l 35.48720975075932 -40.21743427950398 a74.63566048740903,74.63566048740903 0 0,0 0.9560082192680545,0.8583136185174982 l -36.17422895762337 39.60062165221719" fill="#3effb3" stroke="none" /><path d="M 114.16331599549186 84.49514656593476 l 18.12680322725846 -19.843758859594868 a47.87667689498643,47.87667689498643 0 0,0 0.6036841234235153,0.5610586008496372 l -18.465695234476822 19.52879567267059" fill="#ffc512" stroke="none" /><path d="M 114.42810811169701 84.74124197986012 l 18.61534390989295 -19.687059868401 a48.0944893870616,48.0944893870616 0 0,0 0.5966390654873459,0.5739663082823147 l -18.951466218992714 19.363710473356385" fill="#ffc812" stroke="none" /><path d="M 114.94478906791727 85.2469230424477 l 19.188361791105198 -18.942213028703698 a47.96294981360789,47.96294981360789 0 0,0 0.5749518326809243,0.5925384032706122 l -19.51157788748923 18.60911042988297" fill="#ffc612" stroke="none" /><path d="M 115.4437574822437 85.77008943001954 l 19.738542168934643 -18.18713419766301 a47.83993102224025,47.83993102224025 0 0,0 0.5527934997636569,0.6104083892679195 l -20.048679309314338 17.84467302112554" fill="#ffc412" stroke="none" /><path d="M 115.9244219780498 86.31012108654704 l 40.696059148834514 -34.98551613177564 a74.6670808713514,74.6670808713514 0 0,0 0.829477975675494,0.9818402923782581 l -41.29224773799713 34.27981688976828" fill="#3effb3" stroke="none" /><path d="M 116.15771136456269 86.58626213691792 l 20.724386310877993 -17.204880015189435 a47.93525727182816,47.93525727182816 0 0,0 0.5215846937770487,0.6394011617022604 l -21.01746949673145 16.845594683879074" fill="#ffc612" stroke="none" /><path d="M 116.60985879189232 87.15038557335679 l 21.328755351767803 -16.500217485545246 a47.966145106890174,47.966145106890174 0 0,0 0.4995880947418234,0.6573993716220219 l -21.60961938673374 16.13063333804219" fill="#ffc612" stroke="none" /><path d="M 117.04232023915458 87.72973835380427 l 21.9830502108538 -15.827526656195225 a48.08809880049705,48.08809880049705 0 0,0 0.4778752074898938,0.6759205912063435 l -22.252238038147578 15.446779564657088" fill="#ffc812" stroke="none" /><path d="M 117.45458315368197 88.32363383020206 l 44.74194875292707 -29.93044131674424 a74.8300408287475,74.8300408287475 0 0,0 0.7069777084155884,1.0767755528695533 l -45.25052309670058 29.15584769989701" fill="#3effb5" stroke="none" /><line stroke="#e1ed5e" stroke-width="0.3" x1="172.23445277983987" x2="176.4835382374775" y1="55.19839476539836" y2="52.563006222186495" /><path d="M 173.08426987136738 54.67131705675599 a86.0,86.0 0 0,1 12.851231095245387,41.99856678651699" fill="none" id="id99" stroke="none" /><text fill="#e1ed5e" style="font-size:6.75px; font-family:Arial;" text-anchor="middle"><textPath startOffset="22.20632615414155" xlink:href="#id99">March</textPath></text><path d="M 118.03404312379186 89.2402003453031 l 46.108849486060386 -27.51030256349241 a74.69211066872924,74.69211066872924 0 0,0 0.6492534379032464,1.109784583970704 l -46.57556259843396 26.712538567167808" fill="#3effb3" stroke="none" /><path d="M 118.3937258080291 89.86733742301442 l 23.515403321080598 -12.954071931975111 a47.84738670656557,47.84738670656557 0 0,0 0.39119089386092387,0.7248173147240108 l -23.734902314159985 12.54737363391864" fill="#ffc412" stroke="none" /><path d="M 118.56541770881063 90.18545643968196 l 52.42412944636105 -27.713833867518428 a80.29878528136332,80.29878528136332 0 0,0 0.6354714591649465,1.227528592603674 l -52.89341033868612 26.807332552654408" fill="#47fffe" stroke="none" /><path d="M 118.73160827565052 90.50648371742162 l 48.0087419670554 -24.331694687573044 a74.82258514442219,74.82258514442219 0 0,0 0.5723571003996428,1.1538369887020021 l -48.42045908040845 23.501698110372093" fill="#3effb5" stroke="none" /><path d="M 118.89224826269711 90.83032412892265 l 24.25286920990676 -11.771544948283854 a47.95868942256486,47.95868942256486 0 0,0 0.35407627757412946,0.7457749412799214 l -24.451903681322644 11.352327591363393" fill="#ffc612" stroke="none" /><path d="M 119.196687751892 91.48605970444005 l 48.98312390403017 -21.724549453476683 a74.5845357948926,74.5845357948926 0 0,0 0.510404318847485,1.178083539227477 l -49.34981893272034 20.878166769662602" fill="#3effb2" stroke="none" /><path d="M 119.47837535516314 92.15188598940014 l 50.08471054095327 -20.17984104660465 a74.99726117718662,74.99726117718662 0 0,0 0.4721486508967051,1.201566816816914 l -50.42465274173167 19.31472522489195" fill="#3effb8" stroke="none" /><path d="M 119.61058180528143 92.48833698450437 l 50.36099655348641 -19.290342274926612 a74.92909492049807,74.92909492049807 0 0,0 0.4509854183655779,1.2084167053764574 l -50.68558656035361 18.420602432520823" fill="#3effb7" stroke="none" /><path d="M 119.7369772167798 92.82701384747503 l 50.515410001286206 -18.358755368085998 a74.74802830116909,74.74802830116909 0 0,0 0.4290783108212904,1.2130621649985245 l -50.823941392917305 17.486495576660857" fill="#3effb4" stroke="none" /><path d="M 119.85752413597 93.16781622104841 l 25.516210990023577 -8.779112724861834 a47.98425176882307,47.98425176882307 0 0,0 0.2620001982928563,0.7833472448809561 l -25.663548482088206 8.338592377058564" fill="#ffc712" stroke="none" /><path d="M 120.08093135843002 93.85539295169968 l 51.90854300101049 -15.883605869560926 a75.2843050237111,75.2843050237111 0 0,0 0.36851345697530224,1.2424441790680407 l -52.1742623550975 14.987732303746355" fill="#3fffbc" stroke="none" /><path d="M 120.28053869075195 94.5502522615342 l 52.68373042539391 -14.157071718743717 a75.55270965942232,75.55270965942232 0 0,0 0.32668872258159815,1.2588649128238936 l -52.91961547984581 13.248110380370973" fill="#3fffbf" stroke="none" /><path d="M 120.37134235888165 94.90015583598534 l 52.68559275551406 -13.189524185906974 a75.31146501661044,75.31146501661044 0 0,0 0.3039972379863489,1.260264811057281 l -52.90482279376122 12.280674143190287" fill="#3fffbc" stroke="none" /><path d="M 120.45610955862082 95.25157060432595 l 52.9084540865087 -12.281517066776368 a75.31519285877312,75.31519285877312 0 0,0 0.28227278200045236,1.2653735335776104 l -53.11202125551119 11.368965363648794" fill="#3fffbc" stroke="none" /><path d="M 120.6074358757038 95.95851677861258 l 52.543657157374845 -10.304741942311711 a74.54459462886415,74.54459462886415 0 0,0 0.23610855943675668,1.261301365633425 l -52.713251440721464 9.398762499215723" fill="#3effb1" stroke="none" /><path d="M 120.67395015179393 96.31383870115 l 53.593518280801135 -9.555713905925055 a75.43874419902112,75.43874419902112 0 0,0 0.21693358721099806,1.2803543116255842 l -53.75006372953236 8.631773805983633" fill="#3fffbe" stroke="none" /><path d="M 120.73433829027371 96.67025291283417 l 53.77688013337696 -8.636080277757161 a75.46590419192047,75.46590419192047 0 0,0 0.1949324070802914,1.2843610067774507 l -53.917568433896555 7.709120158587628" fill="#3fffbe" stroke="none" /><path d="M 120.78858239683441 97.02765380044208 l 53.75097720225301 -7.685300986851764 a75.29761874572058,75.29761874572058 0 0,0 0.1724100367005676,1.2846550325142656 l -53.87530323801141 6.758927612272834" fill="#3fffbc" stroke="none" /><path d="M 120.87857604477298 97.74499172005257 l 54.0223161419175 -5.834725986136387 a75.33649481398828,75.33649481398828 0 0,0 0.1281541017038826,1.2904943150261916 l -54.11474736930361 4.903956140405761" fill="#3fffbc" stroke="none" /><path d="M 120.91429891909075 98.10471618934814 l 27.25228669793423 -2.4696413674517474 a48.363959120533565,48.363959120533565 0 0,0 0.06799861226507659,0.8297553038028878 l -27.290759794018804 2.000172146441091" fill="#ffcd13" stroke="none" /><line stroke="#e1ed5e" stroke-width="0.3" x1="184.98032266829074" x2="189.97916517819016" y1="98.17113171792111" y2="98.06355123074" /><path d="M 185.9800911702706 98.14961562048488 a86.0,86.0 0 0,1 -9.607161424134198,41.387399972396054" fill="none" id="id100" stroke="none" /><text fill="#e1ed5e" style="font-size:6.75px; font-family:Arial;" text-anchor="middle"><textPath startOffset="21.466115282336823" xlink:href="#id100">April</textPath></text><path d="M 120.13307415673323 105.97154293290107 l 26.219508793266506 7.776801556467981 a48.34851520300256,48.34851520300256 0 0,0 -0.24352278559799487,0.7958465534683232 l -26.081759235162377 -8.22697508248836" fill="#ffcd13" stroke="none" /><path d="M 120.02730092923936 106.31721596034902 l 39.1856161893709 12.360327578949828 a62.088808865670885,62.088808865670885 0 0,0 -0.33027624168888486,1.0164857517660033 l -38.967047696665766 -13.033012230693625" fill="#61ff29" stroke="none" /><path d="M 119.9155931802556 106.66101706037122 l 25.83022082040404 8.639237606462249 a48.23667993812289,48.23667993812289 0 0,0 -0.2701464688371411,0.7851720911997677 l -25.67768352062367 -9.082582400751317" fill="#ffcb12" stroke="none" /><path d="M 119.79798401119884 107.00284435728193 l 51.42515426964886 18.189849592557394 a75.54738417061853,75.54738417061853 0 0,0 -0.4442032899804361,1.2222566763043705 l -51.1044267186632 -19.072354065867895" fill="#3fffbf" stroke="none" /><path d="M 119.67450827220406 107.3425965602758 l 50.986179097114935 19.02822363235319 a75.42117008596861,75.42117008596861 0 0,0 -0.46439946342222993,1.212400456328194 l -50.6510853540992 -19.903047655514527" fill="#3fffbe" stroke="none" /><path d="M 119.54520255179757 107.68017299344265 l 50.86124349276382 19.985628066571753 a75.64697081124946,75.64697081124946 0 0,0 -0.4866527617117687,1.2078322444661036 l -50.509688116794656 -20.858159678880668" fill="#3fffc1" stroke="none" /><path d="M 119.26925614724726 108.34839909993367 l 49.85534598998054 21.599812800718507 a75.333299520706,75.333299520706 0 0,0 -0.5257507933985139,1.1854292449577102 l -49.476154111850754 -22.454790382168902" fill="#3fffbc" stroke="none" /><path d="M 119.12269723197855 108.67885076344098 l 49.65994693134001 22.538204893855664 a75.53513554636979,75.53513554636979 0 0,0 -0.547541188123877,1.1793550076680064 l -49.2646311263763 -23.3896799688025" fill="#3fffbf" stroke="none" /><path d="M 118.81262510543309 109.33194174019688 l 48.611884338450146 24.11376774826569 a75.26406816625669,75.26406816625669 0 0,0 -0.5857025779536472,1.1556467519205138 l -48.18960309071023 -24.946968711888896" fill="#3fffbb" stroke="none" /><path d="M 118.64920377521936 109.65438752849418 l 48.832793239425726 25.279937723598685 a75.98833464357264,75.98833464357264 0 0,0 -0.6113351686761458,1.1564157514617113 l -48.39040556252469 -26.11676849014653" fill="#40ffc5" stroke="none" /><line stroke="#e1ed5e" stroke-width="0.3" x1="174.80103733775053" x2="179.2010983576182" y1="140.37084112569926" y2="142.7455964860345" /><path d="M 175.68104954172406 140.8457921977663 a86.0,86.0 0 0,1 -30.038265399797805,32.042727171017184" fill="none" id="id101" stroke="none" /><text fill="#e1ed5e" style="font-size:6.75px; font-family:Arial;" text-anchor="middle"><textPath startOffset="22.206326154141568" xlink:href="#id101">May</textPath></text><path d="M 118.48025628344425 109.97397251340804 l 24.351028744649494 13.142485020076645 a48.67123982451247,48.67123982451247 0 0,0 -0.40425773364943546,0.733845211170071 l -24.12119460154855 -13.55970074964452" fill="#ffd213" stroke="none" /><path d="M 118.30583269289576 110.29060199501025 l 47.54790677192085 26.72899902966878 a75.54578652397737,75.54578652397737 0 0,0 -0.6469885193064664,1.1280790182354117 l -47.080766256462006 -27.543497893762506" fill="#3fffbf" stroke="none" /><path d="M 118.12598468904814 110.60418214915192 l 47.202577580545835 27.6147607515092 a75.6869119772779,75.6869119772779 0 0,0 -0.667555407501751,1.1188612606882333 l -46.72024129734586 -28.423184106083536" fill="#3fffc1" stroke="none" /><path d="M 117.75023020441432 111.22182372390056 l 46.058860725181525 29.118744378488884 a75.49146653817868,75.49146653817868 0 0,0 -0.7038505716528347,1.0923917176764242 l -45.550805290151644 -29.907257696086763" fill="#3fffbf" stroke="none" /><path d="M 117.55443506779139 111.5257021239791 l 45.63405230046476 29.96191512253629 a75.59105317880963,75.59105317880963 0 0,0 -0.7235031879844657,1.0815390998351473 l -45.11154600706957 -30.742991136577242" fill="#3fffc0" stroke="none" /><path d="M 117.35343817320211 111.8261652097733 l 44.92011381562224 30.612532336428856 a75.3593944158446,75.3593944158446 0 0,0 -0.7397389143663327,1.0656490784799895 l -44.38651399409377 -31.381222677095867" fill="#3fffbd" stroke="none" /><path d="M 117.14729908036423 112.12312394758627 l 44.57306311045508 31.51311272283203 a75.58785788552734,75.58785788552734 0 0,0 -0.7602706207840245,1.0559493971214018 l -44.024012697295454 -32.27569572540456" fill="#3fffc0" stroke="none" /><path d="M 116.93607887273984 112.41649034213515 l 44.00210870767992 32.25963706876042 a75.56069789262801,75.56069789262801 0 0,0 -0.778054742854129,1.042331475941999 l -43.440292698130705 -33.012281424211736" fill="#3fffc0" stroke="none" /><path d="M 116.71984013943494 112.70617746262583 l 43.46954913232594 33.03451473755135 a75.59744376537418,75.59744376537418 0 0,0 -0.7962685331733906,1.029284417205065 l -42.89447378193448 -33.77787714886966" fill="#3fffc0" stroke="none" /><path d="M 116.498646956653 112.99209946851258 l 21.29891517194679 16.772140479905183 a48.1099333045926,48.1099333045926 0 0,0 -0.5179425796382865,0.646213005411063 l -21.00705468025365 -17.136281318894497" fill="#ffc912" stroke="none" /><path d="M 116.27256486870786 113.27417163493432 l 42.28316604638961 34.49204276625949 a75.56708847919255,75.56708847919255 0 0,0 -0.8308925241068615,1.0008635711035758 l -41.6831775223892 -35.21476759447683" fill="#3fffc0" stroke="none" /><path d="M 116.0416608686014 113.55231037782055 l 41.64534437601992 35.18280540886739 a75.51756143331727,75.51756143331727 0 0,0 -0.8474418576528615,0.9857663335404023 l -41.033560008796286 -35.894448841569314" fill="#3fffbf" stroke="none" /><path d="M 115.80600337817218 113.82643327865902 l 40.92373207468985 35.79837594023408 a75.37164304009333,75.37164304009333 0 0,0 -0.862614637721469,0.9691566899950592 l -40.30145858732005 -36.49750679997001" fill="#3fffbd" stroke="none" /><path d="M 115.56566222782051 114.09645910891815 l 40.322774382727495 36.51681065186769 a75.4004006796338,75.4004006796338 0 0,0 -0.8795047135732431,0.9545286622932014 l -39.68822326115853 -37.205490568962226" fill="#3fffbd" stroke="none" /><path d="M 115.32070863581623 114.36230785411682 l 39.894141542217106 37.39852744575786 a75.68265158623488,75.68265158623488 0 0,0 -0.899158368811144,0.9427639549106988 l -39.244476622026994 -38.07969851725106" fill="#3fffc1" stroke="none" /><path d="M 115.07121518719521 114.62390073753431 l 39.86210864958025 38.678999194142385 a76.54325057692796,76.54325057692796 0 0,0 -0.9256607653682923,0.9376894682159377 l -39.19040725915642 -39.35942915633899" fill="#41ffcd" stroke="none" /><path d="M 114.81725581225074 114.88116024355365 l 19.461245987576145 19.545179198491887 a48.581771612608726,48.581771612608726 0 0,0 -0.5976715718945597,0.5849474262898681 l -19.121924463305792 -19.877276727704327" fill="#ffd113" stroke="none" /><path d="M 114.55890576462653 115.13401014063108 l 37.77717236417688 39.269442284111584 a75.49040144041793,75.49040144041793 0 0,0 -0.9442201574214452,0.8928190940926483 l -37.095616372364624 -39.913896014950154" fill="#3fffbf" stroke="none" /><path d="M 114.0293411484842 115.62618273729858 l 36.506243381075855 40.661441195805715 a75.64484061572794,75.64484061572794 0 0,0 -0.9763863100978765,0.8615473961717034 l -35.80091471807139 -41.28381173374971" fill="#3fffc1" stroke="none" /><path d="M 113.75828350139079 115.86535959552629 l 35.820104371219166 41.30594027526959 a75.6741308041488,75.6741308041488 0 0,0 -0.9914555197259842,0.8449399030786321 l -35.103783374916134 -41.916404568571174" fill="#3fffc1" stroke="none" /><path d="M 113.48314897796784 116.09983520530334 l 34.96564546537086 41.75145811704727 a75.45898105647555,75.45898105647555 0 0,0 -1.0029931277353623,0.8253950607017212 l -34.241782209090815 -42.34714829660617" fill="#3fffbe" stroke="none" /><path d="M 113.20401910651253 116.32954008644616 l 34.82073255613923 43.06314187582828 a76.37975807065149,76.37975807065149 0 0,0 -1.0294627728552064,0.8178674879325138 l -34.07431229056667 -43.65614327776591" fill="#41ffcb" stroke="none" /><path d="M 112.92097659922987 116.55440617244103 l 33.60672844944118 43.057073016612215 a75.6198108183501,75.6198108183501 0 0,0 -1.033007203835312,0.7920658742139974 l -32.86059251711237 -43.62917823265359" fill="#3fffc0" stroke="none" /><path d="M 112.63410532772338 116.77436683061366 l 16.818774251857853 22.330373352426484 a48.95562092663505,48.95562092663505 0 0,0 -0.6774875820843618,0.5011891167854146 l -16.431901699354928 -22.61657241795167" fill="#ffd714" stroke="none" /><path d="M 112.34349029814194 116.9893568818739 l 32.25434493472076 44.39429722479061 a75.87436918317147,75.87436918317147 0 0,0 -1.0632263508243862,0.7585837709027137 l -31.48539125604749 -44.942925257537546" fill="#40ffc4" stroke="none" /><path d="M 112.04921762599082 117.19931262002967 l 31.58317102528435 45.08249820502847 a76.04478482489287,76.04478482489287 0 0,0 -1.0785436009727896,0.7418321234347058 l -30.802470539688677 -45.61947111782827" fill="#40ffc6" stroke="none" /><path d="M 111.7513745106137 117.40417183066458 l 30.127480981031205 44.61978939956044 a74.83856161083358,74.83856161083358 0 0,0 -1.073845339202485,0.7116861358267978 l -29.354960943088756 -45.13177355647856" fill="#3effb5" stroke="none" /><path d="M 111.45004920935366 117.60387380957326 l 29.367737099232375 45.15141625289072 a74.86199376157026,74.86199376157026 0 0,0 -1.086276754009506,0.6933132198146404 l -28.58617854317594 -45.65024390152917" fill="#3effb6" stroke="none" /><path d="M 111.1453310114006 117.79835938074945 l 14.5005468062003 23.156417966423298 a48.32188775898359,48.32188775898359 0 0,0 -0.7087688823001573,0.43538373660115776 l -14.099798723967833 -23.402590169852836" fill="#ffcc13" stroke="none" /><line stroke="#e1ed5e" stroke-width="0.3" x1="143.8653032363475" x2="146.44561519142675" y1="172.8068346515853" y2="177.08958963109032" /><path d="M 144.38136562736335 173.6633856474863 a86.0,86.0 0 0,1 -40.68145358897372,12.25698825130547" fill="none" id="id102" stroke="none" /><text fill="#e1ed5e" style="font-size:6.75px; font-family:Arial;" text-anchor="middle"><textPath startOffset="21.466115282336833" xlink:href="#id102">June</textPath></text><path d="M 110.8373102113329 117.98757091392108 l 27.758772616475262 46.07350728044237 a74.78956711383866,74.78956711383866 0 0,0 -1.1084245808431288,0.6548767799250044 l -26.961580164603753 -46.54450263266113" fill="#3effb5" stroke="none" /><path d="M 110.5260780823613 118.17145234162733 l 27.025377812809175 46.6546382325305 a74.91684629624933,74.91684629624933 0 0,0 -1.1214382386476656,0.6367818996443295 l -26.21829080724031 -47.11292329796946" fill="#3effb7" stroke="none" /><path d="M 110.21172684928248 118.3499491758327 l 26.253768873285292 47.176675562242764 a74.98980549286131,74.98980549286131 0 0,0 -1.133335885992442,0.6179850887264838 l -25.4378101754242 -47.62160130272902" fill="#3effb8" stroke="none" /><path d="M 109.89434966115114 118.52300852407294 l 12.68402783761954 23.745507668714293 a47.92087845205793,47.92087845205793 0 0,0 -0.7309282536721989,0.38238711651861657 l -12.273408681420847 -23.960324204177628" fill="#ffc512" stroke="none" /><path d="M 109.2508944713604 118.85261126421891 l 23.70399483378708 48.30691793036144 a74.8092714224127,74.8092714224127 0 0,0 -1.1609235177474528,0.5573138377247687 l -22.868958648039392 -48.707786044585774" fill="#3effb5" stroke="none" /><path d="M 108.59647513512805 119.15986991738527 l 21.820915949855248 48.63457457917681 a74.30548018157381,74.30548018157381 0 0,0 -1.1714765832260525,0.5135409075629891 l -20.98051869197144 -49.00298004003425" fill="#3dffae" stroke="none" /><path d="M 107.93186726928326 119.44442032107085 l 10.085960708452344 24.725030399389706 a47.70306595998275,47.70306595998275 0 0,0 -0.7629740221020421,0.30360310938367296 l -9.658865610308435 -24.894980353179445" fill="#ffc212" stroke="none" /><path d="M 107.59598834532513 119.57807347666477 l 19.296927154446532 49.73633983207899 a74.34861664088454,74.34861664088454 0 0,0 -1.1971181586457738,0.4526476542708739 l -18.437938775040486 -50.0611357364565" fill="#3dffaf" stroke="none" /><path d="M 107.2578585660854 119.70592522655815 l 18.424318671728784 50.024155581084976 a74.30920802373647,74.30920802373647 0 0,0 -1.2040938074082612,0.43174519973091485 l -17.56050530369079 -50.33388832185585" fill="#3dffae" stroke="none" /><path d="M 106.91757812671514 119.82793768551818 l 8.79446216743548 25.207673066984444 a47.69774047117896,47.69774047117896 0 0,0 -0.7775419158947395,0.26378443381101135 l -8.359250518603513 -25.35532048769358" fill="#ffc212" stroke="none" /><path d="M 105.53697534728816 120.25689768951611 l 7.038992066531973 25.751991509026517 a47.6966753734182,47.6966753734182 0 0,0 -0.7938306613870072,0.20965789268691473 l -6.594670962333469 -25.869340751017017" fill="#ffc212" stroke="none" /><path d="M 105.18746579009965 120.34920634021253 l 13.16855680573519 51.657146376586994 a74.30920802373647,74.30920802373647 0 0,0 -1.2421906376221956,0.3053002363794749 l -12.277412883369783 -51.876167871280494" fill="#3dffae" stroke="none" /><path d="M 104.83641907484287 120.43548508189849 l 12.282318844442838 51.89689719451931 a74.33050997895165,74.33050997895165 0 0,0 -1.247619383473012,0.2839541097784774 l -11.387179311576963 -52.100628037875474" fill="#3dffae" stroke="none" /><path d="M 104.48393922423573 120.51570834832081 l 11.38535994638568 52.092303757867015 a74.32198919686557,74.32198919686557 0 0,0 -1.252178780066884,0.26240623806924757 l -10.486989704889417 -52.2805659766628" fill="#3dffae" stroke="none" /><path d="M 103.7750983002368 120.6578951692458 l 4.783469725094021 26.175852459273603 a47.60933735703599,47.60933735703599 0 0,0 -0.807434022249644,0.14038275451526816 l -4.332186731372326 -26.25431379230988" fill="#ffc011" stroke="none" /><path d="M 103.06178313531738 120.77559828337769 l 7.75784242086832 52.64050736401995 a74.20908883422514,74.20908883422514 0 0,0 -1.2653406183625069,0.17536467989507035 l -6.850573211318983 -52.766246609407624" fill="#3dffad" stroke="none" /><path d="M 102.70371172650421 120.8252237178851 l 6.867234432873024 52.894578954485254 a74.33849821215733,74.33849821215733 0 0,0 -1.2703832580898695,0.15382572072194012 l -5.9557237517317745 -53.004950203932545" fill="#3dffae" stroke="none" /><path d="M 102.34483914955558 120.86867818915974 l 5.953583052079606 52.985898333296035 a74.31932645246368,74.31932645246368 0 0,0 -1.272514630215853,0.13190134442028484 l -5.04063582525815 -53.08052904617208" fill="#3dffae" stroke="none" /><path d="M 101.98527174616119 120.90594882070398 l 5.041290315981656 53.087421175471604 a74.32624958790859,74.32624958790859 0 0,0 -1.2747152919069369,0.10998779910794976 l -4.126730706333177 -53.16633322685822" fill="#3dffae" stroke="none" /><path d="M 101.26447882468166 120.96189622390904 l 1.6040311355521044 26.590824256647416 a47.63916009433723,47.63916009433723 0 0,0 -0.8189669145150554,0.04233123490698728 l -1.1460761526235694 -26.614495298316605" fill="#ffc111" stroke="none" /><line stroke="#e1ed5e" stroke-width="0.3" x1="102.19456741930631" x2="102.32365962044197" y1="184.97166512339345" y2="189.96999836594603" /><path d="M 102.22038585953345 185.97133177190398 a86.0,86.0 0 0,1 -42.740103519485714,-10.115201625700543" fill="none" id="id103" stroke="none" /><text fill="#e1ed5e" style="font-size:6.75px; font-family:Arial;" text-anchor="middle"><textPath startOffset="22.20632615414155" xlink:href="#id103">July</textPath></text><path d="M 100.54218724476979 120.99299961872073 l 1.376319352172335 53.289840205775036 a74.30761037709533,74.30761037709533 0 0,0 -1.278941225620578,0.02201813304299177 l -0.45881843665908884 -53.30563581609719" fill="#3dffae" stroke="none" /><path d="M 99.81925306533755 120.99922214144158 l -0.26274837155822584 30.526168711836675 a51.52729946998707,51.52729946998707 0 0,0 -0.8868591952107377,-0.015268085318835188 l 0.7881672566616315 -30.51712314923868" fill="#fdff18" stroke="none" /><path d="M 97.65516085044442 120.86867818915974 l -2.979199813148487 26.514382521114104 a47.68123145588721,47.68123145588721 0 0,0 -0.8148326859360665,-0.0986648906018979 l 3.4351599221359432 -26.459172101786855" fill="#ffc112" stroke="none" /><path d="M 94.11515582081647 120.15858648285463 l -8.524390726421112 29.200376839212257 a51.41919204727006,51.41919204727006 0 0,0 -0.8474985315058694,-0.25534435540625566 l 9.025764232367228 -29.049317114700276" fill="#ffff18" stroke="none" /><path d="M 93.08242187328487 119.8279376855182 l -8.780077225726982 25.166441334927235 a47.65407146298786,47.65407146298786 0 0,0 -0.7721784940575197,-0.2768757351741297 l 9.21197528041423 -25.011578058713148" fill="#ffc111" stroke="none" /><path d="M 92.40401165467489 119.57807347666478 l -15.421206679008636 39.74696954956194 a63.633733167651464,63.633733167651464 0 0,0 -1.0177728487519189,-0.4049928209561411 l 16.103100603802414 -39.47562988419973" fill="#4dff2c" stroke="none" /><path d="M 92.06813273071674 119.44442032107085 l -6.032628287806513 14.788568200472596 a36.97167347145792,36.97167347145792 0 0,0 -0.587195632993893,-0.24544782221442402 l 6.286295380297869 -14.6825353352382" fill="#ff0000" stroke="none" /><path d="M 91.7346041902142 119.30500536409082 l -11.519739515380962 26.9059871124456 a50.26835391677022,50.26835391677022 0 0,0 -0.7925148905157177,-0.3474152381363342 l 11.981175080554424 -26.703707321014814" fill="#ffec16" stroke="none" /><path d="M 90.42595943632237 118.69057910512821 l -19.941041756294762 38.92918730663127 a64.73930464331906,64.73930464331906 0 0,0 -0.9874565829220847,-0.51659061410457 l 20.608189241743343 -38.58016727358198" fill="#3eff2d" stroke="none" /><path d="M 90.10565033884886 118.52300852407294 l -20.108365628906043 37.64445776682486 a63.67846727360333,63.67846727360333 0 0,0 -0.9623853756100486,-0.5247692401574702 l 20.753373816384734 -37.292747874907626" fill="#4cff2c" stroke="none" /><line stroke="#e1ed5e" stroke-width="0.3" x1="58.666819895761336" x2="56.23545636021788" y1="174.27360380694188" y2="178.64263932499728" /><path d="M 58.180547188652646 175.14741091055294 a86.0,86.0 0 0,1 -31.652253787137756,-30.449443065178592" fill="none" id="id104" stroke="none" /><text fill="#e1ed5e" style="font-size:6.75px; font-family:Arial;" text-anchor="middle"><textPath startOffset="22.20632615414155" xlink:href="#id104">August</textPath></text><path d="M 89.7882731507175 118.34994917583269 l -12.998438299720677 23.357526663752346 a47.73075850176248,47.73075850176248 0 0,0 -0.7144867995626241,-0.4057042517516906 l 13.398573866204508 -23.13031924620602" fill="#ffc212" stroke="none" /><path d="M 89.1626897886671 117.98757091392108 l -20.82320188908456 34.561972789439615 a61.35016356858469,61.35016356858469 0 0,0 -0.8998631650799611,-0.552769452816271 l 21.415044254096834 -34.198414869794966" fill="#6bff28" stroke="none" /><path d="M 88.54995079064634 117.60387380957326 l -15.149036780118166 23.29088084581584 a48.784140187152886,48.784140187152886 0 0,0 -0.6999950351717038,-0.4639185397491891 l 15.547706514029832 -23.02666428497533" fill="#ffd413" stroke="none" /><path d="M 88.24862548938628 117.40417183066458 l -20.922888266570585 30.98748510281057 a58.38972434255572,58.38972434255572 0 0,0 -0.8281417811522599,-0.569603468476443 l 21.453186932345737 -30.622740844969027" fill="#95ff23" stroke="none" /><path d="M 87.95078237400918 117.19931262002967 l -19.33319931057909 27.596624877181497 a54.69490021048361,54.69490021048361 0 0,0 -0.7664387827608328,-0.5468337212880406 l 19.80536542118881 -27.259746894049236" fill="#ccff1d" stroke="none" /><path d="M 87.65650970185807 116.9893568818739 l -16.446926869499492 22.637252790490663 a48.98118327289326,48.98118327289326 0 0,0 -0.677841334561219,-0.5014508144107717 l 16.834153174479276 -22.350792027340127" fill="#ffd714" stroke="none" /><path d="M 86.51685102203217 116.09983520530335 l -27.39438870531857 32.710841097012484 a63.666751198234984,63.666751198234984 0 0,0 -0.8341391070863569,-0.7108714433204658 l 27.95339328898198 -32.23444526346907" fill="#4cff2c" stroke="none" /><path d="M 86.24171649860922 115.8653595955263 l -21.85213029634078 25.19877607149868 a54.35406892704081,54.35406892704081 0 0,0 -0.7015755253960397,-0.6190588303743848 l 22.282648174643406 -24.818894099352008" fill="#d1ff1c" stroke="none" /><path d="M 85.97065885151581 115.62618273729859 l -22.314312297642292 24.854162282437738 a54.40146577739457,54.40146577739457 0 0,0 -0.6914178916976238,-0.6315938507057922 l 22.73882973880677 -24.466375665145367" fill="#d0ff1d" stroke="none" /><path d="M 85.70375840098266 115.38237550388516 l -18.208465956661847 19.591824799206965 a47.74673496817386,47.74673496817386 0 0,0 -0.5972074429037233,-0.5646969130745843 l 18.543009233956386 -19.275493249386447" fill="#ffc312" stroke="none" /><path d="M 85.18274418774928 114.88116024355367 l -22.610096029588178 22.70760972218981 a53.044531230187914,53.044531230187914 0 0,0 -0.6414836188305127,-0.6498195191097785 l 22.997620273474226 -22.31504970909937" fill="#e5ff1a" stroke="none" /><path d="M 84.67929136418377 114.36230785411682 l -19.478315287906348 18.259831662777188 a47.69880556893972,47.69880556893972 0 0,0 -0.5563806551631005,-0.6038413146655849 l 19.78974235106518 -17.921839093310258" fill="#ffc212" stroke="none" /><path d="M 84.19399662182784 113.82643327865904 l -20.156632563541795 17.632182443230967 a47.78028554763776,47.78028554763776 0 0,0 -0.536180104007043,-0.6236985941528034 l 20.457155177119617 -17.28260674991663" fill="#ffc312" stroke="none" /><path d="M 83.50135304334701 112.99209946851258 l -21.380502577331793 16.836387668715584 a48.21378033626658,48.21378033626658 0 0,0 -0.5078361679298911,-0.6564467040537312 l 21.667145562479753 -16.4658629705486" fill="#ffca12" stroke="none" /><path d="M 83.06392112726016 112.41649034213515 l -21.947797594774705 16.090773957441485 a48.21431288514695,48.21431288514695 0 0,0 -0.4849446275270554,-0.6735456731793473 l 22.22152201467737 -15.710594678810999" fill="#ffca12" stroke="none" /><path d="M 82.85270091963577 112.12312394758628 l -45.978486756328756 32.50674588791205 a77.3090558669135,77.3090558669135 0 0,0 -0.75887707831226,-1.0932190310358267 l 46.53122474180315 -31.710485594689203" fill="#42ffd7" stroke="none" /><path d="M 82.6465618267979 111.8261652097733 l -44.076491951243945 30.037613899912866 a74.33849821215733,74.33849821215733 0 0,0 -0.7115146328130283,-1.0636178364823743 l 44.587009689467706 -29.274459149224672" fill="#3dffae" stroke="none" /><path d="M 82.44556493220864 111.52570212397912 l -22.705510770107036 14.907739992682039 a48.16212309486978,48.16212309486978 0 0,0 -0.4490433081624558,-0.6969251862121568 l 22.95875894164654 -14.514693206548433" fill="#ffca12" stroke="none" /><path d="M 82.05923443525364 110.91462005526583 l -23.729782404597064 14.436483103555393 a48.7761519539472,48.7761519539472 0 0,0 -0.43020362627238456,-0.7210460228988685 l 23.97476690656768 -14.025874986770413" fill="#ffd413" stroke="none" /><line stroke="#e1ed5e" stroke-width="0.3" x1="26.63291911575756" x2="22.317208475507996" y1="142.92168965132927" y2="145.44649492493687" /><path d="M 25.769776987707644 143.4266507060508 a86.0,86.0 0 0,1 -11.730757126820373,-40.83630448921669" fill="none" id="id105" stroke="none" /><text fill="#e1ed5e" style="font-size:6.75px; font-family:Arial;" text-anchor="middle"><textPath startOffset="21.46611528233685" xlink:href="#id105">September</textPath></text><path d="M 81.69416730710424 110.29060199501025 l -39.60546030467885 22.26416222971367 a66.4344077295666,66.4344077295666 0 0,0 -0.5517965681977585,-1.001671051426684 l 39.98283328232813 -21.579120659889163" fill="#30ff38" stroke="none" /><path d="M 81.51974371655577 109.97397251340807 l -24.252612346720753 13.089368741127169 a48.559404559632796,48.559404559632796 0 0,0 -0.39066617154490435,-0.7389931701722354 l 24.474331026490542 -12.669960555868807" fill="#ffd013" stroke="none" /><path d="M 80.87730276802145 108.67885076344099 l -25.05062183735236 11.369243879163934 a48.509877513757516,48.509877513757516 0 0,0 -0.3385502394397514,-0.7633414152836542 l 25.24261316152339 -10.936354127387585" fill="#ffcf13" stroke="none" /><path d="M 80.73074385275274 108.34839909993369 l -25.083799268391864 10.867548058676645 a48.336799127634215,48.336799127634215 0 0,0 -0.3241995585443738,-0.7663119893974868 l 25.267149808128543 -10.434161543613" fill="#ffcc13" stroke="none" /><path d="M 80.58989483394504 108.01547362559985 l -24.700593090502977 10.200199883504325 a47.72383536631756,47.72383536631756 0 0,0 -0.30701739979049153,-0.7619920079662933 l 24.87251310455086 -9.773508507695226" fill="#ffc212" stroke="none" /><path d="M 80.45479744820244 107.68017299344265 l -49.6761300268508 19.519944663652346 a74.37364643826237,74.37364643826237 0 0,0 -0.45794942533129346,-1.195561442201925 l 50.0047737317756 -18.661959654617263" fill="#3dffaf" stroke="none" /><path d="M 80.32549172779594 107.34259656027581 l -49.85958361417838 18.6077741856182 a74.21867471407198,74.21867471407198 0 0,0 -0.4363907479777573,-1.200759916066302 l 50.17249862316137 -17.74676647254578" fill="#3dffad" stroke="none" /><path d="M 79.76711848015287 105.62410040840567 l -51.33671023521578 14.269979919412997 a74.28311312859788,74.28311312859788 0 0,0 -0.3318400827578725,-1.2349003954828894 l 51.57473839431543 -13.384188590754569" fill="#3dffae" stroke="none" /><path d="M 79.67330655649465 105.27499134158121 l -51.406693810779245 13.340579248899894 a74.10950219359421,74.10950219359421 0 0,0 -0.30980837122967203,-1.2375304407338765 l 51.62871349630398 -12.453720968768627" fill="#3dffab" stroke="none" /><path d="M 79.58551787078972 104.9243191809786 l -26.964428313846724 6.504277243457778 a48.73780843455989,48.73780843455989 0 0,0 -0.18970480377266383,-0.8172433296166456 l 27.072393683549944 -6.0391652564925575" fill="#ffd313" stroke="none" /><path d="M 79.23777060512086 103.15116336523772 l -26.623440502930645 4.040741905592917 a47.928334136383235,47.928334136383235 0 0,0 -0.11677612853721812,-0.816731971006718 l 26.68905068248446 -3.581864462605798" fill="#ffc612" stroke="none" /><path d="M 79.18660465613746 102.79330883721812 l -27.093358263277164 3.6361254767135014 a48.336266578753836,48.336266578753836 0 0,0 -0.10357424022313994,-0.8255886021823763 l 27.15193401274715 -3.1692191202437168" fill="#ffcc13" stroke="none" /><path d="M 79.1416061653843 102.43462659150553 l -27.73008491329327 3.2367018596882313 a48.918342505008496,48.918342505008496 0 0,0 -0.09042368906798563,-0.8372110582666693 l 27.781690903862305 -2.75889447953678" fill="#ffd614" stroke="none" /><path d="M 79.04373962182676 101.35467743843564 l -27.43769855361514 1.7736576336822891 a48.494966145106886,48.494966145106886 0 0,0 -0.04667905854182016,-0.8334859474821185 l 27.46416396304449 -1.301099969864733" fill="#ffcf13" stroke="none" /><path d="M 79.0095281055655 100.63252640178507 l -53.34836516958185 1.6075984204423217 a74.37258134050163,74.37258134050163 0 0,0 -0.027545965505743134,-1.279952777258777 l 53.36813319777259 -0.6890558273934158" fill="#3dffaf" stroke="none" /><line stroke="#e1ed5e" stroke-width="0.3" x1="15.007084014347285" x2="10.007500721073583" y1="101.09737516637583" y2="101.16192664675087" /><path d="M 14.007167355692545 101.11028546245083 a86.0,86.0 0 0,1 10.666146001902534,-42.60595125391555" fill="none" id="id106" stroke="none" /><text fill="#e1ed5e" style="font-size:6.75px; font-family:Arial;" text-anchor="middle"><textPath startOffset="22.20632615414155" xlink:href="#id106">October</textPath></text><path d="M 79.00175016825051 100.2711162175752 l -53.26748984783216 0.6877563836503142 a74.2719296021099,74.2719296021099 0 0,0 -0.0055021448664687505,-1.2785046946041236 l 53.27143628998813 0.22925778915748485" fill="#3dffae" stroke="none" /><path d="M 79.00019446554 99.90962569577889 l -53.2709037460393 -0.22925549731298356 a74.27139705322953,74.27139705322953 0 0,0 0.016505908638321163,-1.2784008141874659 l 53.259064830283265 1.1461925695609214" fill="#3dffae" stroke="none" /><path d="M 79.00486145842228 99.54816195383935 l -53.23563810404307 -1.1456884011225303 a74.24796490249284,74.24796490249284 0 0,0 0.03849688228118493,-1.277524105343425 l 53.208029527306245 2.06188265389095" fill="#3dffad" stroke="none" /><path d="M 79.01574976396665 99.18683210126434 l -45.800508839415784 -1.7748312717896564 a66.8348844876119,66.8348844876119 0 0,0 0.054443034176854414,-1.1492064037433714 l 45.76317219700543 2.562948782156037" fill="#31ff3e" stroke="none" /><path d="M 79.03285615573316 98.82574320788736 l -53.26302166124564 -2.98297495446727 a74.34648644536303,74.34648644536303 0 0,0 0.08255791070496535,-1.277134337609573 l 53.203783159536265 3.899368356329855" fill="#3dffaf" stroke="none" /><path d="M 79.08570108090925 98.10471618934814 l -53.156889132601414 -4.817153651068448 a74.37471153602313,74.37471153602313 0 0,0 0.12651802250580244,-1.274019220776524 l 53.066093984413385 5.731448402549403" fill="#3dffaf" stroke="none" /><path d="M 79.16333360222342 97.38593545837743 l -37.90684893474238 -4.755604749497106 a59.203991580655796,59.203991580655796 0 0,0 0.13556022794972616,-1.0100811552336812 l 37.81937270773482 5.407404246795447" fill="#89ff24" stroke="none" /><path d="M 79.21141760316559 97.0276538004421 l -37.76928990075338 -5.400243419849539 a59.15339943701976,59.15339943701976 0 0,0 0.15279634773758188,-1.0067370220864753 l 37.670737659576496 6.049579554328107" fill="#8aff24" stroke="none" /><path d="M 79.26566170972629 96.67025291283419 l -52.66531390342645 -8.4575728007133 a74.34009585879846,74.34009585879846 0 0,0 0.21377428587242936,-1.2617079362875923 l 52.5119277560338 9.362866525316722" fill="#3dffaf" stroke="none" /><path d="M 79.32604984820605 96.31383870115002 l -37.69209287304851 -6.720492842497955 a59.2865366571146,59.2865366571146 0 0,0 0.18778100322092525,-1.0031336278853151 l 37.57082614591772 7.368304547845843" fill="#88ff25" stroke="none" /><path d="M 79.3925641242962 95.95851677861259 l -32.744673676865794 -6.421810556784734 a54.36844774681105,54.36844774681105 0 0,0 0.18801309311344025,-0.9168186135120858 l 32.62928128783736 6.984504826460221" fill="#d1ff1c" stroke="none" /><path d="M 79.46518482838121 95.60439243477599 l -37.29626106538529 -7.983501478998389 a59.14115081277103,59.14115081277103 0 0,0 0.22165431086305176,-0.993632813556371 l 37.1533123675202 8.624312462104719" fill="#8aff24" stroke="none" /><path d="M 79.54389044137918 95.25157060432595 l -51.87561067791148 -12.041765515365428 a74.25488803793777,74.25488803793777 0 0,0 0.2997323298058432,-1.2425840132385395 l 51.66064554784482 12.932934760263365" fill="#3dffad" stroke="none" /><path d="M 79.62865764111835 94.90015583598534 l -51.795996439180186 -12.966819049335255 a74.39441584459718,74.39441584459718 0 0,0 0.3216802784311976,-1.2395653344394664 l 51.56511982887868 13.856480809323585" fill="#3dffaf" stroke="none" /><path d="M 79.71946130924805 94.55025226153421 l -51.49671743378141 -13.838099847965939 a74.3235868435067,74.3235868435067 0 0,0 0.3426431650195917,-1.2326697708073322 l 51.25088749819546 14.722480922192213" fill="#3dffae" stroke="none" /><path d="M 79.81627453868168 94.20196356495316 l -32.242878248797325 -9.262184189711814 a54.54685162173814,54.54685162173814 0 0,0 0.26700450846844787,-0.9002064675043485 l 32.07866784321717 9.815820043962702" fill="#ceff1d" stroke="none" /><path d="M 79.91906864156998 93.8553929516997 l -32.422406048957036 -9.921001231232317 a54.90632211599422,54.90632211599422 0 0,0 0.2843219731700458,-0.9013783529346041 l 32.24682859201879 10.477629750593335" fill="#c9ff1d" stroke="none" /><path d="M 80.14247586403 93.16781622104843 l -26.12805619138294 -8.989624308850512 a48.63129865848401,48.63129865848401 0 0,0 0.27915967759515664,-0.7892220006079865 l 25.969443432977975 9.438043935885108" fill="#ffd113" stroke="none" /><path d="M 80.2630227832202 92.82701384747504 l -50.0619395233007 -18.193951131680226 a74.26553901554536,74.26553901554536 0 0,0 0.44699158876277556,-1.197715227648093 l 49.741343346036295 19.05298949635766" fill="#3dffad" stroke="none" /><path d="M 80.38941819471856 92.48833698450439 l -35.71012697765929 -13.67845394696519 a59.2402049045216,59.2402049045216 0 0,0 0.37294939022419205,-0.9491155185859604 l 35.46938403755341 14.291118470446914" fill="#89ff24" stroke="none" /><path d="M 80.52162464483688 92.15188598940014 l -31.19612496019393 -12.569361710735519 a54.633124540359596,54.633124540359596 0 0,0 0.35896125543880864,-0.8692531525964472 l 30.975142017868922 13.104489433785279" fill="#cdff1d" stroke="none" /><path d="M 80.803312248108 91.48605970444005 l -25.241504829346 -11.194882568528469 a48.61265944767074,48.61265944767074 0 0,0 0.34583898513007816,-0.7620103610394654 l 25.04506352725257 11.627714938410005" fill="#ffd113" stroke="none" /><path d="M 81.10775173730289 90.83032412892265 l -34.206597049680425 -16.60275702693632 a59.02292496132681,59.02292496132681 0 0,0 0.4514972333923442,-0.9101908717843328 l 33.915739803334674 17.189107487219616" fill="#8cff24" stroke="none" /><path d="M 81.26839172434947 90.50648371742162 l -24.475594461565017 -12.404671885472853 a48.439581061547436,48.439581061547436 0 0,0 0.38334292543357973,-0.740496516335161 l 24.258442102971323 12.82414112406835" fill="#ffce13" stroke="none" /><path d="M 81.43458229118936 90.18545643968196 l -47.174607283369696 -24.938692217186308 a74.36086526513327,74.36086526513327 0 0,0 0.6079599191014213,-1.1264573969852705 l 46.7383392650498 25.74703059750405" fill="#3dffaf" stroke="none" /><path d="M 81.6062741919709 89.86733742301443 l -24.83034038021468 -13.678439233588511 a49.34864200035503,49.34864200035503 0 0,0 0.4162730877599196,-0.7405033741255594 l 24.591209651162327 14.103826117648856" fill="#ffdd14" stroke="none" /><line stroke="#e1ed5e" stroke-width="0.3" x1="26.266209847984243" x2="21.928928074336255" y1="57.711370442889674" y2="55.22380399835377" /><path d="M 25.398753493254645 57.213857153982495 a86.0,86.0 0 0,1 29.58750427330803,-30.492523968695096" fill="none" id="id107" stroke="none" /><text fill="#e1ed5e" style="font-size:6.75px; font-family:Arial;" text-anchor="middle"><textPath startOffset="21.46611528233685" xlink:href="#id107">November</textPath></text><path d="M 81.96595687620814 89.24020034530311 l -32.80272302632555 -19.571358761260605 a59.197600994091246,59.197600994091246 0 0,0 0.5296330479117087,-0.8705774731335382 l 32.46097418012762 20.13310400760122" fill="#8aff24" stroke="none" /><path d="M 82.34701348167596 88.62581576622439 l -23.278860318840827 -14.999051052578588 a48.69254177972764,48.69254177972764 0 0,0 0.4600363867653812,-0.7006669783260208 l 23.017227296717525 15.397536094882275" fill="#ffd213" stroke="none" /><path d="M 82.54541684631803 88.32363383020206 l -43.80045562869402 -29.300622869170876 a73.69730936018055,73.69730936018055 0 0,0 0.7144271015130904,-1.0483336157964203 l 43.289604061512186 30.05023450823771" fill="#3cffa5" stroke="none" /><path d="M 82.7489923806493 88.02491185347247 l -23.303493872329607 -16.17652715718378 a49.36781376004869,49.36781376004869 0 0,0 0.49059236759974345,-0.6939081123105797 l 23.021588884925986 16.575261769826145" fill="#ffde14" stroke="none" /><path d="M 83.17141714833178 87.43820079747576 l -29.799646356692023 -22.244129356494806 a58.186290670250806,58.186290670250806 0 0,0 0.6060353199379673,-0.7974714423766651 l 29.412335096529947 22.7537855747525" fill="#98ff23" stroke="none" /><path d="M 83.39014120810768 87.1503855733568 l -22.449614384690115 -17.367329396617123 a49.38325767757969,49.38325767757969 0 0,0 0.5259220984079594,-0.6678676567528183 l 22.147338205688182 17.75118944732299" fill="#ffde14" stroke="none" /><path d="M 83.6137871275137 86.86637796730984 l -18.062939698760793 -14.477525993887756 a44.14883473233079,44.14883473233079 0 0,0 0.48038453854322477,-0.5888946429467801 l 17.811056668141177 14.786304806442619" fill="#ff850c" stroke="none" /><path d="M 83.84228863543731 86.58626213691792 l -25.433244855790992 -21.114059522772923 a54.055309005147976,54.055309005147976 0 0,0 0.6005014226464238,-0.7108042765144892 l 25.066032819657444 21.54872274891653" fill="#d6ff1c" stroke="none" /><path d="M 84.07557802195018 86.31012108654704 l -20.617791293823274 -17.724666343578754 a48.18928308776913,48.18928308776913 0 0,0 0.5461638792018891,-0.6243597279006944 l 20.30963555104354 18.07694162768239" fill="#ffca12" stroke="none" /><path d="M 84.31358615837235 86.03803664274999 l -19.964743688880095 -17.769964673589733 a47.727563208480206,47.727563208480206 0 0,0 0.551495082401781,-0.6089746443870646 l 19.65590496586227 18.110992105246353" fill="#ffc212" stroke="none" /><path d="M 84.5562425177563 85.77008943001954 l -11.775213969546803 -10.849706874877198 a37.01161463748637,37.01161463748637 0 0,0 0.43573717166777276,-0.4648140338394845 l 11.586709475908574 11.050790325594733" fill="#ff0100" stroke="none" /><path d="M 84.80347519578584 85.50635884689758 l -24.30680924545938 -23.18254833387337 a54.58945553216849,54.58945553216849 0 0,0 0.6543865134493483,-0.6744028243080422 l 23.904158468306914 23.597515353731534" fill="#ceff1d" stroke="none" /><path d="M 85.31137513191541 84.99185889309783 l -19.63872087579326 -20.065914727210625 a49.07704207136155,49.07704207136155 0 0,0 0.6088281815965495,-0.5856922283219382 l 19.290409450584285 20.40099004229488" fill="#ffd914" stroke="none" /><path d="M 85.57189188830299 84.74124197986013 l -18.76426080694519 -19.84455015608381 a48.311236781376,48.311236781376 0 0,0 0.609163553515635,-0.566151133950402 l 18.419889369634703 20.16460587610886" fill="#ffcc13" stroke="none" /><path d="M 85.83668400450813 84.49514656593479 l -36.499999951661685 -39.95724940219045 a75.11868232191313,75.11868232191313 0 0,0 0.9621952462315893,-0.8638683924136988 l 35.806793717834125 40.579616803373426" fill="#3effb9" stroke="none" /><path d="M 86.10567301691215 84.25364557470407 l -17.913615089396853 -20.301388658789485 a48.074785078487565,48.074785078487565 0 0,0 0.6252153301742149,-0.5421805733529069 l 17.561505960575865 20.60673422556207" fill="#ffc812" stroke="none" /><path d="M 86.37877921826538 84.01681056812374 l -18.4955404239393 -21.702733622610058 a49.5147972510334,49.5147972510334 0 0,0 0.6534596603391271,-0.547253673040233 l 18.11922322664106 22.017888453044105" fill="#ffe015" stroke="none" /><path d="M 86.93701828274178 83.55741782278169 l -16.526412697755145 -20.80205765873931 a47.5677985443664,47.5677985443664 0 0,0 0.645489238470442,-0.503814589206822 l 16.165890904125277 21.083450637169356" fill="#ffc011" stroke="none" /><path d="M 87.22198572758235 83.33499621200491 l -26.573525687213305 -34.65702078559393 a64.67220348439125,64.67220348439125 0 0,0 0.8892546429065727,-0.6697681608550847 l 25.97302489054834 35.10930553595487" fill="#3fff2d" stroke="none" /><path d="M 87.51073957382395 83.11751280151077 l -16.473927720617777 -22.26880250405039 a48.69999746405295,48.69999746405295 0 0,0 0.6782163024724399,-0.49275298693277647 l 16.088166101791554 22.549074725799837" fill="#ffd213" stroke="none" /><path d="M 87.80319425747018 82.90503203632743 l -36.59041722758948 -51.284903891017706 a84.0,84.0 0 0,0 1.184275441665359,-0.8296606289442297 l 35.70221064634046 51.907149362725875" fill="#4dd2ff" stroke="none" /><path d="M 88.09926311788651 82.69761687909137 l -15.218082755067396 -22.125444903299712 a47.85377729313012,47.85377729313012 0 0,0 0.6827031919969866,-0.4609642427577542 l 14.83497486866387 22.384121058356133" fill="#ffc412" stroke="none" /><path d="M 88.39885842347998 82.49532879139004 l -14.922940312109192 -22.51684990707102 a48.01300940836355,48.01300940836355 0 0,0 0.6928345258125433,-0.45063884803461063 l 14.533138760512362 22.770387679265166" fill="#ffc712" stroke="none" /><line stroke="#e1ed5e" stroke-width="0.3" x1="56.762969772571076" x2="54.21961505331055" y1="26.818313649435495" y2="22.513508569990535" /><path d="M 56.25429882871897 25.957352633546506 a86.0,86.0 0 0,1 42.265352541879196,-11.944610805530505" fill="none" id="id108" stroke="none" /><text fill="#e1ed5e" style="font-size:6.75px; font-family:Arial;" text-anchor="middle"><textPath startOffset="22.20632615414155" xlink:href="#id108">December</textPath></text><path d="M 89.63071344664047 81.73862282372117 l -17.68166756611082 -31.139230155204146 a56.80911926558974,56.80911926558974 0 0,0 0.8545062998587126,-0.4755318307170358 l 17.143037177180062 31.438977383481365" fill="#acff20" stroke="none" /><path d="M 90.26544431104013 81.39251694778311 l -12.390062892219616 -23.68345229606588 a47.728628306240964,47.728628306240964 0 0,0 0.731246933300338,-0.3745730810214121 l 11.980555471330515 23.893217902399797" fill="#ffc212" stroke="none" /><path d="M 90.58718382345135 81.22770947309562 l -15.494994965341258 -30.902180786979045 a55.569345472066544,55.569345472066544 0 0,0 0.8587547275766513,-0.42138721529102696 l 14.96076897075418 31.1643231624049" fill="#bfff1e" stroke="none" /><path d="M 90.91171255644093 81.06846463323043 l -12.79615568569074 -26.655283014186416 a50.567646387543434,50.567646387543434 0 0,0 0.7879445572048026,-0.36995053479067586 l 12.33543291718633 26.8715985316171" fill="#fff116" stroke="none" /><path d="M 91.23893434514133 80.91482961587045 l -15.271266395828645 -33.26703995012159 a57.604747292876525,57.604747292876525 0 0,0 0.9047178913520642,-0.40592054595613064 l 14.696366386009807 33.52498082659425" fill="#a1ff22" stroke="none" /><path d="M 91.56875222667455 80.76684994638697 l -10.755383986549086 -24.534911042702714 a47.78880632972384,47.78880632972384 0 0,0 0.7562379304371695,-0.3237816153661 l 10.331462298321608 24.7164121860316" fill="#ffc312" stroke="none" /><path d="M 91.90106846888425 80.62456947434976 l -10.21685768304094 -24.442238518460965 a47.49164405447215,47.49164405447215 0 0,0 0.7569628249904244,-0.3087841425182201 l 9.794610988462134 24.614483547162763" fill="#ffbe11" stroke="none" /><path d="M 92.23578459929587 80.48803036053334 l -20.634741815073507 -51.85642528380052 a76.81112266375878,76.81112266375878 0 0,0 1.232697212045791,-0.47826736717353713 l 19.73906143802804 52.20393535486461" fill="#41ffd1" stroke="none" /><path d="M 92.57280143429618 80.3572730644239 l -19.690655533547375 -52.075916162248184 a76.67425760150127,76.67425760150127 0 0,0 1.2385363493664832,-0.4561633899098959 l 18.79133685840832 52.407142819964406" fill="#41ffcf" stroke="none" /><path d="M 92.91201910852362 80.23233633223022 l -9.28683135290287 -25.900035783708926 a48.514670453680935,48.514670453680935 0 0,0 0.7885204806085963,-0.27509931267884413 l 8.839628868230989 26.05605594955998" fill="#ffcf13" stroke="none" /><path d="M 93.25333710446033 80.11325718540243 l -9.155122144912323 -26.98601699107641 a49.496690589100496,49.496690589100496 0 0,0 0.8091935295900324,-0.2667783842511101 l 8.68924579307988 27.139609099586757" fill="#ffe015" stroke="none" /></svg>