<?xml version="1.0" encoding="utf-8" ?>
<svg baseProfile="full" height="200mm" version="1.1" viewBox="0,0,200,200" width="200mm" xmlns="http://www.w3.org/2000/svg" xmlns:ev="http://www.w3.org/2001/xml-events" xmlns:xlink="http://www.w3.org/1999/xlink"><defs /><rect fill="#1a1a1a" height="200" width="200" x="0" y="0" /><text alignment-baseline="middle" fill="#e1ed5e" style="dominant-baseline: central; font-size:9.0px; font-family:Arial;" text-anchor="middle" x="100.0" y="100.0">2021</text><line stroke="#e1ed5e" stroke-width="0.3" x1="100.0" x2="100.0" y1="15.0" y2="10.0" /><path d="M 100.0 14.0 a86.0,86.0 0 0,1 42.46469731375804,11.215312516191453" fill="none" id="id85" stroke="none" /><text fill="#e1ed5e" style="font-size:6.75px; font-family:Arial;" text-anchor="middle"><textPath startOffset="22.20632615414155" xlink:href="#id85">January</textPath></text><line stroke="#e1ed5e" stroke-width="0.3" x1="143.23703022742887" x2="145.7803849466894" y1="26.81831364943548" y2="22.513508569990506" /><path d="M 143.74570117128098 25.957352633546492 a86.0,86.0 0 0,1 28.547481713284135,27.462654790039103" fill="none" id="id86" stroke="none" /><text fill="#e1ed5e" style="font-size:6.75px; font-family:Arial;" text-anchor="middle"><textPath startOffset="19.985693538727396" xlink:href="#id86">February</textPath></text><line stroke="#e1ed5e" stroke-width="0.3" x1="172.23445277983987" x2="176.4835382374775" y1="55.19839476539836" y2="52.563006222186495" /><path d="M 173.08426987136738 54.67131705675599 a86.0,86.0 0 0,1 12.851231095245387,41.99856678651699" fill="none" id="id87" stroke="none" /><text fill="#e1ed5e" style="font-size:6.75px; font-family:Arial;" text-anchor="middle"><textPath startOffset="22.20632615414155" xlink:href="#id87">March</textPath></text><line stroke="#e1ed5e" stroke-width="0.3" x1="184.98032266829074" x2="189.97916517819016" y1="98.17113171792111" y2="98.06355123074" /><path d="M 185.9800911702706 98.14961562048488 a86.0,86.0 0 0,1 -9.607161424134198,41.387399972396054" fill="none" id="id88" stroke="none" /><text fill="#e1ed5e" style="font-size:6.75px; font-family:Arial;" text-anchor="middle"><textPath startOffset="21.466115282336823" xlink:href="#id88">April</textPath></text><line stroke="#e1ed5e" stroke-width="0.3" x1="174.80103733775053" x2="179.2010983576182" y1="140.37084112569926" y2="142.7455964860345" /><path d="M 175.68104954172406 140.8457921977663 a86.0,86.0 0 0,1 -30.038265399797805,32.042727171017184" fill="none" id="id89" stroke="none" /><text fill="#e1ed5e" style="font-size:6.75px; font-family:Arial;" text-anchor="middle"><textPath startOffset="22.206326154141568" xlink:href="#id89">May</textPath></text><path d="M 115.32070863581623 114.36230785411682 l 13.052197864477435 12.235705825266733 a38.890566400646335,38.890566400646335 0 0,0 -0.4620448347677441,0.48445216202307345 l -12.839646478330726 -12.458565103872314" fill="#ff6d0a" stroke="none" /><path d="M 115.07121518719521 114.62390073753431 l 13.491350603343468 13.090926616600582 a39.79864092916181,39.79864092916181 0 0,0 -0.4812970463813863,0.4875513669370033 l -13.264012931906546 -13.321218477518249" fill="#ff7c0b" stroke="none" /><path d="M 114.81725581225074 114.88116024355365 l 8.071999037056436 8.106812265259885 a32.440173668192635,32.440173668192635 0 0,0 -0.3990914481959559,0.39059497967506657 l -7.931257636484686 -8.244557347857523" fill="#ff0000" stroke="none" /><path d="M 114.29624159901734 115.38237550388516 l 12.222288717518724 13.150857396163113 a38.95353424116276,38.95353424116276 0 0,0 -0.4950817066106801,0.4522454007148905 l -11.99410746144118 -13.359295563464588" fill="#ff6f0a" stroke="none" /><path d="M 114.0293411484842 115.62618273729858 l 12.148009623692626 13.530715110936802 a39.183904675032316,39.183904675032316 0 0,0 -0.5057665240546103,0.44628015301277874 l -11.913300746731428 -13.73781840572187" fill="#ff720a" stroke="none" /><path d="M 113.20401910651253 116.32954008644616 l 11.497225199121072 14.218731301240437 a39.28547256967069,39.28547256967069 0 0,0 -0.5294980312334914,0.42066525967623014 l -11.250769675170229 -14.414530474921794" fill="#ff740a" stroke="none" /><path d="M 112.92097659922987 116.55440617244103 l 11.338598337242109 14.527056903118142 a39.42821734514063,39.42821734514063 0 0,0 -0.5386106115731132,0.41298364941955157 l -11.0868589971755 -14.720079894365066" fill="#ff760a" stroke="none" /><path d="M 112.34349029814194 116.9893568818739 l 9.836631868397223 13.538962261992515 a37.735077700627066,37.735077700627066 0 0,0 -0.5287810547044521,0.3772712425238522 l -9.602123485843887 -13.706277766360586" fill="#ff5a08" stroke="none" /><path d="M 112.04921762599082 117.19931262002967 l 10.497009457133883 14.98365726578098 a39.294731279839816,39.294731279839816 0 0,0 -0.5573173896330537,0.38332798248089184 l -10.237535182877947 -15.162126037626967" fill="#ff740a" stroke="none" /><path d="M 111.1453310114006 117.79835938074945 l 8.667013480615127 13.840649553431522 a37.330361377938594,37.330361377938594 0 0,0 -0.5475489418308899,0.3363492814366886 l -8.427485338851929 -13.987787301696589" fill="#ff5407" stroke="none" /><line stroke="#e1ed5e" stroke-width="0.3" x1="143.8653032363475" x2="146.44561519142675" y1="172.8068346515853" y2="177.08958963109032" /><path d="M 144.38136562736335 173.6633856474863 a86.0,86.0 0 0,1 -40.68145358897372,12.25698825130547" fill="none" id="id90" stroke="none" /><text fill="#e1ed5e" style="font-size:6.75px; font-family:Arial;" text-anchor="middle"><textPath startOffset="21.466115282336833" xlink:href="#id90">June</textPath></text><path d="M 110.8373102113329 117.98757091392108 l 6.823574108203283 11.325644533949928 a34.22238207432882,34.22238207432882 0 0,0 -0.5071954681654044,0.2996600226350656 l -6.627610769009496 -11.441423128878743" fill="#ff1f03" stroke="none" /><path d="M 110.5260780823613 118.17145234162733 l 9.336131784624122 16.117215970850168 a39.626003526008915,39.626003526008915 0 0,0 -0.5931658604945627,0.33681505626683245 l -9.057317157208361 -16.27553419291163" fill="#ff790b" stroke="none" /><path d="M 110.21172684928248 118.3499491758327 l 7.759120839503821 13.942742021545897 a36.9563157176525,36.9563157176525 0 0,0 -0.5585281698172864,0.3045540910217662 l -7.517969857817887 -14.074236764327432" fill="#ff4d07" stroke="none" /><path d="M 109.89434966115114 118.52300852407294 l 6.81618115951804 12.760432574472905 a35.46682290923055,35.46682290923055 0 0,0 -0.5409688588718213,0.2830093391945045 l -6.595521398119723 -12.875871332612126" fill="#ff3405" stroke="none" /><path d="M 109.57404056367764 118.69057910512821 l 7.224684732346397 14.10413300438979 a36.84684944357447,36.84684944357447 0 0,0 -0.5669959719948924,0.2843035510015358 l -6.980834852668744 -14.226404396300628" fill="#ff4c07" stroke="none" /><path d="M 109.2508944713604 118.85261126421891 l 7.2477080301930386 14.770271401625198 a37.45266510230461,37.45266510230461 0 0,0 -0.5812071003081352,0.2790147280452249 l -6.99238826188467 -14.892840406169983" fill="#ff5607" stroke="none" /><path d="M 108.92500713936063 119.00905698771935 l 7.78809229973055 16.58758228867948 a39.32490839957558,39.32490839957558 0 0,0 -0.6152138558464384,0.28241450688496 l -7.501410448116693 -16.719183865898515" fill="#ff750a" stroke="none" /><path d="M 108.59647513512805 119.15986991738527 l 7.11191565409156 15.851075778605228 a38.37342647867708,38.37342647867708 0 0,0 -0.6049832452205093,0.26520687588596215 l -6.838011734213297 -15.971147207785645" fill="#ff6509" stroke="none" /><path d="M 107.93186726928326 119.44442032107085 l 4.490994059421473 11.00935923234557 a32.890122722183804,32.890122722183804 0 0,0 -0.5260523347037172,0.20932708046150098 l -4.300820648675889 -11.08503315721314" fill="#ff0801" stroke="none" /><path d="M 107.59598834532513 119.57807347666477 l 5.452458372081971 14.053290471775693 a36.07396017585917,36.07396017585917 0 0,0 -0.5808419138364714,0.2196247111460621 l -5.209746237485224 -14.145063433028385" fill="#ff3f05" stroke="none" /><path d="M 107.2578585660854 119.70592522655815 l 7.325600817405442 19.889853271867437 a42.19600647556957,42.19600647556957 0 0,0 -0.6837369344370176,0.24516373849419087 l -6.982144322338689 -20.013004551401586" fill="#ffa30f" stroke="none" /><path d="M 106.91757812671514 119.82793768551818 l 6.493754769760384 18.613127681578774 a40.71338055992781,40.71338055992781 0 0,0 -0.6636867828623048,0.2251585910242876 l -6.172398253960853 -18.722149259501187" fill="#ff8b0c" stroke="none" /><path d="M 106.57524785965236 119.94407469862006 l 5.4692304373850265 16.58929712087545 a38.467606033509725,38.467606033509725 0 0,0 -0.6306464601327788,0.20191308137569872 l -5.182862632161307 -16.680983048910857" fill="#ff6709" stroke="none" /><path d="M 106.2309692047433 120.05430185196036 l 4.010058840766666 12.90632769868904 a34.51494974361203,34.51494974361203 0 0,0 -0.5688803743905402,0.17139899020700056 l -3.78730349193588 -12.973442058001767" fill="#ff2403" stroke="none" /><path d="M 105.88484417918355 120.15858648285463 l 5.314521762759522 18.204941933477713 a39.96481089724176,39.96481089724176 0 0,0 -0.6620243849401817,0.18709470396694006 l -5.000366209714735 -18.293725430783173" fill="#ff7f0b" stroke="none" /><path d="M 105.53697534728816 120.25689768951611 l 4.548172548456356 16.639385261751176 a38.24978305427388,38.24978305427388 0 0,0 -0.6366030827550263,0.16813266015098383 l -4.261079022889832 -16.715209271205744" fill="#ff6309" stroke="none" /><path d="M 104.83641907484287 120.43548508189849 l 10.036558768567607 42.40781119558474 a64.57929511035343,64.57929511035343 0 0,0 -1.083947632991031,0.2467029522382488 l -9.305090986183714 -42.57429088140068" fill="#30ff36" stroke="none" /><path d="M 104.48393922423573 120.51570834832081 l 6.541971963028781 29.931982148858506 a51.63855336866672,51.63855336866672 0 0,0 -0.8700076714890019,0.1823185664866646 l -6.025772830110401 -30.040156696071712" fill="#cfff1d" stroke="none" /><path d="M 103.7750983002368 120.6578951692458 l 5.64879230866691 30.91102537328974 a52.42292704657885,52.42292704657885 0 0,0 -0.8890704469564166,0.1545762933720835 l -5.115872890238443 -31.003680245182828" fill="#c4ff1e" stroke="none" /><path d="M 103.06178313531738 120.77559828337769 l 4.56030326617306 30.9437424275857 a52.27797246153011,52.27797246153011 0 0,0 -0.8913927261521984,0.12353890945567565 l -4.026981948834031 -31.017655902533978" fill="#c6ff1e" stroke="none" /><path d="M 102.70371172650421 120.8252237178851 l 3.076297985800078 23.695053414588283 a44.89391482402223,44.89391482402223 0 0,0 -0.7671997572480332,0.09289720629176268 l -2.6679708055006643 -23.744496149605396" fill="#ffcc13" stroke="none" /><path d="M 102.34483914955558 120.86867818915974 l 3.5164998261437477 31.29626321615215 a52.49320343061257,52.49320343061257 0 0,0 -0.8988021358761539,0.09316451636377523 l -2.977265093661991 -31.352157100971684" fill="#c3ff1e" stroke="none" /><path d="M 101.98527174616119 120.90594882070398 l 2.9590520102994824 31.16036381656108 a52.300547311191,52.300547311191 0 0,0 -0.8969685380644178,0.07739421971097143 l -2.4222391544935227 -31.206682288550716" fill="#c6ff1e" stroke="none" /><path d="M 101.26447882468166 120.96189622390904 l 1.8796738737915126 31.16029142451654 a52.216933474199756,52.216933474199756 0 0,0 -0.8976636197640805,0.04639895566256266 l -1.3430221856139526 -31.188030186941305" fill="#c7ff1e" stroke="none" /><line stroke="#e1ed5e" stroke-width="0.3" x1="102.19456741930631" x2="102.32365962044197" y1="184.97166512339345" y2="189.96999836594603" /><path d="M 102.22038585953345 185.97133177190398 a86.0,86.0 0 0,1 -42.740103519485714,-10.115201625700543" fill="none" id="id91" stroke="none" /><text fill="#e1ed5e" style="font-size:6.75px; font-family:Arial;" text-anchor="middle"><textPath startOffset="22.20632615414155" xlink:href="#id91">July</textPath></text><path d="M 100.54218724476979 120.99299961872073 l 0.8053740410367058 31.183354273835263 a52.19375275777981,52.19375275777981 0 0,0 -0.8983298182113025,0.015465562496248001 l -0.26848453293273533 -31.19259731361067" fill="#c7ff1e" stroke="none" /><path d="M 99.81925306533755 120.99922214144158 l -0.269083881081512 31.262229725027098 a52.26338774853784,52.26338774853784 0 0,0 -0.8995283369091074,-0.015486196082541207 l 0.8071719078832873 -31.252966051665396" fill="#c7ff1e" stroke="none" /><path d="M 99.45781275523022 120.99299961872073 l -0.8083742144294815 31.2995182734473 a52.30995549374697,52.30995549374697 0 0,0 -0.8999296345093324,-0.0309953962157503 l 1.347024200613457 -31.280966078805456" fill="#c6ff1e" stroke="none" /><path d="M 99.09653310690486 120.98055641714683 l -1.3505837991465701 31.36362805393387 a52.392694075278484,52.392694075278484 0 0,0 -0.9006851280541638,-0.04655513312826364 l 1.8902569956142228 -31.335733114043403" fill="#c5ff1e" stroke="none" /><path d="M 98.73552117531835 120.96189622390904 l -1.873721116844971 31.06160960326064 a52.11807227270167,52.11807227270167 0 0,0 -0.8950341760929201,-0.06172679704961841 l 2.408118053716821 -31.024754461694734" fill="#c9ff1d" stroke="none" /><path d="M 98.37488393609728 120.93702456842531 l -2.426525504809655 31.261905065478203 a52.355936189953944,52.355936189953944 0 0,0 -0.897918472322532,-0.07747618403587643 l 2.9642882948737284 -31.21550462916366" fill="#c5ff1e" stroke="none" /><path d="M 97.65516085044442 120.86867818915974 l -3.4937560386490776 31.093847292604174 a52.28951375003109,52.28951375003109 0 0,0 -0.8935844069934985,-0.10820062729601028 l 4.028467868693966 -31.029101136582813" fill="#c6ff1e" stroke="none" /><path d="M 96.93821686468263 120.77559828337769 l -4.560028931246874 30.94188093969803 a52.276090867310394,52.276090867310394 0 0,0 -0.8891021356450286,-0.13885946827881332 l 5.09196693050042 -30.85880316407211" fill="#c6ff1e" stroke="none" /><path d="M 96.58105272829116 120.7198165907248 l -5.078928502710639 30.779786492867164 a52.196005694353474,52.196005694353474 0 0,0 -0.8852219577664155,-0.15390718419619157 l 5.607999431949104 -30.687800730149966" fill="#c7ff1e" stroke="none" /><path d="M 95.86986931433489 120.58985236759428 l -6.1596644767146405 30.707643864553795 a52.31933680935739,52.31933680935739 0 0,0 -0.8814775283572585,-0.18472218651274178 l 6.687333466501286 -30.597065697314513" fill="#c6ff1e" stroke="none" /><path d="M 95.51606077576429 120.51570834832081 l -6.674632067760283 30.53895202111263 a52.259851307832434,52.259851307832434 0 0,0 -0.8771687896064756,-0.19964076069803416 l 7.199321006759621 -30.41953452683691" fill="#c7ff1e" stroke="none" /><path d="M 95.16358092515715 120.4354850818985 l -7.2107078945855925 30.46764792906611 a52.30929380664095,52.30929380664095 0 0,0 -0.874428846105887,-0.21491333562469941 l 7.73409002543469 -30.339013335127383" fill="#c6ff1e" stroke="none" /><path d="M 94.81253420990036 120.34920634021253 l -15.49112477588088 60.76803342163799 a83.71147289575666,83.71147289575666 0 0,0 -1.3932361820663774,-0.36796633861033784 l 16.534851400758747 -60.49237573372407" fill="#4dd5ff" stroke="none" /><path d="M 94.11515582081647 120.15858648285463 l -8.789691340238667 30.109166469787933 a52.36591429182431,52.36591429182431 0 0,0 -0.8631025439389326,-0.2600457163506718 l 9.306668858617845 -29.953405384331536" fill="#c5ff1e" stroke="none" /><path d="M 93.42475214034765 119.94407469862007 l -9.811288161152747 29.75964832846058 a52.335252416644465,52.335252416644465 0 0,0 -0.8531400445994094,-0.28943142360008933 l 10.322097938689382 -29.58635391796237" fill="#c6ff1e" stroke="none" /><path d="M 93.08242187328487 119.8279376855182 l -10.314175500378566 29.563645737401664 a52.31120191783121,52.31120191783121 0 0,0 -0.8476418463136519,-0.30393420843570773 l 10.821536907321944 -29.381723987925998" fill="#c6ff1e" stroke="none" /><path d="M 91.07499286063937 119.00905698771935 l -13.332382262755297 28.396169353981005 a52.37028611250146,52.37028611250146 0 0,0 -0.8127053722508132,-0.3901479667045339 l 13.819200303006353 -28.16246711077691" fill="#c5ff1e" stroke="none" /><path d="M 90.7491055286396 118.85261126421891 l -13.795471624588235 28.11410988960058 a52.316420808089745,52.316420808089745 0 0,0 -0.8050403308646914,-0.40366393425868075 l 14.277365863135687 -27.8724781144326" fill="#c6ff1e" stroke="none" /><path d="M 90.10565033884886 118.52300852407294 l -14.753926130974113 27.620521696398274 a52.31407918268472,52.31407918268472 0 0,0 -0.7906331119372269,-0.43111621176873427 l 15.22718205477998 -27.362464832869776" fill="#c6ff1e" stroke="none" /><line stroke="#e1ed5e" stroke-width="0.3" x1="58.666819895761336" x2="56.23545636021788" y1="174.27360380694188" y2="178.64263932499728" /><path d="M 58.180547188652646 175.14741091055294 a86.0,86.0 0 0,1 -31.652253787137756,-30.449443065178592" fill="none" id="id92" stroke="none" /><text fill="#e1ed5e" style="font-size:6.75px; font-family:Arial;" text-anchor="middle"><textPath startOffset="22.20632615414155" xlink:href="#id92">August</textPath></text><path d="M 89.7882731507175 118.34994917583269 l -15.286708566632282 27.469430920312767 a52.43649302780105,52.43649302780105 0 0,0 -0.7849274400769894,-0.44570228582353716 l 15.757284773630477 -27.202225468694596" fill="#c4ff1e" stroke="none" /><path d="M 89.4739219176387 118.17145234162733 l -15.706583932340298 27.11469923964935 a52.335342565229624,52.335342565229624 0 0,0 -0.7756400041445405,-0.45826178620905356 l 16.17099180751322 -26.840318881146548" fill="#c6ff1e" stroke="none" /><path d="M 88.8546689885994 117.79835938074946 l -16.62147329645133 26.543397846610443 a52.318131230775705,52.318131230775705 0 0,0 -0.7591565080435498,-0.4845296016804086 l 17.075911606541805 -26.25335381610623" fill="#c6ff1e" stroke="none" /><path d="M 88.54995079064634 117.60387380957326 l -8.570261587971107 13.176345424474603 a36.7183161449096,36.7183161449096 0 0,0 -0.5268646511488672,-0.34917716173014474 l 8.795800937859935 -13.026870241653139" fill="#ff4906" stroke="none" /><path d="M 88.24862548938628 117.40417183066458 l -17.526760495827556 25.95770826883094 a52.32075912310932,52.32075912310932 0 0,0 -0.7420656141010579,-0.5103994958942314 l 17.970982994551505 -25.652167983571612" fill="#c6ff1e" stroke="none" /><path d="M 87.95078237400918 117.19931262002967 l -18.015988542838393 25.716409872020233 a52.399197121605255,52.399197121605255 0 0,0 -0.7342691312165567,-0.5238815290684234 l 18.455985001903837 -25.402484081107588" fill="#c5ff1e" stroke="none" /><path d="M 87.65650970185807 116.9893568818739 l -18.404118127647614 25.331095453109967 a52.31095592457975,52.31095592457975 0 0,0 -0.7239214287359488,-0.5355397664617717 l 18.837424526802124 -25.01054573790843" fill="#c6ff1e" stroke="none" /><path d="M 87.36589467227662 116.77436683061367 l -18.721354746983103 24.856439292368478 a52.11802850210126,52.11802850210126 0 0,0 -0.7119602430862136,-0.5459007548562976 l 19.146443718562804 -24.530499195684815" fill="#c9ff1d" stroke="none" /><path d="M 86.51685102203217 116.09983520530335 l -40.28624660336078 48.10463285795991 a83.74581554004948,83.74581554004948 0 0,0 -1.0972078593941543,-0.9350643411918726 l 41.10831993933199 -47.40404412654509" fill="#4dd5ff" stroke="none" /><path d="M 85.97065885151581 115.62618273729859 l -31.37490289611286 34.946043497746835 a67.9639275176909,67.9639275176909 0 0,0 -0.863790613070178,-0.7890522447618428 l 31.97179305864989 -34.400798486398415" fill="#35ff66" stroke="none" /><path d="M 85.70375840098266 115.38237550388516 l -21.353817626346505 22.976139490572223 a52.3669971962491,52.3669971962491 0 0,0 -0.6549968392386285,-0.6193403943414872 l 21.746150299975948 -22.605164459484804" fill="#c5ff1e" stroke="none" /><path d="M 85.44109423537348 115.13401014063109 l -21.732278158447542 22.590744342069573 a52.34698779603687,52.34698779603687 0 0,0 -0.6439927042899926,-0.6302824036448297 l 22.117920815113326 -22.213311835502175" fill="#c5ff1e" stroke="none" /><path d="M 84.9287848128048 114.62390073753433 l -22.50482451135919 21.836880150803186 a52.35787717635898,52.35787717635898 0 0,0 -0.6220451113907988,-0.6522118123896692 l 22.877376174128948 -21.446261221831016" fill="#c5ff1e" stroke="none" /><path d="M 84.43433777217949 114.09645910891817 l -23.263116167706002 21.06737002284271 a52.3848156520244,52.3848156520244 0 0,0 -0.5995346121317752,-0.6735834923528411 l 23.622309629486114 -20.663812360749002" fill="#c5ff1e" stroke="none" /><path d="M 84.19399662182784 113.82643327865904 l -23.695703440386925 20.728014208945996 a52.48232733742904,52.48232733742904 0 0,0 -0.5889454072487352,-0.6850765624995317 l 24.04899135720644 -20.317060547284935" fill="#c3ff1e" stroke="none" /><path d="M 83.95833913139862 113.55231037782056 l -24.03487835870319 20.305137608778477 a52.463852132710784,52.463852132710784 0 0,0 -0.5768625389731877,-0.6948680894838904 l 24.38083689756991 -19.888408262180825" fill="#c4ff1e" stroke="none" /><path d="M 83.72743513129214 113.27417163493432 l -24.26935411148803 19.797467365725268 a52.319981850022806,52.319981850022806 0 0,0 -0.5632671779954731,-0.7027624108372413 l 24.606539201538368 -19.376777121309768" fill="#c6ff1e" stroke="none" /><path d="M 83.28015986056508 112.70617746262583 l -24.996639658842067 18.99609905512485 a52.39560118147304,52.39560118147304 0 0,0 -0.5395218300110112,-0.722777658697125 l 25.319922755548163 -18.563008516918416" fill="#c5ff1e" stroke="none" /><path d="M 82.85270091963577 112.12312394758628 l -25.739589515624342 18.19786501625993 a52.52282918113245,52.52282918113245 0 0,0 -0.5155718266988975,-0.7427196695236303 l 26.049022249485375 -17.752104084549288" fill="#c3ff1e" stroke="none" /><path d="M 82.6465618267979 111.8261652097733 l -25.8952370200315 17.647301248811935 a52.33672831821997,52.33672831821997 0 0,0 -0.5009295173773571,-0.7488216614697129 l 26.19516964281959 -17.1989426731364" fill="#c5ff1e" stroke="none" /><path d="M 82.44556493220864 111.52570212397912 l -26.249103738091385 17.23435414118014 a52.401248537545385,52.401248537545385 0 0,0 -0.48856712460105167,-0.7582670270337066 l 26.54187572606948 -16.779965514224987" fill="#c5ff1e" stroke="none" /><path d="M 82.24976979558568 111.22182372390057 l -26.533977605837027 16.77497226557536 a52.39190440380901,52.39190440380901 0 0,0 -0.4753576373362742,-0.7664278685528808 l 26.818799882841258 -16.315748065657214" fill="#c5ff1e" stroke="none" /><line stroke="#e1ed5e" stroke-width="0.3" x1="26.63291911575756" x2="22.317208475507996" y1="142.92168965132927" y2="145.44649492493687" /><path d="M 25.769776987707644 143.4266507060508 a86.0,86.0 0 0,1 -11.730757126820373,-40.83630448921669" fill="none" id="id93" stroke="none" /><text fill="#e1ed5e" style="font-size:6.75px; font-family:Arial;" text-anchor="middle"><textPath startOffset="21.46611528233685" xlink:href="#id93">September</textPath></text><path d="M 81.87401531095188 110.60418214915194 l -27.138097904441693 15.87650758273539 a52.441053590738925,52.441053590738925 0 0,0 -0.44911518133145745,-0.7830701746826999 l 27.40736508192553 -15.407017562194385" fill="#c4ff1e" stroke="none" /><path d="M 81.51974371655577 109.97397251340807 l -27.675657936461697 14.936819452879735 a52.44917514950053,52.44917514950053 0 0,0 -0.4219598374848453,-0.7981889928046788 l 27.928670282171428 -14.45821544498893" fill="#c4ff1e" stroke="none" /><path d="M 81.35079622478065 109.6543875284942 l -27.92798133415632 14.457858787878793 a52.44839935722052,52.44839935722052 0 0,0 -0.4081517709780043,-0.8053221655081599 l 28.172711774920593 -13.974982410667948" fill="#c4ff1e" stroke="none" /><path d="M 81.18737489456691 109.33194174019688 l -28.110433245861223 13.944089348078862 a52.37887960105055,52.37887960105055 0 0,0 -0.39370645558074086,-0.8111519104964904 l 28.346292958056683 -13.458148481617085" fill="#c5ff1e" stroke="none" /><path d="M 80.73074385275274 108.34839909993369 l -28.80075380575021 12.47791743033554 a52.38760652196511,52.38760652196511 0 0,0 -0.35136871315725265,-0.8305318452638032 l 29.01127350009977 -11.980311059405576" fill="#c5ff1e" stroke="none" /><path d="M 80.45479744820244 107.68017299344265 l -29.198016357861704 11.47318970470953 a52.37129645446953,52.37129645446953 0 0,0 -0.3224718198412898,-0.8418721646391958 l 29.3911824572965 -10.968893973237178" fill="#c5ff1e" stroke="none" /><path d="M 80.32549172779594 107.34259656027581 l -29.534752619196333 11.022474869000312 a52.52453908489176,52.52453908489176 0 0,0 -0.30883363232699923,-0.84977751739668 l 29.720110512528557 -10.512449554597517" fill="#c3ff1e" stroke="none" /><path d="M 80.20201598880116 107.00284435728193 l -29.64832936285191 10.487059483634333 a52.448399810187986,52.448399810187986 0 0,0 -0.29373393904921635,-0.853728320686114 l 29.82445413284436 -9.975158459858923" fill="#c4ff1e" stroke="none" /><path d="M 79.86692584326677 105.97154293290107 l -30.12622650318823 8.935548221279745 a52.42345533731478,52.42345533731478 0 0,0 -0.24915461154935628,-0.8673398888175575 l 30.275573751623693 -8.415650856957592" fill="#c4ff1e" stroke="none" /><path d="M 79.76711848015287 105.62410040840567 l -30.33593561151162 8.432429542708054 a52.48610578363915,52.48610578363915 0 0,0 -0.23446774042344204,-0.8725416862560101 l 30.476591428276837 -7.908996923276504" fill="#c3ff1e" stroke="none" /><path d="M 79.67330655649465 105.27499134158121 l -15.123152457860057 3.9246175721764254 a36.62409560107447,36.62409560107447 0 0,0 -0.1531038675214503,-0.6115738445021554 l 15.188467639676565 -3.663715888276878" fill="#ff4806" stroke="none" /><path d="M 79.58551787078972 104.9243191809786 l -15.235925243633666 3.675163466911011 a36.67291436007072,36.67291436007072 0 0,0 -0.14274396502235226,-0.6149372653596408 l 15.296929774586575 -3.4123575442027962" fill="#ff4906" stroke="none" /><path d="M 79.4281124754447 104.21870165774334 l -49.97286218598774 10.247994808184885 a72.0128253740989,72.0128253740989 0 0,0 -0.23856843275655656,-1.2164552988816215 l 50.14186055171997 -9.386275782235307" fill="#3bff9c" stroke="none" /><path d="M 79.35854240842038 103.8639653848113 l -15.39867071641415 2.882545011966778 a36.66614584314104,36.66614584314104 0 0,0 -0.11079035235511743,-0.6213711327835818 l 15.446007511108457 -2.617055128449983" fill="#ff4906" stroke="none" /><path d="M 79.29508885075956 103.50808413554451 l -30.983901650069978 5.249678834766181 a52.42548789325953,52.42548789325953 0 0,0 -0.14309223775214416,-0.8910355010748234 l 31.069675642183412 -4.715564103998144" fill="#c4ff1e" stroke="none" /><path d="M 79.18660465613746 102.79330883721812 l -30.936424960650093 4.151892942349807 a52.213788689466526,52.213788689466526 0 0,0 -0.11188293750142789,-0.8918170944905027 l 31.003309407398373 -3.618758093571896" fill="#c7ff1e" stroke="none" /><path d="M 79.1416061653843 102.43462659150553 l -31.28004478461741 3.651059109341848 a52.49240280365375,52.49240280365375 0 0,0 -0.09703020311988429,-0.8983791733685113 l 31.338257289238346 -3.1120836140885544" fill="#c3ff1e" stroke="none" /><path d="M 79.07016306316243 101.71520430193888 l -15.6957813056731 1.2862724014060143 a36.748398251445636,36.748398251445636 0 0,0 -0.04623900692270073,-0.6308945123981724 l 15.715596871260136 -1.0159047525110811" fill="#ff4a06" stroke="none" /><line stroke="#e1ed5e" stroke-width="0.3" x1="15.007084014347285" x2="10.007500721073583" y1="101.09737516637583" y2="101.16192664675087" /><path d="M 14.007167355692545 101.11028546245083 a86.0,86.0 0 0,1 10.666146001902534,-42.60595125391555" fill="none" id="id94" stroke="none" /><text fill="#e1ed5e" style="font-size:6.75px; font-family:Arial;" text-anchor="middle"><textPath startOffset="22.20632615414155" xlink:href="#id94">October</textPath></text><path d="M 79.16333360222342 97.38593545837743 l -31.121592854631682 -3.904360266035061 a52.36554751469286,52.36554751469286 0 0,0 0.11990214457302557,-0.8934102467740958 l 31.049774711000826 4.439488854873816" fill="#c5ff1e" stroke="none" /><path d="M 79.21141760316559 97.0276538004421 l -31.126806908708424 -4.450502898820105 a52.443363121403294,52.443363121403294 0 0,0 0.13546397035994134,-0.8925383108920649 l 31.04558704490918 4.9856403221042624" fill="#c4ff1e" stroke="none" /><path d="M 79.26566170972629 96.67025291283419 l -30.954785908816394 -4.971058481382674 a52.351398582614856,52.351398582614856 0 0,0 0.1505430241531879,-0.8885134503041217 l 30.864631023142984 5.503157720002624" fill="#c5ff1e" stroke="none" /><path d="M 79.3925641242962 95.95851677861259 l -30.875795780943154 -6.055290495543237 a52.4639684097846,52.4639684097846 0 0,0 0.18142715833390669,-0.8847032565799501 l 30.76698932669425 6.585869408286589" fill="#c4ff1e" stroke="none" /><path d="M 79.54389044137918 95.25157060432595 l -30.555991544305478 -7.092891639397833 a52.368419326831045,52.368419326831045 0 0,0 0.21138686957632835,-0.8763350450524714 l 30.429371874468334 7.617811916109701" fill="#c5ff1e" stroke="none" /><path d="M 79.71946130924805 94.55025226153421 l -30.319121732119232 -8.147296657718085 a52.394706328231976,52.394706328231976 0 0,0 0.2415476535649177,-0.8689754273717712 l 30.174387307987953 8.667983388508798" fill="#c5ff1e" stroke="none" /><path d="M 79.91906864156998 93.8553929516997 l -29.993288719280617 -9.177710434672116 a52.366028390933,52.366028390933 0 0,0 0.2711675440167863,-0.859675217746848 l 29.830865691495625 9.692635818845378" fill="#c5ff1e" stroke="none" /><path d="M 80.14247586403 93.16781622104843 l -29.838099787388987 -10.266102660445249 a52.55479460806208,52.55479460806208 0 0,0 0.3016818370797675,-0.8528951783375952 l 29.65696486949941 10.778195465209455" fill="#c2ff1e" stroke="none" /><path d="M 80.2630227832202 92.82701384747504 l -29.43898521184966 -10.6989753775192 a52.322865840025955,52.322865840025955 0 0,0 0.3149223885059149,-0.8438354316349821 l 29.250458234842114 11.204133946183525" fill="#c6ff1e" stroke="none" /><path d="M 80.38941819471856 92.48833698450439 l -29.276514449936144 -11.214114553041039 a52.350768149218396,52.350768149218396 0 0,0 0.32957662942737126,-0.838736573251224 l 29.079144270627083 11.716400131188026" fill="#c5ff1e" stroke="none" /><path d="M 80.52162464483688 92.15188598940014 l -29.147890818045642 -11.744099091298319 a52.424885085023675,52.424885085023675 0 0,0 0.3444522480579235,-0.8341184403794919 l 28.941416883101517 12.244092102131122" fill="#c4ff1e" stroke="none" /><path d="M 80.65960295795068 91.81776055985345 l -29.002073676459478 -12.26975385074193 a52.49074684875829,52.49074684875829 0 0,0 0.3592099033077427,-0.8291059824295902 l 28.786573063309053 12.76715897775812" fill="#c3ff1e" stroke="none" /><path d="M 80.95270993114464 91.15688171328213 l -28.45931218381856 -13.21285406429801 a52.37693360576333,52.37693360576333 0 0,0 0.386695923203248,-0.8144802340216334 l 28.22765806677356 13.700776713960176" fill="#c5ff1e" stroke="none" /><path d="M 81.26839172434947 90.50648371742162 l -42.48612597343314 -21.53273348326286 a68.63118213409845,68.63118213409845 0 0,0 0.543135955321775,-1.0491657889792725 l 42.109180584951254 22.260871994502466" fill="#36ff6f" stroke="none" /><path d="M 81.43458229118936 90.18545643968196 l -27.777834813792463 -14.68465585139536 a52.420490518390395,52.420490518390395 0 0,0 0.42857969795250106,-0.7940930903304662 l 27.52094701662149 15.1606299250583" fill="#c4ff1e" stroke="none" /><path d="M 81.6062741919709 89.86733742301443 l -27.501165565074196 -15.14973279764085 a52.39790616072253,52.39790616072253 0 0,0 0.4419946994594413,-0.7862592512444481 l 27.236313224322323 15.620875558820082" fill="#c5ff1e" stroke="none" /><line stroke="#e1ed5e" stroke-width="0.3" x1="26.266209847984243" x2="21.928928074336255" y1="57.711370442889674" y2="55.22380399835377" /><path d="M 25.398753493254645 57.213857153982495 a86.0,86.0 0 0,1 29.58750427330803,-30.492523968695096" fill="none" id="id95" stroke="none" /><text fill="#e1ed5e" style="font-size:6.75px; font-family:Arial;" text-anchor="middle"><textPath startOffset="21.46611528233685" xlink:href="#id95">November</textPath></text><path d="M 81.78341655067845 89.55222093294921 l -27.262970641531286 -15.636164419449313 a52.42863671801641,52.42863671801641 0 0,0 0.45573049588494235,-0.778991144678086 l 26.98978047117602 16.103134976481293" fill="#c4ff1e" stroke="none" /><path d="M 82.15384107792192 88.93136811851018 l -26.67311939377486 -16.543332433035538 a52.38689449729766,52.38689449729766 0 0,0 0.48189058739295904,-0.7622351829807866 l 26.38440121013594 17.00001526373054" fill="#c5ff1e" stroke="none" /><path d="M 82.54541684631803 88.32363383020206 l -26.06524969174593 -17.43653211470923 a52.35968580327851,52.35968580327851 0 0,0 0.5075786197532997,-0.7448089925759669 l 25.76124660632389 17.88261913055561" fill="#c5ff1e" stroke="none" /><path d="M 82.7489923806493 88.02491185347247 l -25.81314180045728 -17.91864308566832 a52.42285887124346,52.42285887124346 0 0,0 0.5209518609633723,-0.7368494626494192 l 25.50087731969003 18.360319048649526" fill="#c4ff1e" stroke="none" /><path d="M 83.17141714833178 87.43820079747576 l -25.087616816950973 -18.726805917182023 a52.306257799583214,52.306257799583214 0 0,0 0.544792240838534,-0.7168827291148497 l 24.76154863588833 19.1558734221779" fill="#c6ff1e" stroke="none" /><path d="M 83.6137871275137 86.86637796730984 l -24.446642470812844 -19.59409197710794 a52.32996598311457,52.32996598311457 0 0,0 0.5694036255587029,-0.6980215178924261 l 24.10574035317775 20.011997664608447" fill="#c6ff1e" stroke="none" /><path d="M 84.07557802195018 86.31012108654704 l -35.758175434443864 -30.74052499602843 a68.15534951022963,68.15534951022963 0 0,0 0.7724537011490709,-0.8830481125373734 l 35.22372986971695 31.351488664768745" fill="#35ff68" stroke="none" /><path d="M 84.31358615837235 86.03803664274999 l -23.510376041947584 -20.92581594027235 a52.474236359281846,52.474236359281846 0 0,0 0.6063431979236427,-0.6695393034584806 l 23.146689203407895 21.327408031000388" fill="#c4ff1e" stroke="none" /><path d="M 84.5562425177563 85.77008943001954 l -34.49145290156302 -31.780497122040344 a67.90053646372027,67.90053646372027 0 0,0 0.7993919747413463,-0.8527356226604841 l 33.93929360485122 32.36950216157888" fill="#35ff65" stroke="none" /><path d="M 84.80347519578584 85.50635884689758 l -22.780282950488516 -21.726628338010425 a52.47995664295546,52.47995664295546 0 0,0 0.6290990726829913,-0.6483418937695133 l 22.40291961410241 22.11553442733006" fill="#c4ff1e" stroke="none" /><path d="M 85.31137513191541 84.99185889309783 l -21.98570766083034 -22.463954650090376 a52.43247683318658,52.43247683318658 0 0,0 0.6504542282832525,-0.6257364522542725 l 21.595770188934658 22.839074189106963" fill="#c4ff1e" stroke="none" /><path d="M 85.83668400450813 84.49514656593479 l -21.28426233729823 -23.30028985422934 a52.55825297024591,52.55825297024591 0 0,0 0.6732186933403596,-0.6044223899842565 l 20.880032656361898 23.663211252982876" fill="#c2ff1e" stroke="none" /><path d="M 86.10567301691215 84.25364557470407 l -41.3996341686611 -46.91794813025585 a83.57174734696443,83.57174734696443 0 0,0 1.0868553551610018,-0.9425102539451006 l 40.585885014853325 47.62362337762063" fill="#4cd7ff" stroke="none" /><path d="M 86.65592168130627 83.78471172551755 l -20.106273269299756 -24.432486785579034 a52.64188103301149,52.64188103301149 0 0,0 0.7046406595976863,-0.569770408921444 l 19.68272921113757 24.77496329176461" fill="#c1ff1e" stroke="none" /><path d="M 87.22198572758235 83.33499621200491 l -19.175408102155842 -25.00844355359427 a52.51378309339478,52.51378309339478 0 0,0 0.722074135662637,-0.5438512688143478 l 18.742087812734813 25.33481141191447" fill="#c3ff1e" stroke="none" /><path d="M 87.80319425747018 82.90503203632743 l -18.15351959633106 -25.443861489492992 a52.25604519498397,52.25604519498397 0 0,0 0.7367327500354118,-0.5161283728881964 l 17.712855706711988 25.752574705145133" fill="#c7ff1e" stroke="none" /><path d="M 88.09926311788651 82.69761687909137 l -35.488228550267465 -51.59604255951315 a83.62240791792593,83.62240791792593 0 0,0 1.192994326411049,-0.8055150946046749 l 34.594829529449875 52.1992695664165" fill="#4cd6ff" stroke="none" /><path d="M 88.39885842347998 82.49532879139004 l -17.408997349317083 -26.26799894314968 a52.51318703631611,52.51318703631611 0 0,0 0.7577727263409946,-0.4928764600318793 l 16.954257597191802 26.563774327341093" fill="#c3ff1e" stroke="none" /><line stroke="#e1ed5e" stroke-width="0.3" x1="56.762969772571076" x2="54.21961505331055" y1="26.818313649435495" y2="22.513508569990535" /><path d="M 56.25429882871897 25.957352633546506 a86.0,86.0 0 0,1 42.265352541879196,-11.944610805530505" fill="none" id="id96" stroke="none" /><text fill="#e1ed5e" style="font-size:6.75px; font-family:Arial;" text-anchor="middle"><textPath startOffset="22.20632615414155" xlink:href="#id96">December</textPath></text><path d="M 89.3179101791058 81.91981866633112 l -15.95923731604894 -27.01212117284607 a52.3743835950045,52.3743835950045 0 0,0 0.780137063030102,-0.45190574127017763 l 15.491903520553517 27.28283107150629" fill="#c5ff1e" stroke="none" /><path d="M 89.94658935756843 81.56283822128135 l -15.005431416610941 -27.518777102355518 a52.343995680317164,52.343995680317164 0 0,0 0.7947686812938151,-0.4245379049646926 l 14.52951768878882 27.772993733821963" fill="#c5ff1e" stroke="none" /><path d="M 90.26544431104013 81.39251694778311 l -29.088129890846293 -55.60160127066248 a83.75075588714833,83.75075588714833 0 0,0 1.2831393982477894,-0.6572738371871312 l 28.12673000500974 56.09406763316212" fill="#4dd5ff" stroke="none" /><path d="M 91.56875222667455 80.76684994638697 l -12.621908977081947 -28.792780836935773 a52.43782458360562,52.43782458360562 0 0,0 0.8298067054892768,-0.3552799254457154 l 12.124418513802363 29.005780290344273" fill="#c4ff1e" stroke="none" /><path d="M 92.23578459929587 80.48803036053334 l -11.630895957017202 -29.22918506002987 a52.45827395195789,52.45827395195789 0 0,0 0.8418724503270842,-0.32663343145365376 l 11.126040341690443 29.425061195374074" fill="#c4ff1e" stroke="none" /><path d="M 92.91201910852362 80.23233633223022 l -21.18854208058048 -59.092706353509726 a83.77660599046956,83.77660599046956 0 0,0 1.361641107764135,-0.4750498459749073 l 20.16821896875306 59.44867705265685" fill="#4dd4ff" stroke="none" /><path d="M 93.25333710446033 80.11325718540243 l -10.034309490316126 -29.577546002471554 a52.23329304565513,52.23329304565513 0 0,0 0.8539327025437861,-0.28152818616732206 l 9.52369396552993 29.74588791289811" fill="#c7ff1e" stroke="none" /><path d="M 93.94186890950719 79.89281104454417 l -9.084183869794417 -30.150783937757563 a52.48955650118897,52.48955650118897 0 0,0 0.8673518844415125,-0.25320379942318183 l 8.563841767629484 30.302686066099444" fill="#c3ff1e" stroke="none" /><path d="M 94.63758080256005 79.69619591428918 l -11.998696864195336 -45.430836613959634 a67.988611831838,67.988611831838 0 0,0 1.1340860188256539,-0.2891037776772053 l 11.214901956684683 45.6306433878057" fill="#35ff66" stroke="none" /><path d="M 94.98787191387505 79.60689891045804 l -15.036384258374849 -61.17930326862588 a84.0,84.0 0 0,0 1.407105252149864,-0.3330163514365161 l 13.98105531926245 61.42906553220327" fill="#4dd2ff" stroke="none" /><path d="M 95.33964822691252 79.52364482259891 l -6.969236714339451 -30.62098597412456 a52.40406092224428,52.40406092224428 0 0,0 0.8812797808853674,-0.1926136261028117 l 6.441114209300562 30.736413098323244" fill="#c5ff1e" stroke="none" /><path d="M 95.692805502759 79.44645832069477 l -3.2301200811232063 -15.413840205974747 a36.748655359547335,36.748655359547335 0 0,0 0.6202360888732915,-0.1244135245498012 l 2.9643175827827783 15.467157686601759" fill="#ff4a06" stroke="none" /><path d="M 96.40284397218896 79.31037775812273 l -8.078889237862182 -46.467032614943605 a68.1641131725794,68.1641131725794 0 0,0 1.1577213503858446,-0.191033942552976 l 7.2778386813374505 46.59921282043621" fill="#35ff69" stroke="none" /><path d="M 97.11714578562143 79.19881850522333 l -6.463019333359168 -46.63379698041176 a68.07952463347135,68.07952463347135 0 0,0 1.1621669938707602,-0.1508826302204866 l 5.6593376109805495 46.73813793379639" fill="#35ff67" stroke="none" /><path d="M 97.47563105711357 79.15227682838746 l -3.773845872790916 -31.166638406792206 a52.39428709576499,52.39428709576499 0 0,0 0.8962748795557096,-0.10070692581944186 l 3.2368042897254883 31.226981286082246" fill="#c5ff1e" stroke="none" /><path d="M 97.83486435360386 79.11191278185805 l -4.8776296092898335 -47.056798896745136 a68.30891663327469,68.30891663327469 0 0,0 1.1706029853334938,-0.11116285860476616 l 4.0669014968661035 47.133787299865084" fill="#36ff6b" stroke="none" /><path d="M 98.19473922651362 79.07773832637324 l -3.3663378748237833 -39.01453071673645 a60.159492306906195,60.159492306906195 0 0,0 1.032479582399532,-0.08014028686480604 l 2.694268103061917 39.06669626578972" fill="#5fff29" stroke="none" /><path d="M 98.91598698831166 79.02799685794201 l -2.430496565429106 -47.02192783419775 a68.08470038981945,68.08470038981945 0 0,0 1.170924462848069,-0.050422470475280666 l 1.620731270191713 47.05679803119722" fill="#35ff67" stroke="none" /><path d="M 99.63851952072746 79.00311137660856 l -0.8128799217678605 -47.216793603624744 a68.22379031774675,68.22379031774675 0 0,0 1.1743604010403845,-0.010108090730564871 l 1.1566492731246864e-14 47.22379031774675" fill="#35ff69" stroke="none" /></svg>